ply
format ascii 1.0
comment zipper output
comment modified by flipply
comment modified by boundply
comment modified by simply
comment modified by normalsply
element vertex 800
property float32 x
property float32 y
property float32 z
property float32 nx
property float32 ny
property float32 nz
property float32 confidence
property float32 intensity
element face 1559
property list uint8 int32 vertex_indices
end_header
0.919286 -0.484329 0.291226 0.306132 0.812975 0.495334 0.320561 0.439406 
0.810153 -0.333603 0.129379 0.995381 0.077619 -0.0564942 0.577695 0.5 
0.853983 -0.837122 0.304723 0.569901 -0.724542 0.387622 0.342398 0.5 
-0.163267 -0.920398 0.473532 0.0601385 -0.992342 0.107894 0 0 
-0.960443 0.067754 0.124228 -0.84119 -0.348637 -0.413341 0.373961 0.5 
-0.762725 -0.0294124 0.491712 -0.409148 -0.788682 0.458889 0.382286 0.5 
0.739224 -0.142638 -0.0341769 0.811659 0.345774 -0.470796 0.602541 0.5 
0.131144 0.00641845 -0.26393 -0.00360417 0.488996 -0.872278 0.797158 0.5 
-0.609518 -0.227087 -0.223117 -0.264235 0.110937 -0.958057 0.672209 0.5 
0.164327 -0.923326 0.174715 -0.388861 -0.921257 0.00849997 0.720221 0.5 
0.265167 -0.616604 0.749342 0.186649 -0.246721 0.950942 0.474229 0.468369 
-0.151677 -0.119869 0.575847 -0.12489 0.392414 0.91127 0.82343 0.5 
-0.331155 -0.98112 -0.0680404 0.317566 -0.946175 -0.0624909 0.298612 0.5 
-0.484467 0.416266 0.396459 0.714642 0.208309 0.667753 0.714762 0.5 
-0.19395 -0.550092 -0.255979 -0.889702 -0.280933 -0.35987 0.515252 0.5 
-0.597554 -0.852646 0.393357 -0.691626 0.647038 -0.320929 0.485722 0.287031 
0.766484 -0.796126 0.435928 0.265841 -0.478455 0.836905 0.495426 0.5 
-0.246965 -0.959716 0.297225 -0.475787 -0.863004 -0.169856 0.156756 0.5 
0.715617 -0.423884 -0.114017 0.809751 -0.128195 -0.572599 0.648221 0.5 
-0.62625 0.592235 0.335201 0.0618694 0.987711 0.143527 0.533101 0.5 
0.316794 -0.971069 0.246867 -0.0285732 -0.996543 0.0780098 0.271029 0.5 
0.0847788 -0.921268 -0.180672 -0.0851038 -0.780265 0.619632 0.938213 0.5 
-0.0127595 0.719709 -0.222821 -0.166816 -0.629571 -0.758823 0.642307 0.5 
-0.881475 0.178425 0.649175 -0.55424 -0.116892 0.824108 0.56777 0.5 
0.369507 -0.362852 0.713621 0.349619 0.123877 0.928666 0.579646 0.5 
-0.75427 0.527456 -0.111201 -0.986275 -0.0781851 -0.145427 0.656589 0.5 
0.704182 -0.23923 0.478517 0.814837 0.158082 0.557719 0.623815 0.5 
-0.310619 0.0597248 -0.182335 0.0125254 0.551663 -0.833973 0.681465 0.5 
-0.16464 -0.971305 0.239263 0.453674 -0.879714 0.14242 0.0746888 0.5 
-0.710721 0.128201 0.711705 -0.00650468 -0.125497 0.992073 0.65413 0.5 
0.52698 0.189198 0.119078 0.545894 0.834099 -0.0792438 0.605759 0.5 
0.473393 -0.78737 0.555236 0.476985 -0.306922 0.82358 0.566338 0.5 
0.786789 -0.782658 -0.0562532 0.364579 -0.422795 -0.829655 0.911123 0.5 
-0.837765 -0.186281 0.439329 -0.739797 0.0999537 0.665365 0.769 0.5 
0.586283 -0.826027 -0.0679925 0.489049 -0.528671 -0.693785 0.768076 0.5 
0.00763857 -0.975626 -0.229419 -0.0604354 -0.871341 0.486942 0.909767 0.5 
0.312866 -0.918401 -0.108586 -0.527787 -0.845913 0.0766374 0.596139 0.5 
0.471369 -0.861403 -0.258935 0.57984 -0.330935 -0.744492 0.537872 0.5 
-0.756036 0.891374 -0.617173 -0.284343 0.906811 0.311194 0.206191 0.279993 
-0.123187 -0.97954 -0.251049 0.00644163 -0.882981 0.469365 0.855156 0.5 
-0.289641 -0.949711 0.572476 -0.308998 0.0162074 0.950925 0.302323 0.5 
0.227799 -0.130307 -0.276033 0.140942 0.628545 -0.764896 0.784591 0.5 
-0.335802 -0.976582 0.368546 -0.0629554 -0.994529 -0.0833613 0.342104 0.5 
-0.894316 -0.171514 0.0323798 -0.93819 0.066388 -0.339693 0.485286 0.5 
0.384019 0.0178045 -0.21613 0.282137 0.371174 -0.884663 0.539267 0.5 
-0.716907 0.410378 -0.084079 -0.323077 -0.558539 -0.763973 0.167064 0.116027 
0.0628491 -0.0056384 0.569556 -0.132855 0.268783 0.953994 0.510194 0.5 
-0.453066 -0.697456 0.187454 -0.840815 -0.428736 0.330477 0 0 
-0.115353 0.93375 -0.15198 -0.576502 0.812452 -0.0869887 0.200351 0.5 
-0.17654 -0.924296 0.0555798 -0.00922253 -0.999684 -0.0233717 0 0 
-0.513365 -0.635817 -0.0288682 -0.607731 -0.623423 -0.491942 0.443169 0.5 
-0.782824 -0.039 0.450739 -0.802462 -0.0971182 0.588747 0.515435 0.5 
-0.414786 -0.294093 0.608696 0.182541 0.00406331 0.98319 0.690491 0.5 
0.644379 -0.261599 0.55975 0.650744 0.20549 0.730963 0.726133 0.5 
-0.418074 0.571926 -0.0553068 -0.391867 -0.175453 -0.903137 0.629256 0.5 
-0.954225 0.511689 0.203984 -0.899437 0.382442 -0.211547 0.32027 0.5 
0.000952633 -0.962852 0.681627 0.163148 -0.757902 0.631639 0.513092 0.5 
-0.534951 -0.804655 0.00493644 -0.602934 0.748188 -0.276922 0.296309 0.5 
-0.0681734 -0.925915 0.293508 0.0575341 -0.997816 0.0324496 0.592595 0.5 
0.999386 -0.559324 0.217883 0.975806 0.184086 0.11796 0.45584 0.5 
0.446096 -0.862176 0.586194 0.408474 -0.000594518 0.91277 0.365784 0.5 
-0.170303 -0.29029 0.581319 -0.531867 -0.0791389 0.843122 0.587672 0.5 
0.211439 -0.919451 0.306583 -0.19359 -0.963151 0.186718 0.949289 0.5 
0.440795 -0.970028 0.303141 -0.0795715 -0.994716 -0.0648711 0.310145 0.5 
0.242561 -0.974596 -0.275692 0.123551 -0.801767 -0.584726 0.322372 0.5 
0.903074 -0.709063 0.378634 0.634685 -0.295362 0.714099 0.482732 0.481019 
-0.157189 -0.775863 -0.266479 -0.594671 0.588634 -0.54761 0.272345 0.359352 
-0.626385 0.481752 0.531378 0.462444 0.440156 0.76968 0.751812 0.5 
-0.237503 -0.856557 0.610656 -0.706337 0.385018 0.594011 0.523373 0.442328 
0.00255663 -0.969375 0.592847 0.00602375 -0.999034 0.0435314 0.143773 0.5 
0.134922 -0.74111 -0.396775 0.110572 -0.282106 -0.95299 0.689527 0.5 
-0.629961 0.684994 -0.74055 -0.537083 -0.267085 -0.800129 0.311127 0.5 
0.836443 -0.533897 0.357234 -0.0802462 0.751495 0.65484 0.378342 0.5 
0.36501 -0.973768 -0.106466 -0.167674 -0.985811 -0.00787247 0.427929 0.5 
0.249363 -0.739034 0.70781 0.292871 -0.180864 0.93889 0.656408 0.446148 
-0.681744 0.763289 -0.328243 0.298004 0.897537 0.324995 0.374348 0.5 
-0.108962 0.894205 -0.213889 -0.661645 0.342701 -0.66692 0.496704 0.5 
-0.19833 -0.325619 -0.352025 -0.831851 0.358652 -0.423548 0.6357 0.5 
0.447538 -0.617878 0.649784 0.461519 -0.173471 0.870005 0.544249 0.5 
-0.0736295 -0.917669 -0.20093 -0.0329619 -0.915767 0.400356 0.724838 0.5 
-0.661732 0.402842 0.599042 0.587325 0.31658 0.744867 0.703879 0.5 
-0.949163 0.328427 0.254133 -0.98906 0.14516 -0.026231 0.517639 0.5 
-0.572528 0.12572 -0.100932 -0.120183 0.368966 -0.92164 0.571345 0.5 
-0.56011 0.571839 0.0456052 -0.508218 0.66821 -0.543332 0.160486 0.5 
-0.11723 -0.0806732 -0.282447 -0.0738219 0.300439 -0.95094 0.724169 0.5 
0.614178 0.100376 0.334697 0.700268 0.658722 0.275155 0.619616 0.5 
-0.147329 -0.893853 0.710777 -0.343792 0.22377 0.911994 0.438745 0.430509 
0.438643 -0.951516 0.0734183 -0.263649 -0.802303 0.535536 0 0 
0.0108444 0.667632 -0.0890653 0.624499 0.266243 0.734245 0.497054 0.5 
0.648991 -0.656707 0.519049 0.613926 -0.279342 0.738284 0.625136 0.5 
-0.809068 0.220136 0.708 -0.241935 -0.0773791 0.967202 0.563487 0.468283 
0.772226 -0.328646 0.372262 0.903736 0.0846768 0.419632 0.655655 0.438108 
0.415181 -0.961381 0.577194 0.264297 -0.780157 0.567011 0.202727 0.5 
0.128998 0.205572 -0.0853653 -0.110145 0.821682 -0.559202 0.671027 0.5 
0.308112 -0.471248 -0.420752 0.341689 -0.130058 -0.93077 0.799784 0.5 
0.481918 -0.957011 0.119191 -0.311367 -0.934388 0.173119 0.398949 0.5 
-0.362379 0.730031 0.0662334 -0.139405 0.68179 0.718142 0.44784 0.5 
-0.512348 -0.841557 0.600758 -0.254722 0.56292 0.786281 0.575523 0.5 
-0.375709 0.511996 -0.0410511 -0.116576 -0.546881 -0.829055 0.73379 0.5 
-0.0021888 -0.921122 0.00603783 0.02678 -0.999363 -0.0235706 0.735049 0.5 
0.0390767 0.944455 -0.341746 -0.39 0.364639 -0.84554 0.369864 0.387185 
0.301935 0.128408 -0.167749 0.0675359 0.700243 -0.710703 0.577394 0.472321 
-0.92049 0.317714 0.0657438 -0.822482 0.294652 -0.486521 0.57152 0.5 
0.549164 -0.635589 0.593796 0.581842 -0.127205 0.803293 0.618283 0.5 
-0.491093 -0.403283 -0.243282 -0.0558502 -0.352093 -0.934297 0.799072 0.5 
-0.230313 0.0930417 -0.150566 0.0821045 0.706207 -0.703229 0.614605 0.5 
0.201908 -0.61523 -0.425869 0.205662 -0.21016 -0.955791 0.899586 0.5 
-0.812391 -0.331959 -0.0885246 -0.760716 -0.228344 -0.607594 0.556014 0.5 
-0.361198 -0.90542 -0.249423 -0.855282 0.411375 -0.315061 0.645519 0.5 
-0.421234 -0.733159 0.222124 -0.922955 -0.294442 0.247906 0.492255 0.5 
-0.518054 -0.511831 0.520466 -0.0995297 -0.586908 0.803513 0.761168 0.5 
0.0776614 0.25379 0.122002 -0.230451 0.967702 -0.102203 0.713524 0.5 
-0.124689 -0.929648 0.221063 0.246301 -0.968162 0.0446923 0.292295 0.5 
-0.0943381 -0.311906 0.717803 -0.643784 0.29357 0.706653 0.550514 0.5 
-0.307465 -0.137471 -0.258629 -0.0837169 0.132627 -0.987624 0.869552 0.5 
-0.149852 -0.93242 0.300173 0.503756 -0.847101 0.169262 0.146623 0.5 
0.365151 -0.103249 0.630594 0.0384092 0.538037 0.842046 0.533695 0.5 
-0.343291 0.561606 0.116036 0.555485 0.0845039 0.827222 0.554273 0.423156 
-0.351843 -0.0640506 0.55201 0.205605 0.32611 0.922702 0.696076 0.5 
0.705501 -0.126223 0.412477 0.805867 0.303811 0.50821 0.699987 0.5 
0.695745 -0.645719 -0.112064 0.799369 -0.323907 -0.506056 0.597968 0.5 
-0.595743 0.491617 -0.242806 0.916693 -0.382734 -0.11484 0.498944 0.5 
-0.451199 -0.154577 -0.267659 -0.0693609 0.181926 -0.980863 0.786747 0.5 
-0.614718 -0.987292 0.0100069 -0.070319 -0.997429 -0.0138407 0.792382 0.5 
-0.83372 -0.410031 -0.0023576 -0.828597 -0.428131 -0.360736 0.4029 0.5 
0.250129 0.198959 0.432275 0.0425521 0.776752 0.628367 0.46676 0.5 
-0.0503252 -0.0124221 -0.254883 -0.0505153 0.524083 -0.850168 0.617331 0.472693 
-0.770846 0.75435 -0.362245 -0.71186 0.626764 0.316894 0.253224 0.5 
-0.122444 -0.594089 0.520968 -0.692531 -0.204958 0.69166 0.677056 0.5 
-0.0585789 -0.213522 0.683618 -0.467792 0.671436 0.574755 0.515324 0.5 
0.243759 -0.789698 -0.367924 0.339705 -0.423884 -0.839597 0.901259 0.5 
0.66858 -0.753655 0.430545 0.345102 -0.20043 0.916915 0.686246 0.5 
-0.165397 -0.558677 -0.343488 -0.847365 -0.292579 -0.443136 0.575137 0.5 
-0.0672422 -0.486422 0.683021 -0.658864 -0.317811 0.681832 0.598535 0.5 
-0.242719 0.846994 -0.112872 -0.618233 0.679801 -0.394536 0.326979 0.5 
0.30334 -0.959684 0.103082 0.367186 -0.925259 0.0952419 0 0 
0.835643 -0.469697 0.204846 0.106408 0.975625 0.191918 0.923601 0.5 
-0.128417 -0.917116 0.484293 0.0559523 -0.99453 0.0881945 0.480271 0.5 
-0.513517 0.596153 0.146031 -0.211573 0.772274 0.599024 0.3204 0.463594 
0.234509 -0.112164 0.590111 -0.0357161 0.628909 0.776658 0.441214 0.5 
0.688401 -0.276532 -0.186059 0.668732 0.251446 -0.699694 0.676719 0.402165 
0.295038 0.0849454 0.522297 0.145236 0.539694 0.829239 0.649034 0.445413 
0.152026 0.240739 0.367648 -0.117834 0.874251 0.470958 0.375412 0.377874 
0.777468 -0.573142 0.0108544 0.534703 0.315664 -0.783868 0.786477 0.5 
-0.608721 -0.905833 0.355366 -0.796111 0.392709 -0.46042 0.238525 0.370167 
0.577783 -0.816358 0.487586 0.610265 -0.342172 0.71449 0.401045 0.38244 
0.0890269 -0.966095 0.565212 0.0138631 -0.999898 -0.00345633 0.138845 0.5 
-0.704336 0.377038 -0.076392 -0.263148 -0.0108451 -0.964694 0.533107 0.466083 
0.229227 -0.970836 0.242149 -0.350281 -0.926052 0.140467 0.879616 0.5 
0.585137 -0.338444 0.591637 0.605503 0.0851931 0.79127 0.682251 0.5 
-0.0195274 -0.354032 0.764606 -0.227067 -0.0347044 0.97326 0.66078 0.5 
0.300714 -0.97431 -0.17674 -0.15207 -0.935422 0.319156 0.890667 0.5 
-0.586582 -0.894399 0.571572 -0.689811 0.293978 0.661617 0.391154 0.5 
-0.0980834 0.192479 0.26325 -0.27748 0.907628 0.314987 0.397297 0.5 
0.0886998 0.901698 -0.357555 0.871921 0.403526 -0.277343 0.244698 0.41987 
0.626506 -0.729552 -0.135409 0.761869 -0.419736 -0.493332 0.594047 0.476908 
-0.479651 0.511735 0.358315 0.876973 0.220585 0.426919 0.75025 0.5 
0.0614371 0.243299 0.306871 -0.230972 0.950489 0.207899 0.337365 0.411707 
-0.913855 0.0161133 0.50279 -0.547507 -0.8359 -0.038824 0.43985 0.5 
-0.435919 0.512466 0.185379 0.823036 0.143086 0.549671 0.742541 0.5 
-0.194738 -0.160574 0.592911 -0.107525 0.227155 0.967904 0.691465 0.5 
-0.257893 -0.0110746 -0.232375 -0.0415399 0.3868 -0.921228 0.708483 0.5 
0.0326853 -0.678489 -0.429029 0.0326073 -0.315078 -0.948505 0.578464 0.5 
0.617147 -0.436995 0.574235 0.613326 -0.132955 0.778559 0.609466 0.5 
0.50525 -0.734125 0.582849 0.524713 -0.495594 0.692144 0.581774 0.5 
-0.398069 -0.91611 -0.135662 -0.538844 0.414972 -0.733107 0.320351 0.438157 
0.0535029 0.0360732 -0.212754 -0.0275322 0.59486 -0.803358 0.626933 0.5 
-0.937211 -0.254829 0.266193 -0.957753 -0.229507 0.17331 0.529283 0.5 
-0.577866 -0.366314 -0.229769 -0.287797 -0.0934027 -0.953126 0.571258 0.5 
-0.516319 -0.798896 0.141881 -0.729219 0.551777 0.4047 0.314687 0.308894 
-0.884124 -0.395865 0.111233 -0.89784 -0.414089 -0.14971 0.690639 0.5 
-0.50049 0.6508 0.0462234 -0.671842 0.739256 -0.0461343 0.177895 0.5 
0.933101 -0.478437 0.133809 0.324611 0.921833 -0.211781 0.570003 0.473434 
0.462322 -0.0271571 0.540189 0.214255 0.535066 0.81719 0.684229 0.5 
-0.0627944 -0.0716249 0.572388 -0.049768 0.313506 0.948281 0.790435 0.5 
-0.524349 -0.952954 0.620339 -0.376813 -0.296168 0.877666 0.299159 0.5 
-0.637004 -0.190305 0.565025 -0.175228 0.170125 0.969718 0.673276 0.5 
0.023832 -0.980218 -0.307794 0.139357 -0.851824 -0.50495 0.319746 0.5 
0.328102 -0.716673 -0.372077 0.156608 -0.175388 -0.971964 0.564173 0.483714 
0.0469315 -0.221289 0.741384 -0.113007 0.423761 0.898697 0.858476 0.5 
0.351293 -0.58564 0.717454 0.372315 -0.174862 0.911485 0.408179 0.5 
0.634558 0.0137408 -0.0792268 0.681147 0.54499 -0.488902 0.536958 0.474182 
0.195232 -0.917348 0.0563146 -0.308639 -0.934331 -0.178232 0.733391 0.5 
-0.585708 -0.972656 0.275431 -0.783987 -0.589724 0.193882 0.333406 0.5 
-0.925351 0.349228 0.35938 -0.98792 0.0831127 0.130794 0.583304 0.473825 
0.280587 -0.336974 -0.413564 0.328725 0.116972 -0.937154 0.841714 0.5 
0.351661 -0.490483 -0.39333 0.257083 -0.0727713 -0.963646 0.70499 0.5 
0.299935 0.226131 -0.0444937 0.070908 0.857758 -0.50914 0.653373 0.5 
-0.667713 0.236042 -0.0993226 -0.00825487 0.0535244 -0.998532 0.790302 0.5 
-0.240673 0.527217 0.0123426 0.513624 -0.801813 0.305428 0.297332 0.5 
0.583805 -0.571441 -0.240279 0.670398 -0.0516387 -0.740203 0.724151 0.5 
-0.182768 0.841321 -0.0230432 0.582579 0.116754 0.804345 0.408988 0.459977 
0.358631 -0.971904 0.286759 -0.0239849 -0.996875 0.0752656 0.162071 0.5 
0.57948 -0.777503 -0.21646 0.72275 -0.491827 -0.485529 0.465102 0.5 
-0.690525 -0.898413 0.0238107 -0.77173 0.556551 -0.307709 0.29018 0.5 
-0.101253 -0.945548 0.720536 -0.193586 -0.327736 0.924724 0.39199 0.5 
-0.370526 0.460429 0.0911462 0.642209 -0.668982 0.374207 0.548964 0.369679 
0.0223556 -0.127181 0.585788 -0.181525 0.570643 0.800884 0.804394 0.5 
-0.495955 -0.979575 -0.131992 -0.227979 -0.161301 -0.960212 0.284194 0.5 
0.36004 -0.703888 0.695139 0.384183 -0.161635 0.908998 0.636588 0.5 
-0.6687 0.0511078 0.670698 0.404785 -0.666244 0.626313 0.495632 0.461504 
0.0211704 0.16581 0.431041 -0.272363 0.796835 0.539326 0.436268 0.5 
-0.599073 0.590536 -0.496579 0.894864 -0.412906 -0.169492 0.600151 0.5 
0.17135 -0.46493 0.782616 0.0112714 -0.154559 0.987919 0.635767 0.4839 
-0.498848 0.0460545 0.474713 0.318428 -0.0161974 0.947809 0.823549 0.5 
0.746256 -0.472329 0.416251 0.875752 -0.0271984 0.481994 0.62453 0.5 
0.624193 -0.415276 -0.233531 0.681605 -0.0543961 -0.729696 0.687304 0.5 
1.00122 -0.633946 0.151799 0.98785 -0.109063 -0.110713 0.3859 0.5 
-0.774169 0.535717 -0.0422803 -0.955756 0.212514 -0.20339 0.584133 0.5 
-0.250368 -0.48937 -0.202458 -0.416247 -0.402334 -0.815393 0.684204 0.5 
-0.209157 -0.756038 -0.110759 -0.356917 0.317446 -0.878543 0.79326 0.5 
-0.461283 -0.901576 -0.12255 -0.285445 0.345735 -0.893861 0.612612 0.437573 
-0.590844 -0.0961601 -0.215003 -0.33212 0.171977 -0.927427 0.561277 0.5 
-0.395901 -0.470276 0.555418 -0.0784589 -0.378117 0.922427 0.672003 0.5 
-0.955039 0.445133 0.206519 -0.922418 -0.042158 -0.383885 0.533468 0.5 
0.652714 -0.0907084 -0.141651 0.638663 0.338473 -0.691047 0.762374 0.5 
-0.873405 0.0223133 0.395576 -0.652718 -0.742067 0.152631 0.585285 0.5 
-0.250682 0.562997 -0.091166 0.0665155 -0.710199 -0.700852 0.732334 0.5 
-0.655954 -0.97778 0.165674 -0.218697 -0.968606 0.118215 0.724098 0.5 
0.851519 -0.656196 -0.0482471 0.257008 0.226736 -0.939435 0.758034 0.5 
0.103161 0.780667 -0.326988 0.398925 -0.535142 -0.744636 0.287704 0.5 
-0.286604 -0.825421 -0.271975 -0.515412 0.744124 -0.425006 0.382216 0.5 
0.486387 -0.925649 0.545427 0.65892 -0.554231 0.508579 0.30736 0.461486 
-0.484366 0.28926 -0.0463798 0.481352 0.211751 -0.850566 0.623438 0.5 
-0.58308 0.76579 -0.637524 0.958778 0.205435 0.196318 0.555973 0.5 
0.820395 -0.484572 0.100428 0.528643 0.75549 -0.387002 0.332734 0.5 
-0.796272 0.586259 0.288763 -0.217837 0.971044 0.0980834 0.50868 0.5 
-0.609891 -0.846918 0.480266 -0.817675 0.526665 0.232449 0.433764 0.453044 
-0.514311 0.286901 0.488206 0.53277 0.452294 0.715252 0.663514 0.5 
-0.210838 -0.864441 -0.364886 -0.170321 0.44839 -0.877461 0.479278 0.49112 
-0.63069 -0.603022 0.338598 -0.387864 -0.830727 0.399317 0.57361 0.284512 
-0.479138 -0.98728 0.221496 0.0496854 -0.99824 0.0323636 0.328791 0.5 
-0.101956 -0.386121 0.712716 -0.696508 -0.217811 0.683693 0.579571 0.477226 
-0.0787921 0.696234 -0.0902884 0.293626 0.657373 0.694006 0.505293 0.5 
-0.499939 0.173058 0.526277 0.637495 0.0129559 0.770346 0.626378 0.5 
0.0873546 -0.572068 -0.441988 0.214864 -0.208549 -0.954118 0.670163 0.5 
-0.703882 0.475952 -0.321536 -0.445148 -0.878641 -0.172725 0.235551 0.5 
-0.256101 -0.229264 0.588003 -0.154883 -0.0405907 0.987099 0.806614 0.5 
-0.580631 0.548749 -0.168468 0.986517 0.14365 0.0784179 0.330517 0.476166 
-0.515955 -0.320555 -0.256056 -0.124285 -0.0983095 -0.987364 0.398121 0.5 
0.784187 -0.215299 0.311063 0.948206 0.182351 0.260102 0.535181 0.455861 
0.806358 -0.418883 0.0584888 0.947912 0.0141992 -0.318215 0.536395 0.5 
-0.384757 0.279542 0.314024 0.844614 0.456912 0.279033 0.592659 0.5 
-0.54224 0.586377 0.158163 -0.0796711 0.991953 0.0983952 0.521847 0.5 
-0.388317 -0.953515 0.121668 0.122073 -0.729254 0.673265 0.267767 0.5 
0.388688 0.225513 0.370191 0.23096 0.858088 0.45863 0.393607 0.433953 
0.22826 0.0334035 0.565442 0.12874 0.374105 0.918407 0.824805 0.5 
0.219939 -0.968567 0.528717 -0.00023505 -0.999315 0.0370127 0.296055 0.5 
0.509604 -0.895324 -0.0559035 0.567089 -0.679514 -0.465479 0.449472 0.5 
-0.265032 -0.952532 0.171725 -0.500501 -0.757165 0.419762 0.399347 0.5 
0.266986 -0.907666 0.458425 0.0380099 -0.997258 0.0634957 0.322538 0.5 
0.405754 -0.534598 0.697582 0.459486 -0.179625 0.869832 0.556582 0.5 
0.129518 -0.909586 0.497362 0.0254392 -0.997414 0.0672214 0.328321 0.5 
-0.48319 0.576886 0.173692 0.238253 0.806398 0.541256 0.48389 0.5 
-0.981482 0.140935 0.565557 -0.903076 -0.060323 0.425223 0.62869 0.473902 
-0.707267 0.435996 -0.170889 -0.422316 -0.868712 -0.258823 0.21928 0.5 
0.273117 -0.978017 0.041499 -0.196874 -0.977662 -0.0736012 0.258125 0.5 
-0.496822 0.565937 0.33045 0.553739 0.809495 0.195172 0.44484 0.424185 
-0.690946 -0.342826 -0.198929 -0.384269 -0.0330948 -0.922628 0.534997 0.5 
-0.571697 0.112901 0.551623 0.721723 -0.374022 0.582429 0.537311 0.5 
-0.407496 -0.166222 0.587042 0.0412661 0.214936 0.975756 0.623362 0.399136 
-0.295381 0.709174 0.0659514 0.538186 0.0640076 0.840392 0.507416 0.464036 
0.0727122 -0.308229 -0.472739 0.118673 0.159269 -0.980076 0.776575 0.5 
-0.572041 0.197478 0.568822 0.677497 0.152556 0.719531 0.678235 0.5 
0.479496 -0.206974 -0.279171 0.362336 0.340021 -0.867812 0.81744 0.5 
-0.638272 0.480248 -0.350072 0.380772 -0.888198 -0.257133 0.785122 0.5 
0.148549 0.111524 -0.164865 -0.105543 0.65215 -0.750707 0.571292 0.5 
-0.313992 -0.639928 0.546704 -0.0360228 -0.185888 0.98191 0.751111 0.5 
-0.414897 -0.497087 -0.17674 -0.173547 -0.457373 -0.872176 0.848832 0.5 
-0.222869 -0.981157 0.191883 -0.200458 -0.972292 0.120268 0.513983 0.5 
0.371665 0.264258 0.149065 0.285499 0.956873 -0.0537144 0.618873 0.5 
0.342881 -0.53965 -0.37869 0.0517651 -0.2017 -0.978078 0.788738 0.5 
-0.470639 0.346514 0.401202 0.747453 0.333816 0.574353 0.614763 0.5 
0.0668687 -0.91397 -0.146634 0.0137935 -0.997802 0.0648198 0.785916 0.5 
-0.251889 -0.981744 -0.378918 -0.138639 -0.719789 -0.680208 0.148986 0.5 
-0.259354 0.229205 0.0661595 0.263274 0.947434 -0.181812 0.840554 0.5 
-0.0660331 -0.756046 0.589049 -0.577887 0.347231 0.738564 0.629327 0.5 
0.0823827 0.705586 -0.229813 0.528697 -0.790111 -0.310167 0.266099 0.5 
-0.67039 0.508932 -0.514811 0.35179 -0.896799 -0.26832 0.618353 0.5 
0.321486 -0.907435 0.428922 -0.498323 -0.848728 0.177017 0.329606 0.5 
-0.504919 0.192755 -0.0664787 0.308105 0.147767 -0.939807 0.861901 0.5 
0.269887 -0.759121 -0.35865 0.270433 -0.321059 -0.907627 0.690932 0.5 
-0.256064 -0.922938 -0.0575973 0.329729 -0.942394 0.0563192 0 0 
0.0747406 0.859026 -0.363291 -0.174348 -0.149983 -0.973195 0.351615 0.5 
-0.264452 0.68846 0.0108149 0.71644 -0.0536181 0.695585 0.673585 0.5 
-0.406066 -0.786832 -0.0936501 -0.375878 0.0940436 -0.921885 0.608545 0.5 
-0.754097 0.573352 0.0560605 -0.381179 0.923072 -0.0513934 0.369739 0.455328 
0.21377 0.204257 -0.0671858 0.00948683 0.802961 -0.595956 0.588998 0.437428 
-0.878248 0.255829 0.661527 -0.701649 0.13163 0.700258 0.541484 0.5 
-0.0985213 0.0587234 -0.183734 -0.0594512 0.666566 -0.743071 0.829389 0.5 
-0.524232 -0.985196 0.0397763 0.0184508 -0.999816 -0.0053117 0.782452 0.5 
0.229652 0.268038 0.054285 -0.0412973 0.96064 -0.27471 0.759095 0.5 
0.559742 -0.517908 0.575193 0.576185 -0.138406 0.805515 0.621572 0.473706 
0.487156 -0.515292 0.651928 0.599625 -0.226524 0.767553 0.550559 0.5 
-0.237328 -0.981956 0.090923 0.00922784 -0.999931 0.00732458 0.305007 0.5 
-0.447609 -0.0194449 0.517958 0.0131538 0.508696 0.860846 0.561449 0.5 
-0.931241 -0.122788 0.255018 -0.962984 0.19965 0.181112 0.661403 0.5 
-0.214533 -0.972411 0.503968 -0.0175703 -0.999505 0.026113 0.328941 0.5 
-0.373066 -0.982086 -0.244741 -0.667897 -0.64998 -0.362547 0.307635 0.5 
-0.389814 -0.983772 0.0709786 0.0265666 -0.999584 -0.0111861 0.76194 0.5 
-0.625185 0.555545 0.458718 0.0803464 0.858527 0.506434 0.286538 0.5 
-0.264112 -0.387729 -0.237861 -0.33994 -0.319011 -0.884688 0.742743 0.5 
0.00110876 -0.416763 0.747078 -0.166942 -0.211271 0.963065 0.722134 0.5 
-0.556214 -0.45184 0.558939 -0.198805 -0.440785 0.87532 0.765686 0.5 
0.491378 -0.712955 -0.329573 0.550119 -0.284758 -0.785036 0.660211 0.5 
0.495926 0.136613 0.426671 0.418808 0.619922 0.663548 0.520167 0.5 
-0.570128 -0.10242 0.567392 -0.123188 0.331366 0.935426 0.621687 0.5 
0.316025 -0.452441 0.74559 0.178955 0.00600648 0.983839 0.487613 0.477638 
-0.442062 -0.775444 0.492793 -0.327698 0.699536 0.63503 0.104325 0.5 
0.364327 0.166154 0.458724 0.252449 0.630028 0.734394 0.590276 0.5 
-0.266051 0.159187 0.377659 0.065268 0.802365 0.593254 0.380997 0.5 
0.0894878 0.116172 0.505153 -0.151705 0.568879 0.808308 0.651039 0.5 
-0.579741 0.474418 -0.0388252 0.916502 0.158141 -0.367446 0.252169 0.412612 
-0.744506 -0.00629724 -0.0885521 -0.59648 0.336074 -0.72888 0.488684 0.364526 
-0.944562 0.256395 0.552244 -0.917852 0.224858 0.327089 0.616599 0.5 
0.0797145 -0.922732 0.226982 0.01249 -0.999919 0.0025653 0.744981 0.5 
-0.82129 0.332663 -0.0227913 -0.63229 0.21714 -0.743679 0.616704 0.5 
-0.525675 -0.659784 0.281052 -0.298676 -0.903706 0.30677 0.928945 0.5 
-0.599983 0.0318392 0.498557 0.492855 -0.612852 0.617662 0.225874 0.5 
-0.097674 -0.235394 -0.423248 -0.427177 0.616975 -0.660955 0.294527 0.5 
-0.31084 -0.798361 -0.132394 -0.47936 0.60501 -0.635749 0.522576 0.5 
0.375418 0.114157 -0.165964 0.308339 0.604325 -0.734656 0.528624 0.5 
0.0770277 -0.764127 0.673339 -0.296422 -0.493483 0.817685 0.487072 0.432696 
0.0526557 -0.534085 0.716291 -0.198113 -0.226666 0.953611 0.782977 0.5 
0.418317 -0.178722 0.63973 0.326031 0.313426 0.89189 0.53252 0.5 
-0.709741 -0.905904 0.111299 -0.890944 0.418528 0.176222 0.363419 0.5 
-0.23834 -0.968902 0.460627 0.279987 -0.955397 0.0939342 0.434384 0.5 
-0.733886 -0.346806 -0.176546 -0.614367 -0.215446 -0.759037 0.3889 0.5 
-0.167009 -0.968778 0.56355 -0.0117368 -0.997571 0.068662 0.159177 0.5 
-0.625841 -0.972518 0.418694 -0.322959 -0.946402 0.00455238 0.676505 0.5 
-0.219905 -0.588049 -0.168734 -0.854624 -0.333639 -0.397873 0.325484 0.5 
-0.584125 0.353885 0.476615 0.646915 0.143209 0.748994 0.607214 0.5 
0.171442 -0.173249 -0.382178 0.0778293 0.802571 -0.591458 0.678516 0.5 
-0.213661 -0.962639 0.648957 -0.496337 -0.661558 0.562131 0.621622 0.5 
0.540201 0.00956598 -0.146772 0.421926 0.504922 -0.753015 0.507741 0.5 
-0.628988 0.741371 -0.367541 0.683977 0.696231 0.217801 0.576278 0.447298 
-0.269811 -0.358604 0.582655 0.000225978 -0.0737027 0.99728 0.738298 0.5 
-0.909501 0.238392 0.0269074 -0.807315 0.107822 -0.580187 0.657719 0.5 
-0.350273 0.481639 -0.0140213 0.26646 -0.872631 -0.409285 0.365244 0.462054 
-0.413229 0.120317 -0.159699 -0.0535786 0.591478 -0.804539 0.672774 0.5 
-0.184717 0.761847 -0.0655337 0.693531 -0.0193001 0.720168 0.770335 0.5 
0.161248 -0.966654 0.544071 -0.018525 -0.999812 0.00572319 0.141435 0.5 
0.709247 -0.0478483 0.354178 0.846509 0.426759 0.318275 0.665291 0.5 
0.0163112 -0.581189 -0.464119 0.0200737 -0.273601 -0.961634 0.744888 0.5 
-0.888451 -0.332654 0.293886 -0.915633 -0.351382 0.195313 0.612748 0.5 
-0.580288 -0.5647 -0.0916336 -0.319741 -0.736019 -0.596693 0.467141 0.46674 
-0.632827 -0.895509 -0.0580304 -0.464073 0.474741 -0.747835 0.599525 0.435067 
-0.175735 0.561293 -0.0432503 0.349112 -0.89625 -0.2736 0.507713 0.5 
-0.288799 -0.299915 -0.257593 -0.430153 -0.446876 -0.784391 0.298587 0.362273 
0.498845 -0.335126 0.66103 0.415692 0.2298 0.879996 0.630095 0.5 
0.976946 -0.63993 0.0732288 0.880449 -0.182748 -0.437507 0.394681 0.447895 
0.351495 0.267654 0.265491 0.246077 0.959554 0.136756 0.608255 0.5 
-0.464707 -0.689967 0.271457 -0.479359 -0.821919 0.307676 0 0 
0.431265 0.114328 0.471272 0.311111 0.58339 0.750244 0.628075 0.5 
-0.123688 0.582208 -0.0337483 0.45541 -0.886455 0.0824552 0.18334 0.5 
-0.701752 -0.961438 0.145521 -0.817522 -0.184359 0.545591 0.382127 0.5 
-0.450824 0.415923 0.258844 0.934431 0.301173 0.190087 0.662973 0.5 
-0.44333 -0.732424 0.425327 -0.898806 0.169168 0.404388 0.534574 0.5 
0.251972 0.0584952 -0.234663 0.0189393 0.430125 -0.902571 0.800164 0.5 
0.42584 -0.965236 -0.211358 0.500646 -0.77981 -0.375833 0.166524 0.5 
-0.109404 -0.963596 -0.353786 0.205311 -0.28073 -0.93757 0.260782 0.5 
-0.571037 0.629485 -0.368924 0.999856 0.0119857 -0.0120555 0.393715 0.439304 
0.897285 -0.518672 0.0504464 0.186855 0.676639 -0.712212 0.583881 0.5 
0.963818 -0.540621 0.0683927 0.798025 0.417356 -0.434706 0.387571 0.487033 
-0.42858 -0.805558 0.234807 -0.842841 0.435592 0.316036 0.57817 0.5 
-0.861214 0.493868 0.474079 -0.538759 0.671225 0.509113 0.43841 0.5 
-0.443551 0.438233 0.0197921 0.50994 -0.490618 -0.70658 0.594338 0.5 
0.595333 0.0510596 0.427813 0.651765 0.496902 0.572966 0.705067 0.5 
-0.283063 -0.982392 0.03672 -0.00262175 -0.999593 -0.0283941 0 0 
-0.587953 0.541637 -0.371178 0.876488 -0.444646 -0.18455 0.543339 0.5 
0.340607 -0.646264 0.697672 0.354045 -0.238647 0.904268 0.692645 0.5 
0.314746 -0.0399316 0.547247 0.0940284 0.421533 0.901925 0.773193 0.386522 
0.205275 -0.138197 0.66958 0.0409297 0.837417 0.54503 0.290753 0.5 
-0.706486 -0.203868 0.559425 -0.353615 0.141476 0.92463 0.622397 0.5 
-0.659675 0.795987 -0.485417 0.523499 0.808741 0.268118 0.474398 0.343034 
-0.861543 -0.0258734 0.334454 -0.913811 -0.0127606 0.40594 0.596458 0.5 
0.810607 -0.471341 0.270801 0.941434 0.214144 0.26047 0.564141 0.478062 
-0.390805 0.311363 0.148084 0.896125 0.413227 -0.161873 0.4249 0.5 
0.132868 -0.11214 0.582762 -0.0972331 0.587541 0.803331 0.315362 0.5 
-0.282566 -0.847752 0.550812 -0.188428 0.438709 0.878652 0.688217 0.5 
-0.0799927 0.141356 -0.10056 -0.0253716 0.843196 -0.537007 0.65575 0.5 
-0.900916 -0.219385 0.0715293 -0.960566 -0.0178385 -0.277478 0.679674 0.5 
0.547488 -0.910498 0.418996 0.513852 -0.774045 0.369879 0.614471 0.5 
-0.00959687 0.0712242 -0.194817 -0.0706386 0.670741 -0.73832 0.89067 0.5 
-0.894703 -0.385146 0.235688 -0.914226 -0.38726 0.11925 0.618245 0.5 
-0.623257 -0.959813 0.540807 -0.807964 -0.378996 0.451171 0.598002 0.5 
-0.220767 0.216005 0.230106 0.210236 0.960314 0.183295 0.752667 0.31964 
-0.644519 0.892701 -0.750444 -0.478521 0.235395 -0.845936 0.219456 0.5 
-0.517145 -0.684225 0.0398506 -0.94496 -0.290843 -0.149872 0.756475 0.5 
0.078139 -0.133905 -0.293575 -0.0229825 0.591155 -0.80623 0.589142 0.5 
0.00226496 -0.764699 -0.385738 -0.213184 -0.421959 -0.881194 0.768335 0.5 
-0.933091 0.350133 0.188156 -0.935789 0.205895 -0.286194 0.625571 0.5 
0.287164 -0.965047 0.320243 -0.288795 -0.90983 0.298005 0.99203 0.5 
-0.461001 -0.98529 -0.117757 0.0613486 -0.971502 -0.228953 0.606522 0.5 
-0.188531 0.163102 -0.0529464 0.227861 0.872564 -0.432102 0.603414 0.5 
0.0968888 0.74737 -0.235608 0.912571 0.140043 0.384191 0.29601 0.455078 
0.315417 -0.258191 -0.397691 0.327949 0.285794 -0.900428 0.659435 0.5 
-0.85825 0.537993 0.0882231 -0.718405 0.518589 -0.463637 0.33514 0.5 
-0.394428 0.247023 0.0177702 0.537284 0.715993 -0.445735 0.56516 0.5 
-0.129113 -0.188599 -0.296203 -0.377474 0.509435 -0.773297 0.817537 0.5 
-0.749945 0.290995 0.688266 0.195232 0.297425 0.934571 0.598326 0.5 
0.388763 -0.799819 -0.315286 0.28599 -0.392051 -0.87436 0.546545 0.456757 
-0.0239971 0.978468 -0.264707 -0.507428 0.765702 -0.395243 0.260721 0.299635 
0.158918 -0.0418623 0.587742 0.0152343 0.20228 0.979209 0.516401 0.5 
-0.679365 -0.534219 -0.0488376 -0.467636 -0.71039 -0.525987 0.235163 0.5 
-0.179699 -0.984867 -0.353462 0.0807793 -0.952663 -0.2931 0.151374 0 
-0.698397 -0.470519 0.483721 -0.541858 -0.454423 0.707029 0.572904 0.455027 
-0.719472 -0.966953 0.053224 -0.851241 -0.50724 -0.134525 0.310168 0.5 
-0.464573 -0.985453 0.130883 0.0496426 -0.986671 0.154968 0.264065 0.5 
-0.549986 0.488802 0.491645 0.668004 0.214743 0.7125 0.694236 0.5 
0.0249497 0.187128 -0.0452492 -0.227646 0.83364 -0.503211 0.523608 0.5 
0.167676 -0.883252 0.632532 0.249193 0.126029 0.960218 0.414418 0.403751 
-0.567011 0.737944 -0.756665 0.844804 -0.288741 -0.450484 0.597042 0.5 
-0.753245 -0.558816 0.161895 -0.673419 -0.739157 -0.0123621 0.548696 0.459877 
0.350236 -0.583477 -0.382308 0.180958 -0.16592 -0.969394 0.771104 0.395682 
0.441735 -0.974486 0.0405284 -0.0152486 -0.976222 0.216237 0.533828 0.5 
0.157486 -0.0404356 -0.269863 0.130362 0.238621 -0.962323 0.779635 0.5 
0.146977 -0.974115 -0.206038 -0.0954351 -0.814765 0.571882 0.762893 0.5 
0.660456 -0.191452 -0.152409 0.653238 0.3249 -0.6839 0.752008 0.5 
0.0170934 -0.923258 0.295627 0.0231601 -0.999494 0.0217978 0.745007 0.5 
-0.795893 0.403454 0.62453 -0.272723 0.61749 0.737786 0.469909 0.5 
0.541897 -0.965876 0.0517186 0.168442 -0.95285 -0.252396 0.187967 0.5 
0.150299 -0.409061 -0.461031 0.212651 -0.0742236 -0.974305 0.824332 0.5 
0.000897461 -0.842935 -0.336814 0.0480225 -0.246204 -0.968028 0.694627 0.5 
0.106718 -0.649514 0.728857 -0.221348 -0.166625 0.960854 0.789302 0.405177 
0.643395 0.0765941 0.0515974 0.736318 0.649871 -0.188424 0.625206 0.48168 
0.171319 -0.242916 -0.434825 0.227274 0.410532 -0.883069 0.602032 0.5 
-0.894409 0.0912252 0.636946 -0.434041 -0.298368 0.85005 0.539772 0.5 
0.105161 -0.299784 0.760715 -0.022679 0.0726628 0.997099 0.676812 0.5 
-0.45687 0.622555 -0.0295281 -0.621597 0.183566 -0.761525 0.376079 0.5 
0.343377 -0.844545 0.598985 0.250855 -0.202675 0.94657 0.519814 0.433928 
-0.651257 -0.153197 -0.188483 -0.407756 0.155724 -0.899714 0.65061 0.5 
0.269738 -0.400232 0.739149 0.197152 0.0139627 0.980273 0.543175 0.5 
-0.415011 0.243503 0.415695 0.805631 0.261038 0.531806 0.611539 0.5 
-0.12263 -0.913977 0.508129 0.037787 -0.99449 0.0977838 0 0 
-0.603421 -0.982151 -0.0884476 -0.29759 -0.798274 -0.523641 0.279509 0.5 
0.138226 -0.965674 0.640757 0.102167 -0.920654 0.376772 0.232703 0.409529 
0.482082 -0.423093 -0.326038 0.4543 0.0691887 -0.888158 0.735291 0.5 
-0.556794 -0.22835 0.608799 -0.112758 0.137599 0.984049 0.676263 0.5 
-0.878931 -0.323845 -0.0021573 -0.900667 -0.231787 -0.367524 0.392761 0.443779 
-0.342267 -0.37244 0.562936 0.145132 -0.134866 0.980177 0.659202 0.5 
-0.532043 0.47869 0.00251389 0.104395 0.182155 -0.977712 0.436373 0.5 
0.22973 -0.201358 0.726705 0.138718 0.413426 0.899909 0.400613 0.467426 
0.423365 -0.102906 -0.267984 0.14962 0.43985 -0.88552 0.633845 0.5 
-0.60321 0.423698 -0.102644 0.658207 -0.68734 -0.307128 0.335974 0.5 
-0.250101 0.796375 0.0237612 -0.0142704 0.635683 0.771819 0.419452 0.5 
-0.782327 0.865351 -0.629501 -0.870421 0.233745 -0.43328 0.316956 0.433024 
-0.301525 -0.754074 0.526361 -0.0155558 0.0508565 0.998585 0.673582 0.5 
0.0854886 -0.894231 -0.317737 0.166641 -0.185525 -0.968407 0.434768 0.479041 
-0.803058 0.403686 -0.0344083 -0.675812 0.0316285 -0.736395 0.579423 0.5 
0.0126743 -0.0845357 -0.278335 -0.0138679 0.348176 -0.937327 0.533041 0.5 
-0.588818 0.661055 -0.598506 0.971874 -0.234559 -0.0210678 0.724955 0.5 
-0.228131 0.668944 -0.00388875 0.3544 0.571624 0.740032 0.617981 0.5 
0.78902 -0.181409 0.20207 0.958818 0.271013 0.0849761 0.543265 0.5 
-0.461534 -0.785283 0.358107 -0.852159 0.492225 -0.177595 0.563518 0.5 
-0.762973 -0.187251 -0.151685 -0.574953 0.136093 -0.806788 0.443705 0.438894 
-0.147977 0.18631 0.0439651 0.00581435 0.980752 -0.195172 0.876488 0.5 
-0.167946 0.118359 0.392061 -0.127548 0.785544 0.605518 0.451539 0.5 
-0.358061 0.063889 0.451488 0.0646441 0.646423 0.760236 0.646549 0.5 
-0.895513 -0.0122791 0.223439 -0.945446 -0.300832 0.125025 0.700129 0.345107 
-0.909836 0.527803 0.352947 -0.655296 0.678985 0.331009 0.29708 0.5 
0.0595258 -0.154729 0.675203 -0.194466 0.841521 0.504009 0.43388 0.402594 
0.0512206 0.895693 -0.280296 0.757106 0.286107 0.58731 0.548246 0.5 
0.415144 -0.722438 0.643457 0.462223 -0.36936 0.806178 0.511651 0.475196 
-0.838288 -0.446593 0.238041 -0.816684 -0.561557 0.13297 0.780963 0.5 
-0.544871 -0.971168 0.582812 -0.129992 -0.95863 0.25324 0.785006 0.5 
-0.599056 0.401428 -0.0714688 0.418532 -0.0186055 -0.908011 0.65879 0.5 
0.156433 0.170523 0.468234 -0.0476445 0.702225 0.710359 0.500448 0.5 
0.582535 -0.674548 -0.223718 0.763456 -0.276928 -0.583477 0.651395 0.5 
-0.477915 -0.721786 -0.0540322 -0.771637 -0.106844 -0.627025 0.444614 0.5 
-0.168958 -0.669799 -0.245476 -0.91016 -0.179013 -0.373582 0.516409 0.5 
-0.539083 0.560472 0.416045 0.475048 0.75884 0.445524 0.35682 0.5 
-0.669513 0.276347 0.643653 0.686143 0.320946 0.652841 0.692589 0.5 
-0.927717 0.540373 0.265943 -0.605679 0.793507 0.0591605 0.219414 0.5 
-0.173552 -0.761104 -0.188058 -0.793715 0.511238 -0.329624 0.184109 0.41287 
-0.70482 0.716594 -0.214765 0.111285 0.894695 0.432593 0.366906 0.413097 
-0.900778 0.145105 -0.00538065 -0.676749 -0.137487 -0.723262 0.622458 0.5 
-0.357664 -0.387472 -0.233319 -0.0293133 -0.317334 -0.947861 0.904099 0.5 
-0.66998 0.813714 -0.691707 -0.769355 -0.365512 -0.523922 0.677086 0.5 
0.682998 -0.471921 0.505441 0.668218 -0.0640286 0.741205 0.601795 0.5 
-0.310578 -0.977108 -0.00516018 0.0438487 -0.998166 -0.0417312 0.266658 0.5 
0.490501 -0.962725 0.353139 0.242451 -0.960236 0.138437 0.75424 0.5 
0.683638 -0.896087 -0.00811936 0.283537 -0.691871 -0.664019 0.637531 0.5 
0.457722 -0.260698 0.639965 0.406254 0.212917 0.888608 0.671835 0.5 
-0.0691878 -0.464839 -0.480264 -0.245024 -0.121129 -0.961921 0.568036 0.5 
0.749519 -0.0881339 0.0471039 0.883242 0.408097 -0.230954 0.59312 0.5 
-0.42023 -0.859809 0.590195 0.21795 0.461444 0.859981 0.603752 0.440048 
0.720259 -0.346273 -0.15706 0.826769 -0.107539 -0.552167 0.644934 0.5 
-0.775872 0.476855 -0.0403888 -0.896391 -0.0601318 -0.439166 0.461877 0.5 
-0.613961 0.555422 0.0180677 0.471619 0.852548 -0.225248 0.46579 0.5 
-0.345143 0.248885 0.157953 0.605893 0.79523 0.0224422 0.881323 0.5 
-0.234392 -0.921355 -0.157991 0.319549 -0.928253 0.190352 0.655412 0.5 
0.0208523 -0.680599 0.680597 -0.43769 -0.326479 0.837758 0.498664 0.5 
-0.434752 -0.961748 0.619595 0.125424 -0.626258 0.769461 0.655997 0.5 
-0.467777 0.0114213 -0.214884 -0.1862 0.381378 -0.905472 0.665459 0.432136 
-0.826615 0.272262 0.692688 -0.357548 0.370015 0.857466 0.582896 0.467752 
-0.885936 -0.284701 0.367625 -0.87073 -0.168851 0.461865 0.752441 0.5 
0.564077 0.111623 -0.0268106 0.553788 0.714842 -0.426988 0.514202 0.5 
-0.484716 -0.365823 0.596286 -0.0344531 -0.238282 0.970585 0.721855 0.408714 
-0.729884 0.810396 -0.45733 -0.0392339 0.926311 0.374711 0.486535 0.443741 
-0.482662 -0.8174 -0.060522 -0.542954 0.463462 -0.700288 0.623985 0.5 
0.429284 -0.411616 0.712263 0.422239 0.0133576 0.906386 0.566216 0.412988 
-0.740776 0.71144 -0.488339 -0.643126 -0.634222 -0.429129 0.404699 0.5 
-0.900585 -0.139271 0.350104 -0.884555 0.138052 0.445538 0.58634 0.5 
-0.412154 0.722863 -0.0314569 -0.7259 0.549616 -0.41351 0.477067 0.5 
-0.299448 -0.981535 0.11348 -0.120905 -0.917671 0.378499 0.534993 0.5 
0.386685 -0.269733 0.711968 0.4653 0.258675 0.846512 0.402884 0.462939 
-0.333397 -0.733928 -0.122159 -0.0505932 -0.0825644 -0.995301 0.79253 0.5 
-0.345486 -0.952908 -0.32243 -0.742065 0.161117 -0.650677 0.428975 0.360831 
-0.671572 0.922729 -0.700904 -0.0955233 0.987372 -0.126377 0.258332 0.426824 
-0.159256 0.727328 -0.0770988 0.481408 0.372611 0.793352 0.608542 0.5 
0.637783 -0.348636 0.557808 0.661184 -0.00851046 0.750176 0.589513 0.5 
-0.529721 -0.766339 0.0502316 -0.963766 0.227404 -0.139435 0.476027 0.5 
-0.817159 0.234761 -0.0586826 -0.507364 0.13832 -0.850558 0.376136 0.464207 
-0.557981 -0.806039 0.5031 -0.466151 0.876362 0.121215 0.386211 0.5 
-0.197264 -0.980406 0.14885 0.0784977 -0.996483 0.029316 0.147696 0.5 
-0.275151 0.184108 -0.0953567 0.223442 0.742816 -0.631108 0.88222 0.5 
-0.441736 -0.977712 0.355932 -0.031317 -0.998321 0.0487376 0.479424 0.5 
-0.372808 -0.00812812 -0.215825 -0.0288313 0.385752 -0.922152 0.754565 0.5 
0.798628 -0.208774 0.097779 0.968219 0.24025 -0.0695141 0.555757 0.5 
0.751721 -0.247629 -0.0921217 0.85125 0.202999 -0.483905 0.483458 0.5 
-0.219073 -0.922444 0.00343858 0.00359771 -0.9999 -0.013655 0 0 
-0.760972 0.518562 -0.222781 -0.981732 -0.159957 -0.103032 0.649535 0.5 
0.783292 -0.748247 0.442647 0.216412 -0.0741799 0.97348 0.645491 0.5 
-0.454339 0.217238 -0.0433327 0.185161 0.53434 -0.82474 0.662817 0.5 
-0.743136 0.512488 -0.367817 -0.975492 -0.170266 -0.139374 0.453051 0.5 
0.36117 -0.904835 -0.275735 0.292915 -0.30212 -0.907152 0.572446 0.427994 
0.150057 -0.369908 0.759309 0.0281209 0.0928739 0.995281 0.653337 0.5 
-0.764983 0.659232 -0.165777 -0.770805 0.553067 0.31619 0.357976 0.5 
0.306099 -0.969915 0.501903 -0.182479 -0.977442 -0.106341 0.281514 0.5 
-0.643106 0.690684 -0.204231 0.555549 0.751695 0.355416 0.643327 0.5 
0.685924 -0.720198 -0.065669 0.55162 -0.19925 -0.809947 0.662528 0.5 
-0.0861832 0.638144 -0.00212821 0.558033 0.0234295 0.829488 0.207108 0.420372 
0.213704 -0.843874 0.611833 0.0914062 -0.302067 0.948894 0.578592 0.464517 
-0.775167 -0.479039 -0.0504462 -0.660027 -0.565112 -0.494987 0.26625 0.5 
-0.75144 -0.123507 0.500732 -0.553169 0.183471 0.812615 0.469697 0.5 
-0.185245 0.811066 -0.187667 -0.561463 0.243117 -0.790983 0.413207 0.5 
-1.0024 0.16491 0.304622 -0.994488 -0.0748777 0.0733954 0.624215 0.5 
-0.412858 -0.442937 0.578963 0.142633 -0.380016 0.913917 0.711667 0.5 
0.479606 -0.671003 0.643425 0.45682 -0.156789 0.875633 0.520552 0.5 
0.74614 -0.904182 0.0641278 0.438553 -0.833166 -0.336905 0.317456 0.5 
0.48646 -0.616582 -0.321147 0.456422 -0.116431 -0.882113 0.661958 0.392585 
-0.0349136 0.113129 0.465035 -0.303873 0.636899 0.708534 0.562506 0.46135 
-0.0355044 0.826898 -0.272832 -0.471543 -0.21945 -0.854101 0.488939 0.5 
-0.580945 -0.565093 0.450344 -0.298779 -0.752118 0.587409 0.525966 0.5 
0.136866 -0.976969 -0.288878 0.068497 -0.926061 -0.371105 0.160251 0.5 
-0.296454 -0.136729 0.553519 -0.039869 0.28127 0.9588 0.556573 0.5 
-0.0129709 0.628035 -0.0929457 0.550026 -0.830546 0.0875498 0.197682 0.291426 
-0.663655 -0.968433 -0.0627584 -0.749462 -0.0670731 -0.658641 0.307492 0.5 
-0.208273 -0.667485 -0.122555 -0.579479 -0.282148 -0.764589 0.780735 0.5 
0.398456 -0.176525 -0.287043 0.204557 0.524291 -0.826605 0.846553 0.5 
0.360856 -0.0654873 -0.239104 0.143542 0.3555 -0.923588 0.871304 0.5 
-0.339087 0.21487 0.25428 0.527618 0.741271 0.414893 0.474521 0.5 
-0.332952 0.617187 0.0777535 0.51581 0.299003 0.80283 0.670845 0.5 
-0.786094 0.172095 0.69047 -0.274984 -0.185091 0.943464 0.544221 0.5 
-0.767899 0.541096 0.467815 -0.183781 0.839269 0.511715 0.465879 0.5 
-0.647333 0.836311 -0.587018 0.606412 0.70178 0.373856 0.57048 0.5 
-0.506254 -0.269079 0.596396 -0.0138749 0.0133031 0.999815 0.691431 0.5 
-0.14301 -0.727202 0.484539 -0.228696 0.118575 0.966249 0.804045 0.5 
-0.819794 -0.436798 0.349515 -0.778016 -0.571252 0.261463 0.785804 0.5 
-0.0175639 -0.341692 -0.489461 -0.0597267 0.18774 -0.980401 0.534244 0.5 
-0.190873 -0.43223 -0.391664 -0.852014 -0.138065 -0.504986 0.552722 0.5 
0.276363 -0.963491 0.605938 0.159263 -0.697226 0.698936 0.661256 0.5 
-0.642024 -0.453809 -0.187556 -0.39134 -0.4992 -0.77308 0.617976 0.5 
-0.739536 0.0563441 -0.0647219 -0.420358 0.0982056 -0.902028 0.347495 0.5 
0.388591 0.0525591 0.506863 0.265366 0.375495 0.888023 0.574775 0.428903 
0.404326 -0.275514 -0.362716 0.428628 0.327131 -0.842178 0.614278 0.5 
-0.464597 -0.971889 0.462938 0.00517174 -0.998934 0.0458815 0.757335 0.5 
-0.247733 -0.580347 0.552578 0.206418 -0.150102 0.966882 0.620204 0.410011 
0.0218687 -0.598784 0.707412 -0.318919 -0.202948 0.925798 0.586151 0.5 
-0.0971297 -0.810113 -0.329748 -0.473865 0.0693501 -0.877862 0.554091 0.5 
-0.253011 0.611749 0.0772844 0.393243 0.190275 0.899531 0.466715 0.5 
-0.377193 -0.73466 0.505274 -0.540956 0.0600286 0.838906 0.573371 0.5 
0.0572759 -0.473097 -0.475776 0.175046 -0.0983926 -0.979631 0.650942 0.5 
-0.166402 -0.918457 -0.200502 0.115767 -0.880365 0.459951 0.792212 0.5 
-0.975648 0.251942 0.176232 -0.946522 0.277129 -0.165215 0.692512 0.5 
0.106481 -0.919484 0.0735754 0.0139429 -0.999479 -0.0291058 0.734679 0.5 
-0.47795 -0.0673042 -0.229767 -0.192622 0.223913 -0.955385 0.759782 0.5 
0.790746 -0.281564 -0.00459563 0.951656 0.109464 -0.287 0.540075 0.5 
-0.535046 0.423311 0.442895 0.736515 0.010587 0.676339 0.733286 0.5 
-0.611812 -0.0444476 -0.179894 -0.430326 0.359418 -0.828032 0.4645 0.5 
0.247369 -0.520158 0.737461 0.144765 -0.0573479 0.987803 0.741005 0.5 
0.656081 -0.109065 0.465682 0.671853 0.361343 0.646564 0.719643 0.5 
0.52984 -0.974419 0.142427 -0.185927 -0.98245 0.0149303 0.382371 0.5 
-0.748574 0.590396 -0.0104719 -0.604735 0.739913 0.29466 0.268239 0.5 
0.734604 -0.337371 0.445561 0.825158 0.0109433 0.564795 0.661217 0.5 
0.660343 -0.955654 0.165879 0.294787 -0.955546 -0.00569057 0.283164 0.5 
-0.589533 0.629166 -0.217365 0.876623 0.415583 0.242535 0.573281 0.5 
-0.585093 0.705358 -0.521019 0.985246 0.16574 0.0426774 0.668963 0.5 
-0.14752 0.197709 0.22182 0.0252427 0.96876 0.246713 0.72255 0.5 
-0.037684 0.89802 -0.189255 0.699266 -0.00281108 0.714856 0.689547 0.5 
-0.986065 0.255046 0.295674 -0.939079 0.332289 0.0878397 0.805904 0.5 
-0.765477 0.086369 0.691241 -0.332112 -0.441164 0.833712 0.68501 0.5 
-0.324415 -0.303712 0.566333 0.0211246 0.0464208 0.998699 0.596658 0.475748 
-0.804807 0.718918 -0.41531 -0.964093 -0.244751 -0.10306 0.439961 0.5 
-0.606747 -0.619103 -0.0155435 -0.394335 -0.819162 -0.416503 0.314765 0.5 
-0.32343 0.809284 -0.0601332 -0.61146 0.783923 -0.107613 0.220821 0.5 
-0.401486 0.728508 0.0388891 -0.535403 0.796437 0.281125 0.333114 0.5 
0.574955 -0.485787 -0.281443 0.628858 -0.0606821 -0.775149 0.751865 0.5 
0.544911 -0.971201 0.241827 0.082668 -0.988817 0.124124 0.639642 0.5 
0.701035 -0.918358 0.282199 0.357672 -0.901706 0.242892 0.760175 0.5 
-0.647464 -0.945696 0.420114 -0.988964 0.000915269 -0.148154 0.349456 0.277594 
-0.926655 -0.289451 0.106583 -0.970041 -0.155818 -0.186391 0.463736 0.5 
-0.689106 0.583198 0.0810705 0.0333896 0.998633 0.040212 0.755776 0.5 
-0.490953 -0.690201 0.141779 -0.847089 -0.338481 0.40972 0.210989 0.348692 
-0.823847 0.0120748 0.00647829 -0.712699 -0.094139 -0.695125 0.564172 0.5 
-0.340603 -0.511123 -0.204689 -0.142821 -0.330952 -0.932777 0.545818 0.5 
-0.413377 0.113767 0.423434 0.526428 0.317852 0.788571 0.58059 0.5 
0.0443531 -0.216068 -0.436193 -0.00990623 0.57259 -0.819782 0.695055 0.5 
-0.111902 -0.20094 0.597081 -0.332726 0.37455 0.865451 0.663547 0.434651 
-0.123431 0.698587 -0.191609 -0.123208 -0.500514 -0.856916 0.589633 0.480524 
0.957654 -0.762856 0.233872 0.834565 -0.550442 0.0226749 0.342019 0.5 
-0.816214 -0.503748 0.217519 -0.78335 -0.609593 0.121491 0.587556 0.5 
-0.0430627 -0.836768 0.70217 0.179751 0.368164 0.91222 0.449535 0.384562 
0.900325 -0.636069 -0.0167306 0.593642 0.156103 -0.789443 0.492719 0.478469 
-0.590285 0.704211 -0.432873 0.843894 0.511432 0.162113 0.753947 0.5 
0.230397 0.277414 0.208419 -0.025821 0.999351 0.0251017 0.619535 0.5 
0.38661 -0.384858 -0.374465 0.434216 0.0334793 -0.900186 0.657206 0.478248 
0.487125 -0.533178 -0.340579 0.448461 -0.0490629 -0.892455 0.748341 0.5 
-0.973131 0.0838981 0.458639 -0.908613 -0.417066 -0.0218751 0.476916 0.5 
-0.468521 -0.641833 0.355819 -0.641213 -0.664086 0.384493 0.448705 0.5 
-0.103859 0.619007 -0.128095 0.159947 -0.827331 -0.538461 0.595849 0.359956 
0.115679 -0.674682 -0.411825 0.111073 -0.220613 -0.969016 0.922895 0.5 
-0.275555 0.640965 -0.141578 -0.30648 -0.309803 -0.900051 0.852313 0.5 
-0.040609 -0.923947 0.128797 0.0274252 -0.999528 -0.0138388 0.753623 0.5 
-0.327914 -0.969659 0.544661 -0.0853466 -0.973105 0.213969 0.798474 0.5 
0.0384721 -0.908714 0.528213 0.0212012 -0.996929 0.0753839 0 0 
-0.567147 0.812379 -0.777841 0.529908 0.101858 -0.841916 0.41905 0.5 
-0.542111 -0.516172 -0.175638 -0.118996 -0.662598 -0.739462 0.868693 0.5 
-0.50432 -0.219847 -0.265463 -0.26909 0.0677202 -0.960731 0.482684 0.5 
-0.729623 0.757469 -0.306264 -0.275301 0.878442 0.390574 0.301893 0.406526 
0.949731 -0.596975 0.351219 0.751947 0.189142 0.631507 0.667634 0.5 
0.611495 -0.243553 -0.231918 0.53013 0.266643 -0.8049 0.758616 0.418247 
-0.374355 0.652361 0.11195 0.328398 0.381985 0.863853 0.547409 0.5 
0.892057 -0.742027 -0.00393065 0.65328 -0.282745 -0.702339 0.583342 0.452953 
-0.983441 0.137793 0.149866 -0.954198 -0.0351099 -0.297108 0.562398 0.5 
-0.203756 -0.319186 0.559555 0.0731245 -0.192757 0.978518 0.689894 0.5 
-0.8171 0.0816317 0.644417 -0.350532 -0.419775 0.837207 0.80438 0.5 
0.562154 -0.0881724 0.531469 0.495646 0.397744 0.772098 0.70151 0.5 
-0.790128 -0.301428 0.498262 -0.675034 -0.130139 0.726218 0.646921 0.5 
-0.697188 -0.608202 0.254345 -0.534932 -0.813134 0.229478 0.499572 0.261703 
-0.0772719 -0.58193 -0.434217 -0.496065 -0.34401 -0.79723 0.529165 0.5 
-0.162486 -0.555497 0.515164 0.0911857 -0.195666 0.976422 0.614951 0.381479 
0.169973 -0.540913 0.745156 -0.0987017 -0.170223 0.98045 0.778957 0.5 
0.918138 -0.780403 0.058362 0.698679 -0.607085 -0.378544 0.554636 0.5 
0.195445 0.0276714 -0.234511 0.0150507 0.472006 -0.881467 0.777878 0.5 
0.522786 -0.322356 -0.301596 0.508361 0.130308 -0.851228 0.745044 0.5 
-0.864524 -0.237765 -0.0480806 -0.829723 -0.00113239 -0.558174 0.672072 0.5 
-0.258907 0.0314261 0.468629 0.063953 0.56841 0.820256 0.596684 0.5 
-0.931096 -0.146858 0.136263 -0.980633 0.0881432 -0.1749 0.727425 0.5 
-0.792871 0.818628 -0.532297 -0.786634 0.562823 0.253846 0.245593 0.5 
0.838207 -0.637019 0.423718 0.187658 0.316381 0.929886 0.537442 0.5 
-0.646382 -0.92897 0.203044 -0.650951 0.405229 0.641913 0.258252 0.450399 
-0.0425292 0.976227 -0.166698 0.394012 0.759953 0.516939 0.407946 0.5 
-0.450524 0.357181 0.0194166 0.829502 0.19114 -0.524779 0.569746 0.5 
-0.4042 -0.230216 0.586937 0.184596 0.136881 0.973236 0.648927 0.395789 
0.32961 -0.161394 0.655643 0.174522 0.584291 0.792557 0.470012 0.5 
0.353276 -0.96197 0.066809 0.0668847 -0.897457 0.436002 0 0 
0.515262 -0.75666 -0.276466 0.600928 -0.397104 -0.693681 0.500052 0.449679 
-0.716059 0.514278 -0.50877 -0.555722 -0.763816 -0.328264 0.314055 0.5 
-0.668628 0.600758 -0.0105119 0.442943 0.819987 0.362522 0.643006 0.5 
-0.42843 -0.599869 0.45813 -0.55951 -0.433112 0.706656 0.679218 0.5 
-0.640464 0.554616 -0.611866 0.458123 -0.806641 -0.373435 0.462927 0.5 
-0.708208 0.591508 -0.473691 -0.981418 0.0195288 -0.190885 0.485006 0.456147 
0.226771 0.255571 0.340145 -0.00342373 0.946604 0.322381 0.857132 0.5 
-0.593178 0.889366 -0.74939 0.673675 0.730526 -0.111772 0.659276 0.5 
0.703188 -0.53328 -0.146713 0.780755 -0.0564953 -0.622278 0.669427 0.418864 
0.070088 -0.457366 0.750992 -0.19982 -0.125194 0.971802 0.820915 0.401293 
-0.74263 0.560835 -0.231746 -0.98464 -0.0347279 -0.171109 0.60534 0.5 
-0.108839 0.921954 -0.0877122 0.39309 0.470268 0.790144 0.421328 0.5 
0.0968473 -0.916089 -0.0538255 0.02255 -0.999337 -0.0285989 0.725966 0.5 
-0.73063 -0.551271 0.0329619 -0.628595 -0.71885 -0.296856 0.305775 0.384345 
-0.628913 -0.359466 0.582369 -0.396332 -0.227761 0.889408 0.778337 0.5 
-0.832032 -0.473827 0.0830187 -0.790831 -0.59255 -0.153201 0.545667 0.5 
0.495952 -0.945543 0.221162 -0.405227 -0.912165 -0.0612114 0.180494 0.5 
-0.973425 0.185889 0.416917 -0.990713 0.106926 0.0839972 0.821181 0.5 
-0.385222 -0.192537 -0.259884 0.0237311 -0.0347316 -0.999115 0.764659 0.5 
0.473925 -0.962649 -0.0100892 0.370825 -0.900644 -0.226561 0.338098 0.5 
0.504183 -0.829215 -0.220133 0.643835 -0.519003 -0.562238 0.394431 0.5 
-0.707063 0.649522 -0.0844581 -0.116686 0.870202 0.478678 0.290448 0.5 
-0.232989 -0.979935 -0.237326 0.190482 -0.936349 0.294902 0.844824 0.5 
0.217689 -0.667185 0.719758 0.130742 -0.264166 0.955574 0.716993 0.5 
0.383389 0.158795 -0.111684 0.26654 0.78414 -0.56043 0.55943 0.484903 
0.200257 -0.908971 0.477303 0.0320256 -0.997479 0.0633299 0.160326 0 
-0.356712 0.20694 -0.0761746 0.0543364 0.868736 -0.492286 0.875404 0.5 
-0.146687 -0.925375 0.0976112 0.0126013 -0.999578 -0.0261802 0.293737 0.5 
-0.771908 0.125659 -0.069819 -0.374587 -0.180894 -0.909374 0.483576 0.379305 
-0.196422 -0.679046 0.502033 0.284425 -0.133151 0.949407 0.571263 0.5 
-0.0588662 0.791293 -0.163159 0.508984 0.277898 0.814683 0.651594 0.5 
0.792769 -0.518344 0.321662 0.651327 0.434586 0.622019 0.545905 0.457047 
-0.792011 0.651323 -0.296115 -0.993441 -0.113914 0.00992608 0.409648 0.462102 
0.503015 0.19389 0.311706 0.457124 0.83292 0.311901 0.542267 0.5 
-0.741011 0.600358 -0.290258 -0.812257 -0.505074 -0.291785 0.359793 0.443823 
0.171608 -0.600372 0.747044 -0.0577692 -0.129072 0.989951 0.776964 0.5 
-0.214816 -0.308505 -0.299407 -0.667211 -0.0195921 -0.744611 0.366486 0.5 
-0.896927 -0.338436 0.128463 -0.936778 -0.336483 -0.0960565 0.679797 0.5 
-0.1665 -0.43144 0.5468 -0.487934 -0.262576 0.832451 0.738628 0.5 
0.0596763 -0.415934 -0.469986 0.11248 -0.00357213 -0.993648 0.839081 0.5 
-0.510089 0.381978 -0.0319466 0.524241 0.260594 -0.810717 0.599926 0.5 
-0.496643 -0.162967 0.576887 0.00648475 0.243899 0.969779 0.794248 0.5 
0.378502 -0.966829 0.396815 -0.209072 -0.977556 0.02593 0.748178 0.5 
0.297062 -0.63906 -0.375112 0.241946 -0.223455 -0.944209 0.793275 0.390297 
-0.65469 -0.00619709 0.497467 0.149525 -0.418654 0.895752 0.334525 0.5 
-0.733611 0.434702 0.602966 0.0996581 0.63204 0.768501 0.651766 0.5 
-0.0434555 0.0263963 0.528228 -0.215563 0.465274 0.858518 0.54627 0.44355 
-0.236726 -0.401306 -0.26588 -0.805477 -0.22365 -0.548805 0.297344 0.5 
-0.214826 0.0456351 -0.19972 0.0334477 0.566183 -0.823601 0.643919 0.5 
-0.601435 0.642034 -0.713834 0.460451 -0.659805 -0.593837 0.41426 0.324593 
-0.345796 -0.274568 -0.265536 -0.0738117 -0.210978 -0.9747 0.673266 0.5 
-0.383616 -0.616034 -0.150055 -0.249502 -0.323068 -0.912894 0.815548 0.5 
0.664632 -0.897657 0.36165 0.322569 -0.744306 0.584771 0.625703 0.5 
0.745392 -0.612781 0.390682 0.42636 0.244246 0.870954 0.66857 0.5 
0.974098 -0.696361 0.286124 0.886356 -0.289063 0.361685 0.5879 0.5 
-0.564681 -0.158042 -0.21927 -0.294587 0.10057 -0.950318 0.65016 0.5 
0.612741 -0.674858 0.534771 0.521077 -0.264402 0.811524 0.500385 0.490901 
0.189714 -0.334754 -0.459812 0.298292 0.091396 -0.950089 0.839785 0.5 
0.469965 0.150294 -0.0658104 0.425291 0.732945 -0.530961 0.589904 0.5 
0.691293 -0.589448 0.497777 0.723545 -0.118271 0.68007 0.604874 0.5 
0.549823 -0.400503 0.63213 0.613459 -0.0809877 0.785563 0.786409 0.5 
-0.877503 0.432461 0.102182 -0.835418 0.183049 -0.518237 0.618467 0.5 
0.24203 -0.863582 -0.295146 0.21037 -0.414081 -0.885597 0.919254 0.5 
-0.972464 0.052671 0.243199 -0.841844 -0.53972 0.000906652 0.545389 0.5 
-0.668392 -0.63723 0.170072 -0.453094 -0.889019 -0.0659668 0.771395 0.5 
-0.0175439 0.653521 -0.157105 0.0834273 -0.825761 -0.557816 0.574749 0.5 
-0.646667 -0.838382 0.118895 -0.634539 0.707095 0.312054 0.557573 0.5 
-0.207909 -0.885856 0.667312 -0.661002 0.118148 0.741025 0.449352 0.361985 
0.748885 -0.545608 -0.0566234 0.895317 -0.169323 -0.411992 0.586655 0.5 
-0.00753044 -0.619584 0.688293 -0.617696 -0.246303 0.746851 0.712277 0.5 
-0.22767 -0.0711734 -0.253101 -0.0977745 0.377465 -0.920848 0.867989 0.5 
-0.907141 0.0347845 0.58972 -0.502761 -0.711911 0.490319 0.44565 0.5 
-0.801172 0.777444 -0.524638 -0.854929 -0.385683 -0.346908 0.270817 0.44932 
-0.928108 0.394439 0.494323 -0.918578 0.290696 0.267788 0.851628 0.5 
-0.12882 -0.922751 -0.0293358 0.00797735 -0.999745 -0.0211244 0.766881 0.5 
-0.72333 -0.492906 0.440744 -0.641557 -0.55711 0.527288 0.454542 0.338075 
-0.679666 0.687999 -0.616192 -0.947967 -0.0748373 -0.309447 0.368993 0.427514 
-0.879512 -0.00759456 0.0987764 -0.930079 -0.142119 -0.338757 0.383561 0.5 
0.533207 -0.193462 0.615258 0.394535 0.254289 0.882995 0.464601 0.5 
-0.245674 -0.427854 0.561538 0.216829 -0.132073 0.967234 0.739629 0.5 
0.83638 -0.868804 0.151248 0.542204 -0.840138 -0.0135028 0.37214 0.5 
-0.476805 -0.581443 -0.103418 -0.389587 -0.550784 -0.738145 0.452904 0.5 
-0.113984 -0.791553 0.659243 -0.269869 0.733454 0.623872 0.326031 0.5 
-0.895696 0.360564 0.578815 -0.677736 0.450548 0.581103 0.535886 0.5 
-0.759796 0.00332406 0.605429 -0.105663 -0.842391 0.528406 0.397759 0.397455 
-0.718976 0.675578 -0.489544 -0.906334 -0.281749 -0.314924 0.368978 0.449848 
-0.676064 0.576751 -0.641077 -0.695421 -0.435243 -0.571798 0.35716 0.5 
-0.187631 0.879388 -0.0564124 -0.327712 0.857357 0.396918 0.267257 0.5 
0.61518 -0.628158 -0.222207 0.707609 -0.248333 -0.661529 0.710796 0.5 
0.564073 -0.0224995 0.503585 0.421569 0.454327 0.784772 0.552181 0.418855 
-0.605149 0.308867 0.523917 0.727211 0.300967 0.616913 0.680171 0.5 
-0.367976 0.159839 0.344782 0.427546 0.620031 0.65785 0.568609 0.5 
-0.781929 0.57787 -0.152002 -0.965308 -0.250299 -0.0743765 0.797311 0.5 
0.729072 -0.0331295 0.182112 0.868931 0.493885 0.032199 0.688963 0.5 
0.200892 -0.737268 0.723737 0.0291695 -0.372545 0.927556 0.544189 0.5 
-0.934438 0.415868 0.416118 -0.972439 0.0751386 0.22072 0.533567 0.474337 
-0.93399 -0.189979 0.224762 -0.999866 0.01635 -4.92995e-05 0.598261 0.5 
0.521112 -0.112905 -0.232243 0.419831 0.438169 -0.794827 0.469512 0.480579 
0.114307 -0.819841 0.629101 0.0590565 -0.284019 0.956998 0.625363 0.5 
-0.127794 -0.00595041 0.515318 -0.226528 0.552175 0.802364 0.480727 0.5 
0.0214068 -0.788881 0.632378 -0.16935 0.211762 0.962537 0.409156 0.5 
-0.542712 -0.904691 0.275323 -0.682602 0.729289 -0.0468196 0.335726 0.5 
-0.140592 -0.324235 -0.448106 -0.59902 0.198917 -0.775633 0.66924 0.5 
0.779412 -0.390683 -0.0215879 0.918161 -0.0483528 -0.393246 0.505581 0.5 
-0.843556 -0.389841 0.395924 -0.810537 -0.433642 0.39368 0.696843 0.5 
0.343803 0.260692 0.0497519 0.227858 0.931464 -0.283647 0.629269 0.5 
-0.636944 0.134399 0.693255 0.642786 0.0185306 0.765822 0.526685 0.5 
-0.854535 -0.104616 -0.0297098 -0.798685 0.259985 -0.542687 0.539142 0.5 
-0.707617 0.594519 0.240677 -0.0501167 0.998132 -0.0349478 0.771742 0.5 
0.278106 -0.980529 0.151179 0.127898 -0.991663 0.0156931 0 0 
0.0610001 0.694721 -0.152805 0.874879 -0.125319 0.467849 0.380942 0.5 
0.288574 -0.308421 0.752315 0.237131 0.127723 0.963045 0.524132 0.484692 
-0.949927 0.0810631 0.377753 -0.806042 -0.58985 0.0487067 0.752784 0.5 
0.0284977 0.975447 -0.299121 0.518521 0.854533 -0.0301478 0.276676 0.367128 
0.348387 -0.943765 -0.277259 0.266503 -0.293846 -0.917949 0.404607 0.5 
0.29237 -0.800322 0.670816 0.180197 -0.550606 0.815084 0.508281 0.5 
-0.766526 -0.51218 0.330097 -0.683153 -0.669952 0.290631 0.595027 0.476543 
0.141659 -0.821271 -0.360098 0.0385469 -0.587387 -0.808388 0.7769 0.5 
-0.961456 0.454836 0.333812 -0.974677 0.126209 0.184596 0.72795 0.5 
0.199786 -0.91183 -0.156084 -0.0928531 -0.916996 0.38794 0.816802 0.5 
0.217445 -0.96768 0.116917 -0.571568 -0.807545 -0.14554 0.577176 0.5 
0.0907375 0.242738 0.0343703 -0.273538 0.925794 -0.260928 0.730645 0.5 
-0.0357853 0.227356 0.177588 -0.247305 0.966745 0.0651441 0.521421 0.5 
-0.267667 0.728569 -0.157205 -0.546951 0.152521 -0.823154 0.438092 0.384644 
0.0626751 0.806617 -0.242481 0.528825 0.440983 0.725174 0.736069 0.5 
-0.180993 -0.925582 0.435733 0.228103 -0.966995 0.113532 0.29796 0.5 
-0.156362 0.753417 -0.204951 -0.350844 -0.155332 -0.923461 0.484785 0.5 
-0.114929 -0.694712 -0.348087 -0.706614 -0.28859 -0.646074 0.452371 0.5 
0.00410924 -0.18196 -0.389357 -0.15627 0.861172 -0.483697 0.447234 0.454288 
0.163074 -0.52445 -0.432302 0.238561 -0.134195 -0.961811 0.757441 0.5 
0.273012 -0.197679 -0.383033 0.241265 0.585343 -0.774057 0.509261 0.461888 
-0.688454 -0.295852 0.561794 -0.228177 0.113131 0.967025 0.567379 0.348894 
-0.417609 0.416744 0.122854 0.989855 -0.137477 0.035864 0.573428 0.5 
0.970151 -0.502303 0.242663 0.788471 0.594604 0.15735 0.400477 0.5 
0.0963023 -0.918702 0.378177 0.0217066 -0.998449 0.0512725 0.771854 0.5 
-0.347431 -0.546542 0.549865 -0.254961 -0.165127 0.952747 0.789821 0.5 
-0.0100988 -0.917877 0.424979 0.0271302 -0.997223 0.0693513 0.795183 0.5 
0.61766 0.114405 0.190333 0.706963 0.70676 0.0263172 0.693341 0.5 
-0.202244 -0.980875 0.296775 0.142951 -0.989722 0.00393434 0.263742 0.5 
-0.217175 -0.764841 0.510196 -0.14677 0.593041 0.791682 0.330168 0.454747 
0.483735 0.201177 0.0497896 0.45691 0.849229 -0.264658 0.76302 0.5 
-0.548368 -0.660507 0.0969599 -0.466662 -0.864043 -0.188828 0.26174 0.5 
3 457 201 542 
3 82 280 188 
3 414 701 541 
3 182 778 256 
3 42 326 796 
3 103 714 164 
3 185 426 715 
3 548 194 407 
3 136 376 225 
3 125 142 664 
3 449 397 719 
3 601 227 385 
3 463 164 31 
3 383 126 166 
3 62 279 392 
3 492 727 569 
3 726 241 761 
3 721 537 770 
3 390 785 570 
3 638 582 53 
3 410 779 111 
3 584 528 679 
3 247 436 562 
3 339 494 518 
3 76 402 48 
3 416 450 389 
3 793 572 661 
3 640 722 413 
3 702 204 306 
3 538 498 440 
3 587 530 615 
3 416 645 7 
3 658 678 193 
3 194 57 724 
3 315 62 9 
3 759 364 454 
3 755 215 334 
3 100 283 154 
3 140 632 206 
3 423 570 229 
3 270 351 616 
3 188 513 686 
3 219 32 634 
3 317 620 352 
3 254 427 729 
3 85 367 305 
3 396 788 185 
3 421 583 586 
3 71 412 627 
3 529 247 562 
3 298 108 165 
3 44 334 321 
3 307 24 501 
3 362 172 225 
3 752 424 681 
3 27 161 706 
3 228 433 234 
3 183 144 601 
3 67 409 331 
3 281 70 130 
3 260 295 118 
3 559 762 733 
3 397 208 286 
3 119 342 240 
3 415 256 657 
3 564 313 580 
3 163 479 292 
3 693 643 581 
3 733 544 230 
3 332 41 389 
3 395 154 220 
3 715 426 262 
3 518 494 577 
3 402 76 100 
3 764 200 29 
3 633 553 117 
3 406 303 544 
3 696 232 133 
3 473 776 55 
3 573 484 343 
3 490 377 398 
3 334 551 755 
3 440 52 593 
3 61 609 113 
3 332 426 788 
3 404 671 595 
3 248 34 193 
3 15 454 514 
3 522 488 255 
3 65 631 712 
3 304 178 401 
3 599 382 710 
3 160 757 11 
3 595 722 799 
3 649 735 459 
3 192 700 481 
3 102 391 575 
3 68 725 333 
3 144 759 15 
3 457 310 589 
3 761 578 487 
3 464 170 384 
3 97 493 175 
3 306 295 699 
3 145 714 89 
3 428 442 527 
3 500 512 57 
3 112 115 58 
3 302 667 323 
3 708 104 477 
3 190 206 598 
3 691 309 245 
3 400 764 29 
3 682 321 716 
3 369 361 202 
3 753 776 460 
3 531 143 726 
3 34 155 193 
3 508 108 298 
3 777 151 417 
3 377 356 790 
3 232 113 150 
3 728 126 289 
3 305 747 565 
3 695 344 384 
3 666 206 190 
3 433 749 607 
3 739 709 268 
3 654 366 698 
3 546 757 160 
3 73 415 677 
3 266 101 287 
3 704 542 311 
3 791 172 363 
3 422 787 94 
3 372 378 139 
3 672 438 557 
3 302 569 133 
3 578 520 487 
3 28 115 112 
3 14 705 209 
3 547 621 354 
3 128 727 276 
3 501 349 718 
3 228 272 433 
3 312 238 444 
3 129 179 113 
3 636 61 696 
3 744 71 734 
3 597 138 171 
3 238 361 121 
3 184 776 753 
3 99 624 315 
3 236 659 525 
3 248 421 482 
3 308 572 447 
3 107 439 124 
3 42 567 625 
3 182 256 36 
3 471 409 300 
3 642 696 128 
3 588 451 202 
3 396 550 788 
3 201 142 467 
3 303 110 544 
3 291 111 779 
3 32 482 540 
3 346 198 211 
3 86 740 613 
3 245 664 351 
3 142 201 157 
3 46 378 197 
3 4 635 721 
3 152 385 227 
3 644 350 634 
3 9 778 182 
3 256 135 657 
3 785 470 570 
3 26 91 585 
3 77 694 561 
3 253 633 159 
3 678 401 37 
3 732 49 685 
3 759 454 15 
3 243 138 253 
3 168 8 258 
3 641 484 561 
3 50 388 469 
3 432 24 307 
3 248 193 678 
3 577 212 713 
3 527 432 203 
3 338 217 98 
3 340 669 590 
3 489 603 660 
3 161 122 114 
3 301 209 705 
3 691 353 309 
3 702 742 200 
3 104 628 268 
3 399 389 84 
3 762 639 733 
3 271 787 414 
3 156 257 159 
3 485 6 578 
3 131 16 710 
3 238 660 587 
3 74 681 370 
3 656 324 506 
3 48 134 76 
3 38 650 446 
3 118 648 546 
3 728 84 126 
3 498 538 110 
3 313 564 605 
3 393 299 12 
3 587 660 530 
3 229 221 508 
3 736 173 638 
3 305 353 691 
3 62 792 252 
3 481 222 382 
3 751 519 453 
3 647 439 107 
3 133 232 302 
3 0 631 651 
3 97 514 308 
3 345 563 404 
3 598 437 618 
3 353 565 309 
3 328 56 69 
3 574 732 79 
3 179 428 302 
3 74 370 773 
3 187 682 763 
3 713 212 431 
3 744 663 659 
3 139 371 116 
3 201 153 157 
3 107 534 327 
3 738 611 644 
3 512 169 57 
3 333 195 56 
3 624 112 58 
3 351 691 245 
3 64 151 359 
3 602 167 695 
3 319 786 399 
3 608 560 262 
3 685 112 624 
3 165 285 211 
3 21 777 417 
3 661 572 357 
3 447 267 687 
3 311 201 467 
3 147 466 45 
3 213 336 793 
3 308 447 379 
3 665 509 387 
3 769 506 24 
3 466 698 441 
3 435 123 393 
3 597 96 138 
3 676 122 629 
3 532 233 88 
3 699 295 260 
3 75 630 499 
3 632 646 206 
3 96 445 261 
3 286 226 397 
3 365 741 731 
3 295 648 118 
3 618 437 186 
3 100 76 543 
3 445 96 596 
3 272 242 433 
3 81 776 184 
3 775 390 423 
3 99 315 576 
3 387 509 446 
3 285 709 469 
3 300 19 471 
3 204 234 607 
3 403 139 378 
3 551 41 550 
3 331 409 579 
3 532 354 189 
3 573 235 787 
3 276 740 797 
3 284 452 553 
3 754 503 167 
3 361 587 615 
3 185 715 422 
3 407 194 724 
3 727 492 276 
3 18 206 666 
3 472 748 263 
3 784 543 536 
3 272 156 356 
3 531 726 120 
3 200 259 318 
3 293 501 718 
3 243 766 603 
3 562 436 411 
3 489 312 441 
3 227 514 97 
3 613 195 86 
3 691 30 795 
3 299 408 505 
3 34 531 155 
3 264 646 632 
3 650 594 730 
3 603 286 584 
3 635 102 575 
3 503 375 51 
3 655 593 52 
3 422 697 573 
3 640 317 722 
3 210 507 320 
3 703 80 400 
3 361 615 588 
3 375 459 216 
3 216 51 375 
3 423 229 360 
3 741 420 495 
3 629 168 239 
3 103 479 714 
3 334 215 181 
3 143 531 219 
3 162 343 641 
3 32 531 34 
3 722 604 799 
3 209 606 709 
3 472 263 764 
3 654 790 366 
3 385 329 601 
3 427 254 23 
3 301 708 477 
3 781 596 504 
3 445 745 191 
3 420 555 703 
3 105 394 516 
3 12 299 480 
3 508 298 274 
3 799 50 595 
3 264 443 550 
3 220 283 543 
3 16 65 2 
3 763 616 291 
3 623 98 217 
3 700 92 481 
3 581 307 180 
3 290 299 393 
3 34 248 482 
3 125 664 245 
3 317 230 620 
3 631 59 712 
3 445 191 261 
3 356 377 490 
3 195 613 56 
3 46 704 311 
3 757 457 542 
3 177 448 360 
3 756 773 533 
3 761 18 666 
3 307 251 180 
3 508 221 108 
3 343 484 641 
3 342 367 85 
3 141 125 309 
3 430 773 463 
3 525 663 668 
3 792 626 252 
3 310 552 386 
3 439 381 602 
3 720 775 423 
3 479 717 714 
3 237 636 336 
3 405 274 680 
3 604 364 169 
3 755 418 215 
3 87 95 415 
3 524 223 280 
3 362 614 363 
3 656 116 324 
3 588 224 451 
3 342 85 751 
3 308 486 97 
3 565 353 305 
3 470 66 570 
3 794 434 626 
3 486 308 379 
3 285 500 211 
3 736 638 53 
3 559 774 464 
3 146 69 436 
3 346 435 198 
3 675 619 770 
3 582 26 53 
3 699 557 438 
3 581 432 307 
3 109 604 47 
3 266 166 645 
3 463 31 430 
3 9 62 148 
3 778 148 256 
3 235 343 162 
3 450 126 84 
3 44 101 358 
3 488 25 208 
3 669 745 48 
3 305 367 747 
3 742 637 592 
3 248 678 359 
3 31 714 145 
3 234 433 607 
3 659 236 265 
3 563 327 534 
3 168 713 8 
3 501 24 349 
3 572 267 447 
3 217 621 610 
3 408 183 231 
3 416 389 41 
3 661 213 793 
3 478 743 734 
3 774 413 612 
3 624 58 419 
3 93 291 779 
3 408 244 505 
3 737 336 636 
3 316 719 102 
3 481 92 222 
3 419 58 794 
3 232 150 302 
3 614 634 350 
3 658 468 304 
3 682 716 763 
3 489 441 83 
3 15 227 601 
3 531 120 155 
3 283 100 543 
3 596 96 597 
3 749 310 458 
3 632 140 418 
3 370 10 180 
3 145 131 710 
3 459 375 296 
3 1 578 761 
3 474 210 320 
3 62 252 683 
3 563 258 327 
3 717 479 205 
3 31 145 60 
3 40 68 333 
3 551 416 41 
3 710 382 145 
3 23 90 554 
3 79 273 21 
3 593 546 237 
3 438 789 176 
3 582 119 26 
3 348 694 708 
3 783 3 137 
3 413 722 671 
3 75 499 374 
3 373 176 789 
3 340 452 284 
3 758 492 322 
3 43 735 649 
3 455 765 647 
3 186 271 414 
3 420 365 555 
3 475 679 630 
3 85 795 751 
3 616 111 291 
3 670 182 777 
3 647 765 43 
3 551 550 443 
3 285 469 500 
3 214 81 391 
3 289 126 383 
3 724 759 183 
3 314 254 675 
3 357 308 454 
3 311 467 246 
3 248 677 421 
3 392 279 700 
3 637 554 592 
3 572 308 357 
3 719 397 214 
3 725 740 86 
3 612 413 673 
3 443 755 551 
3 69 56 436 
3 424 323 643 
3 171 83 429 
3 588 615 556 
3 622 162 70 
3 289 410 380 
3 337 635 4 
3 405 680 39 
3 574 79 39 
3 148 392 20 
3 84 389 450 
3 125 141 467 
3 566 396 617 
3 617 185 94 
3 160 609 61 
3 121 265 444 
3 525 522 236 
3 769 24 432 
3 517 567 42 
3 213 538 440 
3 741 314 731 
3 186 94 271 
3 694 348 705 
3 293 718 292 
3 749 458 607 
3 256 767 135 
3 183 329 517 
3 732 685 624 
3 373 535 306 
3 60 145 222 
3 440 336 213 
3 469 512 500 
3 437 598 646 
3 149 511 163 
3 106 70 281 
3 310 749 552 
3 230 317 640 
3 761 487 18 
3 405 177 360 
3 655 546 593 
3 6 485 181 
3 696 133 128 
3 158 5 216 
3 631 791 59 
3 184 314 675 
3 312 489 238 
3 489 660 238 
3 18 487 206 
3 715 262 422 
3 82 339 524 
3 163 511 479 
3 228 331 272 
3 630 528 127 
3 458 310 648 
3 275 398 684 
3 303 672 557 
3 455 647 107 
3 530 335 615 
3 320 285 165 
3 731 460 365 
3 425 181 485 
3 602 754 167 
3 556 665 224 
3 736 511 149 
3 566 646 264 
3 136 689 376 
3 190 598 541 
3 249 17 269 
3 363 614 350 
3 173 747 638 
3 755 264 632 
3 131 711 651 
3 674 599 583 
3 180 78 370 
3 171 138 243 
3 409 67 300 
3 456 589 386 
3 201 457 153 
3 172 136 225 
3 751 795 425 
3 600 710 2 
3 53 26 511 
3 372 139 656 
3 717 205 711 
3 263 228 234 
3 664 157 616 
3 478 730 502 
3 528 630 679 
3 156 409 471 
3 431 455 258 
3 651 631 65 
3 14 330 470 
3 477 606 209 
3 138 96 633 
3 361 588 202 
3 797 447 687 
3 157 153 780 
3 12 282 491 
3 774 640 413 
3 131 717 711 
3 760 319 77 
3 79 35 39 
3 614 219 634 
3 380 410 456 
3 705 348 301 
3 479 511 585 
3 355 652 183 
3 619 158 770 
3 62 683 250 
3 424 693 681 
3 462 154 395 
3 794 137 434 
3 238 587 361 
3 748 331 228 
3 390 641 785 
3 167 503 496 
3 608 332 786 
3 105 706 289 
3 332 788 41 
3 273 99 670 
3 0 791 631 
3 282 521 491 
3 494 212 577 
3 699 260 655 
3 489 243 603 
3 724 183 652 
3 580 455 431 
3 131 523 16 
3 605 4 735 
3 351 664 616 
3 355 218 407 
3 414 106 701 
3 725 68 740 
3 421 586 540 
3 6 520 578 
3 54 429 441 
3 265 236 255 
3 424 643 693 
3 203 643 323 
3 462 653 771 
3 96 261 633 
3 519 485 578 
3 319 608 786 
3 535 373 639 
3 394 275 516 
3 407 218 123 
3 728 161 114 
3 553 633 261 
3 257 471 19 
3 24 506 483 
3 315 792 62 
3 611 738 2 
3 617 94 186 
3 407 435 548 
3 516 339 27 
3 599 710 600 
3 653 462 590 
3 335 374 615 
3 593 336 440 
3 576 315 9 
3 326 625 297 
3 435 407 123 
3 712 611 2 
3 365 420 741 
3 697 560 484 
3 632 418 755 
3 42 796 17 
3 320 507 285 
3 11 757 704 
3 401 178 281 
3 651 711 72 
3 104 239 168 
3 411 436 56 
3 476 513 337 
3 243 83 171 
3 176 306 699 
3 734 743 663 
3 132 561 14 
3 36 777 182 
3 335 530 75 
3 503 33 496 
3 124 673 671 
3 737 636 696 
3 396 566 550 
3 698 366 441 
3 237 160 61 
3 204 607 295 
3 43 381 439 
3 630 127 499 
3 435 393 198 
3 419 794 792 
3 468 658 193 
3 148 62 392 
3 121 361 369 
3 581 180 10 
3 448 423 360 
3 768 547 88 
3 450 7 166 
3 304 190 541 
3 641 132 785 
3 770 459 721 
3 198 12 298 
3 93 410 266 
3 371 173 116 
3 60 92 430 
3 492 758 276 
3 123 218 408 
3 686 476 605 
3 159 356 156 
3 50 799 388 
3 408 218 183 
3 701 106 281 
3 85 305 691 
3 620 661 357 
3 349 149 718 
3 694 114 708 
3 372 461 378 
3 310 386 589 
3 533 773 430 
3 286 766 226 
3 545 417 151 
3 142 157 664 
3 767 148 20 
3 240 376 91 
3 728 114 399 
3 235 162 622 
3 656 139 116 
3 298 680 274 
3 613 411 56 
3 371 565 173 
3 435 346 548 
3 558 128 276 
3 263 234 204 
3 259 263 204 
3 177 39 35 
3 744 734 663 
3 322 756 758 
3 205 479 585 
3 156 471 257 
3 451 412 707 
3 484 760 561 
3 571 452 532 
3 359 73 677 
3 508 274 229 
3 425 30 497 
3 399 114 694 
3 495 420 400 
3 759 169 364 
3 73 256 415 
3 770 537 675 
3 127 528 690 
3 147 316 513 
3 798 270 763 
3 314 741 288 
3 547 277 723 
3 58 783 137 
3 557 52 498 
3 723 277 22 
3 488 45 255 
3 616 157 111 
3 579 409 156 
3 179 442 428 
3 505 244 249 
3 367 119 582 
3 535 5 702 
3 302 428 667 
3 256 148 767 
3 259 204 318 
3 676 708 114 
3 158 619 729 
3 157 780 111 
3 117 553 571 
3 383 166 266 
3 290 408 299 
3 697 484 573 
3 406 672 303 
3 648 457 757 
3 529 562 92 
3 780 589 456 
3 93 287 291 
3 711 205 689 
3 123 408 290 
3 796 326 115 
3 596 597 504 
3 121 369 265 
3 665 556 509 
3 329 567 517 
3 782 462 395 
3 609 174 197 
3 774 559 733 
3 481 382 599 
3 313 605 765 
3 764 263 259 
3 329 465 567 
3 676 629 239 
3 66 474 221 
3 732 624 99 
3 591 675 537 
3 344 762 559 
3 454 620 357 
3 487 140 206 
3 235 573 343 
3 115 783 58 
3 583 599 586 
3 241 143 225 
3 797 740 68 
3 67 555 300 
3 1 519 578 
3 208 584 286 
3 461 197 378 
3 606 477 268 
3 146 436 341 
3 733 672 406 
3 709 739 469 
3 430 92 562 
3 23 637 427 
3 226 473 397 
3 625 40 333 
3 793 336 737 
3 707 71 744 
3 33 639 496 
3 558 276 797 
3 656 506 769 
3 446 730 478 
3 197 461 129 
3 387 627 665 
3 347 338 189 
3 224 665 627 
3 386 490 275 
3 14 470 132 
3 340 688 510 
3 718 163 292 
3 625 333 297 
3 502 692 743 
3 586 600 738 
3 101 682 187 
3 185 788 426 
3 195 725 86 
3 109 620 454 
3 179 461 372 
3 317 604 722 
3 737 696 642 
3 113 179 150 
3 403 246 371 
3 9 148 778 
3 691 351 30 
3 21 273 777 
3 565 747 173 
3 214 397 55 
3 795 30 425 
3 11 704 174 
3 264 755 443 
3 59 363 207 
3 50 739 345 
3 445 596 745 
3 275 490 398 
3 309 125 245 
3 385 175 465 
3 571 532 189 
3 794 626 792 
3 319 560 608 
3 477 104 268 
3 262 560 697 
3 577 629 122 
3 407 724 325 
3 592 200 742 
3 575 591 537 
3 596 134 745 
3 176 699 438 
3 114 122 676 
3 669 653 590 
3 330 549 470 
3 90 400 554 
3 51 535 33 
3 315 624 419 
3 151 36 73 
3 335 75 374 
3 466 444 45 
3 557 498 303 
3 545 35 417 
3 449 488 397 
3 319 760 560 
3 541 701 178 
3 27 706 105 
3 223 654 698 
3 300 226 19 
3 70 390 775 
3 788 550 41 
3 284 191 340 
3 301 477 209 
3 71 627 387 
3 314 288 23 
3 196 366 790 
3 571 189 196 
3 501 251 307 
3 452 340 510 
3 450 416 7 
3 390 162 641 
3 643 203 581 
3 370 199 773 
3 539 164 463 
3 451 707 662 
3 120 666 746 
3 149 163 718 
3 736 53 511 
3 449 719 316 
3 78 293 292 
3 786 389 399 
3 536 134 596 
3 448 720 423 
3 415 657 87 
3 635 337 102 
3 72 136 0 
3 77 319 399 
3 617 186 437 
3 723 22 621 
3 591 184 675 
3 494 580 212 
3 74 773 752 
3 93 779 410 
3 516 27 105 
3 543 22 220 
3 279 62 250 
3 336 593 237 
3 33 535 639 
3 553 261 284 
3 323 424 569 
3 482 421 540 
3 536 596 781 
3 60 222 92 
3 736 116 173 
3 161 728 706 
3 30 351 270 
3 246 565 371 
3 561 694 705 
3 525 668 522 
3 104 708 239 
3 181 215 6 
3 758 756 613 
3 263 748 228 
3 726 761 666 
3 534 124 671 
3 475 75 530 
3 507 709 285 
3 88 233 782 
3 16 523 65 
3 687 568 642 
3 368 299 505 
3 456 394 380 
3 352 620 109 
3 55 776 214 
3 22 610 621 
3 2 710 16 
3 677 415 421 
3 249 269 505 
3 6 140 520 
3 359 678 37 
3 576 9 182 
3 414 787 106 
3 174 704 197 
3 723 621 547 
3 251 293 78 
3 329 183 601 
3 493 465 175 
3 442 179 372 
3 448 545 64 
3 772 526 720 
3 546 648 757 
3 266 645 358 
3 21 417 35 
3 498 52 440 
3 553 452 571 
3 521 49 732 
3 268 628 739 
3 433 552 749 
3 473 55 397 
3 115 326 783 
3 421 95 583 
3 586 599 600 
3 688 340 590 
3 533 411 756 
3 580 313 455 
3 400 80 472 
3 183 218 355 
3 763 716 798 
3 465 493 567 
3 456 410 111 
3 159 257 253 
3 464 774 612 
3 223 466 188 
3 127 650 499 
3 37 526 359 
3 71 387 478 
3 554 400 29 
3 539 292 103 
3 202 278 265 
3 63 481 599 
3 522 25 488 
3 751 425 485 
3 79 21 35 
3 655 118 546 
3 753 460 731 
3 346 57 194 
3 574 39 680 
3 658 304 678 
3 566 264 550 
3 681 10 370 
3 5 535 51 
3 740 758 613 
3 273 670 777 
3 590 462 782 
3 109 454 364 
3 523 131 651 
3 695 384 170 
3 552 490 386 
3 331 579 272 
3 781 429 623 
3 383 266 410 
3 509 38 446 
3 528 584 750 
3 387 446 478 
3 46 403 378 
3 716 334 497 
3 243 257 19 
3 281 130 720 
3 670 576 182 
3 321 101 44 
3 265 369 202 
3 168 258 563 
3 262 426 608 
3 202 662 278 
3 789 438 672 
3 346 500 57 
3 669 191 745 
3 72 689 136 
3 160 11 609 
3 119 91 26 
3 197 129 609 
3 11 174 609 
3 110 303 498 
3 104 168 563 
3 768 782 395 
3 300 555 226 
3 466 312 444 
3 698 466 223 
3 750 208 25 
3 574 491 732 
3 359 526 772 
3 338 98 366 
3 153 457 589 
3 334 44 551 
3 568 737 642 
3 266 358 101 
3 145 89 131 
3 155 120 746 
3 790 159 196 
3 659 663 525 
3 145 382 222 
3 7 645 166 
3 402 100 771 
3 739 628 345 
3 539 103 164 
3 178 701 281 
3 63 192 481 
3 413 671 673 
3 177 35 545 
3 40 486 379 
3 132 470 785 
3 473 460 776 
3 757 542 704 
3 649 754 381 
3 740 276 758 
3 696 61 232 
3 609 129 113 
3 304 541 178 
3 363 350 207 
3 650 127 594 
3 687 642 558 
3 721 459 735 
3 777 36 151 
3 595 345 404 
3 439 695 124 
3 642 128 558 
3 709 606 268 
3 177 405 39 
3 561 705 14 
3 442 769 527 
3 518 122 161 
3 629 713 168 
3 354 621 347 
3 633 117 159 
3 316 102 513 
3 15 514 227 
3 592 554 29 
3 618 414 541 
3 169 759 724 
3 240 1 376 
3 496 639 762 
3 223 398 654 
3 613 756 411 
3 312 466 441 
3 524 684 398 
3 274 360 229 
3 140 6 418 
3 501 293 251 
3 283 220 154 
3 22 543 610 
3 27 518 161 
3 183 759 144 
3 404 563 534 
3 362 363 172 
3 324 736 483 
3 225 1 241 
3 467 141 246 
3 555 460 226 
3 84 728 399 
3 719 214 391 
3 608 426 332 
3 536 781 784 
3 424 752 322 
3 729 619 254 
3 495 90 288 
3 594 690 692 
3 167 344 695 
3 321 682 101 
3 791 363 59 
3 200 592 29 
3 278 659 265 
3 535 702 306 
3 138 633 253 
3 159 117 196 
3 646 566 617 
3 771 154 462 
3 730 594 502 
3 225 376 1 
3 515 269 28 
3 189 338 196 
3 572 793 267 
3 58 137 794 
3 679 475 530 
3 95 674 583 
3 116 736 324 
3 242 356 490 
3 427 637 729 
3 60 430 31 
3 502 743 478 
3 233 688 782 
3 580 494 82 
3 344 496 762 
3 746 190 304 
3 206 646 598 
3 107 124 534 
3 460 555 365 
3 155 468 193 
3 551 358 645 
3 431 212 580 
3 23 288 90 
3 30 270 798 
3 772 720 448 
3 287 187 291 
3 179 129 461 
3 495 400 90 
3 773 199 463 
3 497 181 425 
3 370 78 463 
3 751 485 519 
3 728 289 706 
3 549 330 209 
3 653 669 48 
3 102 719 391 
3 707 412 71 
3 765 605 735 
3 179 302 150 
3 468 746 304 
3 403 371 139 
3 393 123 290 
3 133 727 128 
3 198 393 12 
3 67 80 703 
3 644 634 32 
3 712 207 611 
3 594 127 690 
3 660 679 530 
3 184 591 81 
3 510 688 233 
3 238 121 444 
3 796 115 28 
3 346 194 548 
3 692 750 668 
3 603 584 660 
3 534 671 404 
3 98 441 366 
3 748 67 331 
3 635 537 721 
3 309 565 141 
3 603 766 286 
3 655 260 118 
3 695 170 124 
3 739 50 469 
3 483 349 24 
3 604 169 512 
3 43 649 381 
3 284 261 191 
3 370 463 199 
3 621 217 347 
3 684 516 275 
3 763 291 187 
3 322 752 756 
3 666 190 746 
3 483 736 349 
3 470 474 66 
3 359 772 64 
3 590 782 688 
3 272 13 156 
3 109 47 352 
3 470 549 474 
3 85 691 795 
3 722 595 671 
3 577 713 629 
3 503 51 33 
3 422 573 787 
3 429 504 171 
3 82 524 280 
3 195 333 725 
3 379 68 40 
3 491 574 680 
3 623 429 54 
3 251 78 180 
3 412 224 627 
3 556 38 509 
3 492 424 322 
3 287 93 266 
3 407 325 355 
3 154 771 100 
3 253 257 243 
3 240 342 453 
3 564 188 686 
3 708 676 239 
3 444 265 255 
3 110 213 661 
3 476 4 605 
3 415 95 421 
3 492 569 424 
3 611 207 350 
3 106 622 70 
3 5 51 216 
3 91 376 205 
3 143 362 225 
3 562 411 430 
3 367 582 747 
3 602 695 439 
3 388 799 604 
3 164 714 31 
3 262 697 422 
3 375 503 296 
3 610 543 784 
3 738 644 540 
3 71 478 734 
3 700 529 92 
3 733 639 672 
3 610 784 623 
3 667 527 203 
3 6 215 418 
3 110 538 213 
3 209 330 14 
3 124 170 673 
3 394 456 275 
3 750 584 208 
3 311 403 46 
3 549 507 210 
3 727 133 569 
3 72 0 651 
3 641 561 132 
3 611 350 644 
3 747 582 638 
3 295 607 458 
3 770 158 216 
3 651 65 523 
3 768 395 277 
3 653 48 402 
3 354 347 189 
3 191 669 340 
3 403 311 246 
3 551 645 416 
3 655 52 557 
3 579 13 272 
3 79 99 273 
3 774 230 640 
3 790 654 377 
3 690 750 692 
3 269 796 28 
3 398 377 654 
3 469 388 512 
3 338 366 196 
3 341 436 247 
3 504 597 171 
3 532 88 547 
3 405 360 274 
3 617 396 185 
3 1 453 519 
3 575 391 81 
3 798 716 497 
3 48 745 134 
3 526 401 720 
3 339 516 684 
3 551 44 358 
3 447 797 379 
3 423 390 570 
3 188 466 147 
3 258 455 327 
3 419 792 315 
3 575 81 591 
3 354 532 547 
3 143 219 362 
3 539 78 292 
3 105 289 380 
3 203 432 581 
3 198 298 165 
3 480 299 368 
3 209 709 549 
3 346 211 500 
3 339 684 524 
3 320 165 108 
3 453 342 751 
3 79 732 99 
3 460 473 226 
3 12 491 680 
3 17 796 269 
3 693 10 681 
3 733 406 544 
3 256 73 36 
3 637 23 554 
3 493 40 625 
3 184 731 314 
3 42 625 326 
3 287 101 187 
3 105 380 394 
3 615 374 556 
3 528 750 690 
3 197 704 46 
3 144 15 601 
3 518 577 122 
3 223 524 398 
3 402 771 653 
3 272 356 242 
3 467 142 125 
3 110 661 544 
3 188 147 513 
3 37 401 526 
3 246 141 565 
3 223 188 280 
3 345 628 563 
3 533 430 411 
3 672 639 373 
3 511 26 585 
3 772 448 64 
3 564 686 605 
3 649 459 296 
3 94 185 422 
3 392 700 192 
3 59 207 712 
3 98 623 54 
3 63 599 674 
3 278 662 659 
3 296 503 754 
3 623 784 781 
3 224 412 451 
3 692 668 663 
3 667 203 323 
3 620 544 661 
3 456 386 275 
3 493 486 40 
3 204 702 318 
3 205 585 91 
3 152 227 97 
3 32 219 531 
3 32 34 482 
3 97 175 152 
3 527 769 432 
3 119 240 91 
3 219 614 362 
3 738 600 2 
3 267 568 687 
3 408 231 244 
3 45 488 449 
3 781 504 429 
3 216 459 770 
3 50 345 595 
3 667 428 527 
3 324 483 506 
3 660 584 679 
3 650 38 499 
3 677 248 359 
3 464 612 673 
3 545 151 64 
3 451 662 202 
3 237 61 636 
3 499 38 556 
3 80 748 472 
3 726 143 241 
3 8 431 258 
3 579 156 13 
3 342 119 367 
3 680 298 12 
3 267 793 568 
3 66 229 570 
3 368 505 294 
3 310 457 648 
3 108 221 320 
3 437 646 617 
3 1 761 241 
3 662 707 744 
3 117 571 196 
3 699 655 557 
3 741 495 288 
3 649 296 754 
3 474 549 210 
3 130 775 720 
3 588 556 224 
3 628 104 563 
3 292 479 103 
3 89 717 131 
3 520 140 487 
3 703 555 67 
3 344 167 496 
3 475 630 75 
3 716 321 334 
3 560 760 484 
3 446 650 730 
3 709 507 549 
3 242 490 552 
3 230 544 620 
3 76 536 543 
3 347 217 338 
3 4 721 735 
3 491 521 732 
3 19 226 766 
3 379 797 68 
3 463 78 539 
3 486 493 97 
3 229 66 221 
3 204 295 306 
3 57 169 724 
3 455 313 765 
3 711 689 72 
3 147 449 316 
3 175 385 152 
3 689 205 376 
3 564 82 188 
3 236 522 255 
3 45 449 147 
3 623 217 610 
3 656 442 372 
3 567 493 625 
3 686 513 476 
3 581 10 693 
3 355 724 652 
3 670 99 576 
3 384 559 464 
3 729 5 158 
3 743 692 663 
3 793 737 568 
3 155 746 468 
3 532 452 233 
3 618 186 414 
3 337 513 102 
3 750 25 668 
3 153 589 780 
3 774 733 230 
3 561 760 77 
3 329 385 465 
3 359 151 73 
3 575 537 635 
3 569 302 323 
3 714 717 89 
3 304 401 678 
3 211 198 165 
3 294 269 515 
3 542 201 311 
3 753 731 184 
3 294 505 269 
3 547 768 277 
3 763 270 616 
3 672 373 789 
3 88 782 768 
3 420 703 400 
3 647 43 439 
3 271 94 787 
3 454 308 514 
3 237 546 160 
3 752 681 74 
3 172 0 136 
3 729 637 742 
3 214 776 81 
3 775 130 70 
3 452 510 233 
3 738 540 586 
3 70 162 390 
3 243 19 766 
3 374 499 556 
3 107 327 455 
3 82 494 339 
3 765 735 43 
3 604 109 364 
3 297 333 328 
3 502 594 692 
3 20 392 192 
3 231 183 517 
3 489 83 243 
3 295 458 648 
3 30 798 497 
3 82 564 580 
3 536 76 134 
3 791 0 172 
3 442 656 769 
3 448 177 545 
3 5 729 742 
3 301 348 708 
3 126 450 166 
3 429 83 441 
3 113 232 61 
3 314 23 254 
3 619 675 254 
3 281 720 401 
3 80 67 748 
3 279 529 700 
3 240 453 1 
3 349 736 149 
3 476 337 4 
3 662 744 659 
3 668 25 522 
3 797 687 558 
3 328 333 56 
3 787 235 106 
3 724 355 325 
3 540 644 32 
3 388 604 512 
3 200 764 259 
3 552 433 242 
3 45 444 255 
3 334 181 497 
3 120 726 666 
3 673 170 464 
3 702 200 318 
3 764 400 472 
3 2 65 712 
3 752 773 756 
3 780 456 111 
3 786 332 389 
3 373 306 176 
3 598 618 541 
3 713 431 8 
3 106 235 622 
3 159 790 356 
3 602 381 754 
3 488 208 397 
3 77 399 694 
3 289 383 410 
3 384 344 559 
3 98 54 441 
3 395 220 277 
3 339 518 27 
3 277 220 22 
3 5 742 702 
3 320 221 474 
