ply
format ascii 1.0
comment created by simplify v0.03
comment command line:
comment /net/hc283/lindstro/lod/simplify/bin/simplify.geom -v 750
comment 674415 edge cost evaluations
comment modified by flipply
comment modified by boundply
comment modified by normalsply
comment modified by xformply
element vertex 750
property float32 x
property float32 y
property float32 z
property float32 nx
property float32 ny
property float32 nz
element face 1514
property list uint8 int32 vertex_indices
end_header
0.0750312 0.475165 -0.455233 0.758586 0.372523 -0.534579 
0.147648 0.00416983 0.35726 -0.756065 -0.581446 -0.300479 
0.535788 0.413018 -0.425076 0.760032 0.506602 -0.407069 
-0.810911 0.790924 -0.138898 -0.542386 0.245992 -0.803309 
-0.245342 -0.20457 0.696823 -0.857045 0.114504 0.502357 
0.808469 -0.102957 0.218574 0.680856 -0.327707 0.655014 
-0.169897 0.223555 0.452265 -0.270981 0.619612 0.736648 
0.739342 -0.0857861 -0.3537 0.654819 -0.027534 0.755284 
-0.882565 0.621746 0.223046 -0.631387 0.329179 -0.702133 
-0.481389 0.817488 -0.281109 0.503296 0.856756 -0.112527 
0.145025 -0.729714 0.455058 0.532232 -0.804356 -0.264082 
-0.896686 0.455076 0.330852 -0.932942 0.134189 0.334086 
-0.570901 -0.00293541 0.520732 -0.993955 0.106884 0.0250857 
0.0470243 -0.804629 0.0499199 -0.339301 -0.902009 0.266935 
-0.771332 0.847709 -0.42429 0.680356 0.66 -0.318615 
0.646349 -0.192847 -0.495713 0.776059 -0.558128 0.293642 
0.540742 -0.852713 0.00441498 0.676388 -0.693747 0.247414 
0.543903 -0.643739 -0.147529 0.812074 -0.453261 0.367545 
-0.567877 -0.374397 0.200747 -0.422772 -0.728483 -0.539052 
0.620653 -0.351384 -0.321057 0.862022 0.12499 0.491219 
-0.145525 -0.723815 0.563086 -0.202314 -0.974987 -0.0920289 
-0.626286 -0.197851 0.425164 -0.939082 -0.315462 -0.136413 
0.10047 -0.877691 -0.169824 -0.237102 -0.927865 -0.287834 
-0.548201 0.103451 -0.404092 0.561842 -0.225404 -0.795944 
-0.790379 0.816692 -0.339085 -0.688381 0.0850512 -0.720346 
0.493446 0.424086 0.1469 -0.115573 0.669496 -0.733769 
0.450228 -0.641647 -0.301031 0.828528 -0.441557 0.344338 
0.760686 -0.770202 0.443629 -0.0133402 -0.233319 0.972309 
0.259949 -0.492107 0.473077 0.895146 0.364835 -0.256144 
-0.00941937 -0.669211 -0.358774 0.111521 -0.452996 -0.88451 
0.283242 -0.868051 -0.362834 0.55251 -0.828048 -0.09523 
0.127486 -0.653021 -0.470108 0.448143 -0.384462 -0.807066 
-1.00454 0.0876727 -0.255647 -0.0723807 -0.35574 -0.931778 
-0.970649 0.295244 0.280714 -0.803882 0.238451 -0.544898 
0.042173 -0.842821 -0.0533153 -0.404421 -0.890284 -0.209377 
0.560494 -0.227565 -0.559899 0.896662 -0.415902 0.151735 
0.627104 -0.526259 0.435376 -0.0553945 -0.491913 0.86888 
0.334087 -0.665746 -0.46757 0.901682 -0.418374 -0.109236 
0.683181 0.247619 -0.466394 0.974905 0.0850933 -0.205716 
-0.64855 0.752982 0.153385 -0.492195 0.63541 0.594977 
0.620745 0.521397 0.245841 -0.0536472 0.995374 -0.0797061 
0.220821 -0.758852 0.638594 -0.268786 -0.961806 -0.0517969 
-0.502271 0.867238 -0.0896393 0.0409252 0.987903 0.149578 
0.466491 0.350287 0.110264 0.0157156 0.930462 -0.366052 
-0.12851 -0.360547 -0.438436 0.377854 -0.317528 -0.869714 
0.893355 -0.472913 0.317964 0.614982 -0.510967 0.600591 
-0.182542 -0.519165 0.746607 -0.883061 -0.16163 0.440544 
0.390454 -0.424086 -0.665413 0.576133 -0.213122 -0.789082 
-0.537497 0.706727 -0.434731 0.742447 0.557035 -0.372134 
0.576895 -0.40705 0.728451 -0.316519 0.101377 0.943153 
-0.218304 -0.6985 0.510434 -0.27785 -0.840113 -0.465843 
-1.05317 -0.00768079 -0.0211573 -0.545618 -0.42183 -0.724128 
0.452022 -0.742655 0.506793 -0.280293 -0.748543 0.600932 
0.250484 -0.424279 0.699967 -0.437364 0.892518 -0.110109 
-0.856999 -0.0474589 0.24884 -0.786204 -0.596582 -0.161163 
-0.595644 0.237728 0.4139 -0.912938 0.227959 0.338495 
0.424554 0.110701 -0.538009 0.764413 0.484986 -0.424807 
0.771174 -0.559503 0.148139 0.566815 -0.75194 0.33661 
-0.690037 -0.0643245 -0.242904 0.287794 -0.638828 -0.713494 
-0.586361 0.608215 0.255034 -0.649877 0.476924 0.59178 
-0.599052 0.830041 -0.321633 0.637138 0.7661 -0.0845372 
0.250051 -0.824313 -0.424565 0.594315 -0.670116 -0.444674 
0.709475 0.0762917 0.483499 -0.697597 0.420014 0.580471 
0.730328 0.194553 0.292356 0.426152 0.199772 0.882318 
0.758949 0.224187 -0.0625032 0.55276 -0.347551 0.757406 
0.830424 0.0506639 0.416506 0.402903 0.180363 0.897295 
-0.603735 0.0326679 -0.364279 0.441187 -0.406674 -0.799982 
0.782863 0.320707 0.113201 0.648291 0.0159462 0.761226 
0.111504 0.0434579 -0.5453 0.655432 -0.00594401 -0.755231 
0.342266 -0.926065 0.150712 -0.352218 -0.919844 -0.172711 
-0.319797 0.372673 0.367107 -0.488293 0.616121 0.618033 
0.92055 -0.397041 0.30847 0.813246 -0.0770393 0.576798 
0.561329 0.508596 -0.251681 0.729873 0.680151 -0.0684072 
0.274733 -0.801136 0.196049 -0.965235 -0.167449 0.200703 
0.684459 0.493713 0.280746 0.245385 0.846449 0.472557 
0.312475 0.48505 0.111996 -0.359621 0.186436 0.914283 
0.156214 0.290237 0.121291 -0.611872 -0.496901 0.615388 
0.663563 -0.496804 -0.219148 0.749607 -0.558322 0.35548 
0.137113 0.57364 -0.395096 0.7388 0.531156 -0.414786 
-0.401044 -0.51212 0.243557 -0.38323 -0.811109 -0.441857 
0.743896 -0.473469 -0.0922972 0.839559 -0.35815 0.408496 
0.232802 0.211841 0.028424 -0.985886 0.036455 -0.163399 
-0.278804 -0.589356 0.269731 -0.320494 -0.894212 -0.31252 
0.377789 -0.806152 0.375043 -0.780434 -0.479703 -0.401008 
0.387142 -0.870701 -0.225325 0.686948 -0.694451 0.214104 
-0.682218 -0.0983466 0.400449 -0.963689 -0.248228 -0.0984227 
-0.0752213 0.706455 -0.352225 0.620564 0.6756 -0.398076 
-0.00776771 0.184622 0.196481 0.379613 0.314384 0.87009 
0.0591336 0.0486215 0.324163 0.490672 0.394134 0.77711 
-0.723723 0.123657 -0.366527 0.544097 -0.426668 -0.722435 
-1.02396 0.140876 0.261234 -0.979114 -0.0758534 -0.188634 
0.75698 -0.188735 0.12517 0.833498 0.104825 0.542488 
0.383349 0.217838 0.37076 -0.882747 0.0451851 0.467671 
-0.391636 -0.495141 0.504304 -0.716086 -0.557736 -0.419703 
-0.190531 0.539393 0.261031 -0.410387 0.187088 0.892514 
0.623186 0.151034 0.426805 -0.582935 0.60066 0.54717 
0.376897 -0.359097 0.414232 -0.954366 0.159991 0.252166 
0.602448 -0.275766 -0.422535 0.726521 -0.503855 0.467223 
0.129225 -0.37808 0.640198 -0.104011 0.886859 0.450181 
0.766288 0.387417 0.188987 0.597875 0.350893 0.720708 
-0.608265 0.211523 -0.41807 0.648382 -0.253125 -0.718003 
-0.549019 0.754399 0.146943 -0.592251 0.706162 0.388039 
-0.240388 0.470748 0.287065 -0.471412 0.185119 0.862266 
0.688671 -0.807297 0.49113 -0.504459 -0.244505 0.828093 
0.209925 -0.400723 0.314591 0.279812 0.732084 0.621095 
0.312359 0.403888 0.106444 -0.72855 0.668055 0.151386 
0.697218 -0.182045 0.392168 -0.441671 -0.285408 0.850569 
0.416075 -0.0622426 -0.58905 0.69537 0.170091 -0.698233 
-0.101129 -0.311209 -0.462947 0.467967 -0.242084 -0.849943 
0.740323 -0.843606 0.418025 0.105144 -0.672581 0.732516 
0.41033 -0.789337 0.658655 0.00835398 -0.998672 -0.0508353 
-0.652114 -0.294634 0.199189 -0.521681 -0.682658 -0.51169 
-0.435066 -0.477258 0.40558 -0.549831 -0.694347 -0.464292 
0.185025 0.731765 -0.22464 0.533567 0.845569 -0.0178914 
-0.375368 0.568933 -0.450416 0.812396 0.139214 -0.566244 
-0.23992 -0.666036 0.591286 -0.609264 -0.735324 -0.29681 
-0.754597 -0.161418 -0.00837272 -0.238262 -0.73709 -0.6324 
0.673835 0.133608 -0.0395375 0.640634 -0.085161 0.763109 
-0.0793906 0.285599 0.255823 0.145713 0.46956 0.870793 
0.169724 -0.313847 0.29394 0.248651 0.553958 0.794546 
0.654079 -0.268794 0.470898 0.328974 0.902338 -0.2785 
-0.0627823 0.639029 -0.398289 0.730958 0.499552 -0.464917 
-0.915907 0.407608 -0.390247 -0.556217 0.277064 -0.783491 
0.541182 0.106383 0.446723 -0.743957 0.399717 0.535494 
-0.17554 -0.622821 0.341907 0.177972 -0.949913 -0.256887 
0.203938 0.284834 0.0999436 -0.885487 -0.196246 0.421188 
0.738249 -0.599749 0.314041 0.687116 -0.0795453 0.72218 
0.381264 -0.773169 0.742288 -0.289579 -0.955148 0.0619382 
0.809687 -0.744116 0.373535 0.575054 -0.197818 0.79384 
0.0814668 0.531014 0.188725 -0.627602 -0.110798 0.77061 
0.465248 -0.0911044 0.461341 -0.771098 -0.506914 0.385287 
-0.421062 -0.217696 0.604009 -0.972711 -0.23041 0.027273 
0.558212 -0.650517 0.493835 -0.271153 -0.237273 0.932833 
-0.747732 -0.133772 0.306924 -0.864112 -0.454297 -0.216619 
0.643604 -0.23025 0.514482 0.499045 0.726467 -0.472441 
-0.289595 -0.579383 0.648332 -0.831664 -0.46549 -0.302746 
-0.959875 0.140002 -0.330408 0.199284 -0.426697 -0.882165 
-0.0551172 0.529965 -0.448712 0.757952 0.326329 -0.564817 
0.480702 -0.476884 0.794877 -0.391425 0.253186 0.884694 
-0.987726 0.129669 -0.234108 -0.488295 0.320686 -0.811621 
0.135271 -0.236862 0.204319 0.0350029 0.43995 0.89734 
-0.382534 -0.217337 -0.347841 0.112519 -0.516575 -0.848817 
0.0320745 0.205615 0.12862 0.00451003 -0.175557 0.984459 
-0.50582 0.630103 0.248871 -0.796601 0.44626 0.407772 
-0.405488 -0.43169 0.541006 -0.921218 -0.315106 -0.228179 
0.359017 0.0216472 0.461002 -0.896569 0.116734 0.427244 
-0.821665 0.797089 0.0967239 -0.733106 0.432548 -0.524842 
0.559641 0.285579 0.42604 -0.827772 -0.217263 0.517291 
0.157341 -0.575044 0.802745 -0.900772 0.0703344 0.42856 
0.0515555 0.0612868 0.198991 0.685747 0.336449 0.64541 
0.0983049 -0.603669 -0.482893 0.391073 -0.292718 -0.87257 
0.158804 -0.790721 -0.425773 0.351091 -0.528243 -0.773107 
0.409829 -0.933397 0.158995 0.110864 -0.991439 -0.0689716 
0.210932 -0.87502 -0.350762 0.192417 -0.895346 -0.40166 
0.716422 -0.00935079 -0.373773 0.62176 0.072642 0.779832 
0.774766 -0.678067 0.437441 -0.132516 0.24309 0.96091 
0.0822775 -0.0272007 0.330028 0.462714 0.264766 0.846046 
0.152455 0.74698 -0.0150012 0.0375252 0.848566 0.527756 
0.773426 0.0122031 -0.00942916 0.785989 0.244946 0.567646 
-0.354422 0.650903 -0.419255 0.76208 0.496561 -0.415526 
-0.99419 0.19728 0.176856 -0.536764 0.292303 -0.791482 
-0.799623 0.317777 0.333632 -0.876853 0.0343832 0.479527 
-0.91783 -0.0298082 0.187336 -0.612919 -0.773844 -0.159677 
0.830643 -0.252745 0.162035 0.698507 0.562391 0.442499 
-0.884709 0.498105 -0.311346 -0.601928 0.31353 -0.734426 
-0.120624 -0.705434 0.631429 -0.518202 -0.847782 0.112841 
-0.368673 -0.380266 0.603166 -0.991441 -0.107208 -0.0745041 
0.0445716 -0.713937 0.518834 -0.00391837 -0.956151 -0.292848 
-0.124364 -0.718123 0.0138805 -0.372717 -0.876611 -0.304361 
0.284894 0.227605 0.332606 -0.918714 0.38989 0.0628516 
0.652414 0.513599 -0.10281 0.509478 0.774132 0.375702 
-0.0669287 -0.333089 0.722586 -0.599955 0.259664 0.756722 
0.456053 -0.224896 -0.62305 0.824145 0.192296 -0.532735 
0.745323 0.212016 0.100888 0.511171 -0.579345 0.634873 
0.277649 0.395094 0.136187 -0.795476 -0.0772025 0.601047 
0.154848 -0.232309 -0.580868 0.550566 0.00460227 -0.834779 
-0.0203878 -0.671466 0.436155 0.314135 -0.907233 -0.279727 
-0.951871 0.240226 0.308359 -0.953883 -0.0264655 0.29901 
0.0468353 0.132002 0.0710587 0.151698 0.383078 0.911175 
0.28101 0.711753 -0.0964121 0.184417 0.891372 0.41406 
0.243943 -0.675044 0.301415 -0.0460968 -0.970254 -0.237659 
0.0280627 -0.397138 0.721378 -0.461825 0.521022 0.717812 
-0.153836 -0.425749 0.74941 -0.855226 0.186945 0.483364 
0.346999 -0.458114 0.817527 -0.739617 0.427782 0.519586 
0.124971 -0.719588 0.126491 -0.499638 -0.746284 0.439798 
0.639678 0.428938 0.410339 -0.773465 0.499801 0.389809 
0.375353 0.387775 0.0662486 0.311114 0.697785 0.645217 
-0.710402 0.138474 0.388774 -0.952867 0.225312 0.203172 
-0.0187198 -0.491103 -0.439927 0.422345 -0.215532 -0.880438 
0.450292 0.481087 0.0273429 -0.609476 0.383207 0.69404 
-0.481712 0.0505458 0.563178 -0.90135 0.355849 0.24686 
0.337715 0.414666 0.109005 0.109962 0.975621 -0.189924 
0.483837 -0.914357 0.381192 -0.415929 -0.896648 0.151744 
0.536596 -0.143785 0.426313 -0.754638 -0.140576 0.640906 
0.234569 0.265966 0.0678904 -0.570944 -0.819907 -0.0421323 
0.689601 -0.205469 0.646088 -0.314652 0.795036 0.518567 
0.499591 -0.584222 -0.318681 0.584032 -0.75812 0.290103 
0.74318 -0.277296 -0.10428 0.762748 0.521142 0.382918 
-0.644318 0.765802 -0.412477 0.77302 0.589085 -0.235412 
-0.34186 0.705426 -0.367363 0.615214 0.729524 -0.29884 
-0.916782 -0.0558611 -0.0407539 -0.153727 -0.895472 -0.41773 
-0.500783 -0.133326 0.57207 -0.983844 -0.178981 -0.00410013 
0.416714 0.498051 -0.404696 0.72033 0.621213 -0.308577 
0.792937 0.0952599 0.173463 0.722786 0.408119 0.557691 
0.142235 -0.676229 0.151273 -0.955271 0.0781792 -0.28521 
0.491067 -0.301621 0.466154 -0.819375 0.253571 0.514127 
0.274026 -0.687568 0.440454 -0.307166 -0.826194 -0.472284 
-0.25451 -0.453351 0.717414 -0.984146 0.0659907 0.164625 
0.552545 0.482889 0.183793 -0.0177918 0.85451 -0.519131 
0.786481 0.0871748 0.463869 -0.212323 0.397889 0.892526 
0.536384 -0.0178692 0.488758 -0.842032 0.0618338 0.535872 
-0.354323 0.0844416 -0.450695 0.569327 -0.116775 -0.813775 
0.70246 -0.295444 0.457577 0.471384 0.320001 -0.821825 
0.305909 -0.422516 0.563623 0.129228 0.739594 -0.66053 
0.240083 -0.744149 0.205505 -0.908547 -0.125602 0.398455 
0.321941 -0.91455 -0.158487 0.0900991 -0.992395 0.0838659 
0.152739 -0.224629 0.322465 -0.278062 0.651472 0.70588 
0.553767 -0.710647 -0.109586 0.921914 -0.184258 0.340769 
0.732251 0.323434 0.433998 -0.246178 0.0551038 0.967657 
-0.818431 -0.10743 -0.0363179 -0.279946 -0.826369 -0.488614 
0.354104 0.541261 0.0797308 -0.299677 0.345981 0.889096 
0.158252 0.17063 0.321227 -0.716843 0.542459 -0.438035 
0.593415 -0.215636 0.6226 -0.326689 0.944384 -0.0375978 
0.748405 -0.678473 0.239562 0.887533 0.199749 0.415194 
0.212474 -0.129535 0.213776 -0.875514 0.208053 -0.436106 
-0.646735 -0.0286264 0.452396 -0.998588 -0.0406402 -0.0341988 
0.266748 -0.431235 0.465101 0.806311 0.484504 0.339292 
-0.786121 0.927639 -0.183353 -0.528938 0.523697 -0.667807 
0.664856 -0.265092 -0.180966 0.898013 0.0352582 0.438554 
0.671305 -0.430478 -0.249377 0.910423 -0.028525 0.412695 
0.40729 -0.666045 -0.370683 0.859528 -0.414455 0.299062 
0.720559 -0.0377469 0.515248 -0.714915 -0.0167897 0.69901 
-0.822312 -0.112447 0.151868 -0.509704 -0.758794 -0.405504 
0.212247 -0.244324 0.334235 -0.614677 -0.447693 -0.649418 
-0.100476 0.0492962 -0.516516 0.624433 0.0120683 -0.780985 
-0.091993 0.740964 -0.312743 0.469107 0.814254 -0.341949 
0.611401 0.416067 -0.397682 0.719018 0.690379 -0.0799403 
-0.108435 0.330827 0.250042 -0.132004 0.383889 0.913895 
0.603225 0.539878 -0.0289967 0.00447755 0.880657 0.473732 
0.686979 -0.234282 -0.0532688 0.61906 0.416155 0.666018 
0.675785 -0.357924 -0.2238 0.933572 0.237723 0.268199 
0.770479 -0.185906 0.249633 0.618388 0.167627 0.767787 
0.745805 -0.0792515 -0.154937 0.740385 -0.19224 0.644107 
-0.301799 0.806797 -0.203978 0.414841 0.90261 -0.114898 
-0.50464 -0.408053 0.0620679 -0.290295 -0.707767 -0.644046 
-0.580948 0.17347 0.446396 -0.887454 0.389643 0.246178 
0.768458 0.27056 -0.355154 0.774477 0.242381 0.584326 
-0.348523 0.669612 0.275948 -0.712281 0.275741 0.645464 
0.214249 0.741443 -0.155496 0.385299 0.904851 0.181077 
0.548298 0.475518 0.0701763 -0.482949 0.858371 -0.17309 
0.263077 -0.181443 0.416153 -0.964634 0.196285 0.175937 
-0.0559042 -0.624714 0.332861 -0.017936 -0.960344 -0.278241 
0.457669 -0.722609 0.815732 -0.298291 -0.582548 0.756082 
-0.485519 -0.392299 0.462842 -0.796414 -0.510668 -0.323949 
0.783153 -0.274933 0.0387761 0.747071 0.564668 0.350764 
0.757445 0.327468 -0.156866 0.700489 0.255716 0.666277 
0.219195 0.500821 0.163478 -0.500967 0.0858462 0.861198 
-0.81206 0.731867 -0.521714 0.695175 0.481851 -0.533433 
-0.92665 0.429562 0.21143 -0.564295 0.256896 -0.784586 
-0.154661 -0.564302 -0.293817 -0.043408 -0.589684 -0.806467 
0.260839 0.210531 0.136505 -0.330291 0.67786 -0.65682 
0.753053 -0.164156 0.0303848 0.678899 -0.470535 0.563643 
-0.92403 -0.0110457 -0.167625 0.0505625 -0.820878 -0.568861 
-0.634684 0.352209 -0.453801 0.721475 -0.199078 -0.663206 
0.165791 -0.630612 0.220595 0.222583 -0.955532 0.19343 
0.526545 -0.921101 0.198959 0.307764 -0.947298 0.0889293 
0.516262 0.577196 -0.0508143 -0.241451 0.760253 0.603089 
0.828121 -0.550177 0.350691 0.234343 -0.807171 0.54181 
0.297572 0.465851 -0.446677 0.759682 0.437278 -0.481322 
-0.77142 0.933397 -0.100669 -0.0324786 0.997634 0.0605993 
0.736202 -0.255771 0.505167 0.666885 0.73517 -0.121615 
0.333122 -0.368565 0.549318 0.10702 0.278483 -0.95446 
0.387854 0.453695 0.194219 0.395403 0.835692 -0.381149 
-0.105375 0.126185 0.489527 -0.221464 0.566278 0.793903 
0.289916 -0.312396 0.392869 -0.794745 -0.575616 -0.192475 
0.658417 -0.890655 0.37443 0.0560037 -0.93739 0.343748 
0.432048 -0.342779 0.456448 -0.999368 0.0320072 -0.0154886 
-0.768996 -0.161608 0.169737 -0.473601 -0.695733 -0.540053 
0.343306 -0.809734 -0.396301 0.83966 -0.541708 0.03903 
0.028036 -0.0647579 0.525488 0.0539384 0.418197 0.906754 
0.142371 -0.370042 0.537341 0.40077 0.635743 0.659708 
-0.802269 0.745666 -0.268566 -0.578298 0.251545 -0.776077 
-0.513507 0.286776 0.418746 -0.815346 0.380409 0.436462 
0.248748 -0.261392 0.314995 -0.290727 -0.597057 -0.747663 
0.737972 0.0679406 -0.354269 0.582448 -0.404267 0.705211 
-0.31193 -0.582805 0.0140631 -0.289887 -0.73808 -0.609264 
0.704969 -0.616463 0.20315 0.852314 -0.333812 0.402655 
-0.244268 0.840262 -0.0262887 0.0444929 0.989986 0.133974 
-0.247869 0.133322 0.557307 -0.503836 0.579507 0.640563 
0.147155 -0.688913 0.749721 -0.662267 -0.719935 0.207595 
0.737945 0.190166 0.206195 0.71894 0.187631 0.669268 
-0.363467 0.740347 0.242251 -0.647896 0.657831 0.384043 
-0.49074 0.495038 0.302779 -0.717444 0.418103 0.557193 
0.241015 0.308682 0.114258 -0.12178 -0.51955 0.845717 
0.537652 -0.327651 0.731194 -0.517989 0.400351 0.755914 
0.411131 0.459767 0.309431 -0.511362 0.853609 0.0992983 
0.702122 -0.196965 0.573824 0.248456 0.968632 0.00457038 
0.539811 -0.538978 0.760855 -9.94451e-05 -0.00884856 0.999961 
0.38052 -0.0491152 0.459062 -0.865218 -0.434267 0.25062 
0.167578 -0.63176 0.303551 -0.27357 -0.960946 0.0417519 
0.582124 -0.432774 -0.575289 0.923176 -0.00418369 0.384354 
-0.665565 -0.196031 -0.0875587 -0.0301627 -0.715414 -0.698049 
0.76337 0.409352 0.359336 0.389293 0.429978 0.814598 
0.627094 -0.47135 0.659603 0.0527432 -0.378705 0.924013 
-0.245733 0.782891 0.17766 -0.318902 0.870172 0.375635 
0.0265791 0.810356 -0.0663263 0.106487 0.969625 0.220198 
-0.355099 -0.552028 0.372345 -0.361827 -0.760454 -0.53925 
0.329827 0.657995 -0.00884731 -0.0440753 0.795992 0.6037 
-0.198904 -0.621001 0.24238 -0.284428 -0.958071 -0.0346461 
0.690378 0.507079 -0.0104149 0.157241 0.940422 0.301467 
-0.479667 0.836494 0.0559067 -0.418215 0.875619 0.241637 
0.379376 -0.151612 -0.599016 0.66777 0.19629 -0.71802 
0.733316 0.481074 -0.0322702 0.601156 0.634864 0.485344 
0.768177 0.24978 0.214461 0.559777 -0.385985 0.733257 
0.109928 -0.77321 0.0252674 -0.518166 -0.853195 0.0596817 
0.160762 -0.884074 -0.0388557 -0.49412 -0.861871 -0.114125 
0.790608 -0.320948 0.533861 0.771998 0.029894 0.634922 
0.532727 0.0184584 -0.589166 0.722328 0.435363 -0.537309 
0.460921 0.621307 -0.0972144 0.163504 0.906163 0.390044 
-0.244618 -0.634349 0.140643 -0.421396 -0.863544 -0.276979 
0.302011 0.30899 0.0884818 -0.917544 0.397632 -0.00128449 
0.487038 0.504198 -0.366315 0.61176 0.790743 -0.0217951 
-0.478729 -0.28782 -0.182595 0.00816611 -0.568024 -0.822971 
0.316348 -0.807074 0.247553 -0.924352 -0.125389 -0.360347 
0.174201 -0.815157 0.107142 -0.759465 -0.63133 -0.156954 
0.432545 0.2841 -0.482004 0.807888 0.186208 -0.559146 
0.466547 -0.312019 0.497696 0.546374 0.315643 -0.775787 
0.115123 0.723983 0.0863487 -0.141638 0.750644 0.645346 
0.514826 -0.930089 0.305383 -0.00933562 -0.994242 0.10675 
0.0808736 -0.663032 0.286056 -0.521223 -0.852885 0.0302434 
0.883439 -0.277086 0.347148 0.372677 0.66554 0.646659 
0.208629 -0.311386 0.188685 0.490565 0.0714219 0.868473 
-0.207098 0.667119 -0.385787 0.637481 0.613506 -0.466079 
-0.347248 0.458708 0.314102 -0.622531 0.359158 0.695314 
0.0948995 -0.119059 0.267251 0.111163 -0.176781 0.977953 
-0.137644 -0.715764 0.482841 0.222311 -0.930041 -0.292578 
0.682826 0.0635833 -0.224746 0.623017 0.0611199 0.779817 
0.227301 -0.331852 0.177823 -0.749029 0.203563 0.63049 
0.731733 -0.434193 0.504202 0.43859 -0.556261 0.705841 
-0.66228 0.578293 -0.478468 0.79921 -0.124164 -0.588087 
0.496714 -0.575889 -0.506865 0.554117 -0.818009 0.154324 
0.495003 -0.783325 0.697117 0.161932 -0.869227 0.467142 
0.277449 -0.441228 -0.609782 0.393767 -0.270216 -0.878596 
0.332186 0.320894 0.194727 -0.00315041 0.309183 -0.950997 
0.429475 -0.358246 -0.67353 0.85804 0.107365 -0.502235 
0.0680839 -0.260669 -0.547931 0.460734 -0.205014 -0.863535 
-0.76454 0.077053 0.366322 -0.990975 -0.0340388 0.129653 
0.408643 0.367272 0.0475138 -0.671862 0.717439 0.184071 
-0.632653 0.846899 0.0531488 -0.293924 0.80709 0.512068 
-0.356591 -0.0705391 0.649085 -0.888766 0.229144 0.396973 
0.655241 -0.243042 -0.24226 0.7768 -0.297794 0.554888 
0.143235 -0.324385 -0.563743 0.396391 -0.191891 -0.897804 
0.0820724 -0.432675 -0.495249 0.406368 -0.246501 -0.879831 
0.568209 -0.495528 -0.541881 0.775791 -0.567594 0.275657 
0.578414 -0.583485 0.658261 0.315401 -0.312887 0.895893 
-0.533749 0.481473 -0.468871 0.7809 -0.111467 -0.61463 
-0.677401 0.905033 -0.132307 0.170683 0.967011 0.189094 
-0.843381 0.662176 -0.531611 0.24235 0.121751 -0.962519 
0.339386 0.252049 -0.504553 0.82573 0.290218 -0.483677 
-0.592053 -0.278657 -0.058245 -0.0582348 -0.671923 -0.738328 
-0.209725 0.756257 -0.282165 0.39629 0.885423 -0.242859 
-0.786279 0.901368 -0.371527 0.0983324 0.855276 -0.508757 
-0.170631 -0.328014 0.715501 -0.876576 0.120922 0.465824 
0.137855 -0.672454 0.170008 -0.407802 0.459933 -0.788771 
0.0517362 -0.0384428 0.459322 0.28193 0.384301 0.879107 
0.743596 -0.186417 0.340537 0.082111 0.134529 0.987502 
-0.0433929 -0.0268851 0.568494 -0.159838 0.493022 0.855208 
-0.752249 -0.116035 -0.140564 0.0165578 -0.796767 -0.604059 
0.154349 0.172006 0.0409541 -0.987242 0.116314 -0.108737 
-0.072799 0.659718 0.213003 -0.54961 0.325931 0.769219 
-0.751553 0.395424 -0.453248 0.762298 -0.234836 -0.60312 
0.0684071 0.0622738 0.0856319 -0.647734 -0.194895 0.736516 
-0.0949775 0.808453 0.00463435 -0.0970275 0.950299 0.295834 
0.688231 -0.0299074 -0.527559 0.956684 0.255114 0.140258 
0.186974 0.126547 -0.565942 0.732762 0.116137 -0.670501 
-0.0638209 0.455817 0.204524 -0.511504 0.0415594 0.858275 
0.108622 0.0426076 0.139888 -0.535141 -0.446864 -0.716894 
0.320388 0.370682 0.177709 -0.559163 -0.46246 -0.68809 
0.769875 -0.77028 0.28961 0.878196 -0.281698 0.386548 
-0.808724 0.729968 -0.440417 -0.732481 0.162473 -0.661116 
-0.194808 0.51544 -0.453499 0.75396 0.20534 -0.624003 
0.691816 -0.157651 -0.270865 0.608464 -0.504484 0.612591 
0.802649 -0.506328 0.455754 -0.338017 -0.406221 0.848958 
0.0523787 0.621919 0.192783 -0.531436 0.223213 0.817161 
0.206771 -0.307581 0.189823 -0.873015 -0.48431 -0.057341 
-0.881731 0.112865 0.305039 -0.93915 -0.149679 0.309182 
0.732163 -0.02626 -0.198308 0.769204 0.306314 0.560799 
0.169188 -0.586195 0.389937 0.363153 -0.923568 -0.123055 
0.198204 0.149625 0.375093 -0.865546 0.454772 0.209793 
0.206524 -0.307779 0.189271 0.862501 0.482911 0.151293 
0.208638 -0.311409 0.188676 -0.360346 -0.0467182 0.931648 
0.344807 0.471258 0.252991 -0.289407 0.910946 -0.293975 
-0.108591 0.545445 0.208263 -0.639595 0.014592 0.768573 
-0.240057 -0.346012 -0.377189 0.188589 -0.433858 -0.881023 
0.698708 0.453275 0.400561 -0.371437 0.730687 0.572827 
-0.838044 0.625025 -0.391487 -0.629906 0.30582 -0.713928 
0.342117 -0.75986 0.321917 -0.621637 -0.353988 -0.698756 
0.093342 -0.10502 0.396515 0.526877 0.255309 0.81069 
0.661197 -0.583655 -0.0444212 0.514568 -0.817491 0.258704 
-0.327675 -0.58086 0.471451 -0.534624 -0.669304 -0.515954 
0.565485 0.0942387 -0.512669 0.815919 0.5268 -0.238238 
0.557321 0.614064 -0.1699 0.44541 0.872403 0.201302 
0.301078 -0.678537 0.315993 -0.128664 -0.826767 -0.547632 
0.218725 -0.182679 0.34579 -0.869817 0.226696 -0.438209 
0.129453 -0.231185 0.40509 0.531147 0.386185 0.754151 
-0.167921 0.317482 -0.495568 0.659811 0.10827 -0.743591 
0.220677 0.20472 0.0912875 0.886901 -0.439309 0.142876 
0.287289 0.273927 0.179475 -0.235156 0.746103 -0.622922 
0.257107 0.263384 0.151845 -0.681977 0.414821 -0.602355 
0.184924 -0.200269 0.204808 -0.921662 0.386767 -0.0308408 
0.0518213 0.272483 -0.524252 0.728902 0.30537 -0.612741 
0.0874811 -0.645503 0.348607 0.173406 -0.9783 0.1134 
-0.0295203 0.7602 0.100745 -0.173631 0.858474 0.482571 
0.810099 0.118412 0.369696 0.453165 0.56272 0.691366 
0.100753 0.105317 0.0614299 -0.568165 0.752788 0.332414 
-0.608343 0.875127 -0.228293 0.400814 0.914173 0.060303 
-0.00462454 0.308888 0.176037 -0.320691 0.00427974 0.947174 
-1.02665 0.0575046 0.220989 -0.845775 -0.469971 -0.252572 
-0.310521 -0.255266 0.676394 -0.974912 -0.0978426 0.199935 
-0.474051 -0.380992 -0.0829261 -0.137976 -0.640025 -0.755865 
-0.788644 -0.0143863 0.332156 -0.957776 -0.286987 -0.0174 
0.459661 -0.60109 0.858198 -0.527388 0.161873 0.834062 
-0.839817 0.682226 -0.10998 -0.548666 0.259155 -0.794861 
0.135047 0.0752825 0.32043 -0.848593 0.111756 -0.517107 
0.408932 -0.753326 0.80289 -0.544126 -0.770003 0.3332 
-0.964069 0.188961 -0.346285 -0.325927 -0.0920374 -0.940904 
-0.127042 0.010077 0.597952 -0.357632 0.488722 0.79577 
0.0165441 0.115088 0.353083 0.316202 0.515966 0.796112 
0.809305 -0.0329382 0.114021 0.77044 -0.0149643 0.637337 
-0.038569 0.139083 0.419342 0.0404959 0.566608 0.822991 
0.273457 0.295653 0.110854 -0.0973107 0.126155 0.987226 
0.143227 0.0352994 0.171845 0.105808 -0.876071 -0.47043 
0.318991 -0.899322 -0.2582 0.35885 -0.930828 0.0691755 
-0.0841918 0.167643 -0.517109 0.630156 0.00496811 -0.776452 
0.690721 -0.275034 0.44609 -0.338966 0.679298 0.650889 
0.520494 -0.741737 0.626186 0.541209 -0.766148 0.346569 
0.0448516 -0.509261 0.761599 -0.770203 0.201952 0.604982 
0.740788 -0.093953 -0.409502 0.69172 -0.224128 0.686506 
-0.810076 0.810865 -0.448918 -0.365152 0.408559 -0.836507 
0.757335 0.432919 -0.000898421 0.645675 0.292572 0.705341 
-0.381357 0.0943253 0.576017 -0.766029 0.500343 0.403555 
0.741215 -0.148091 0.439962 -0.050077 -0.824227 0.564041 
-0.424817 0.206339 0.482471 -0.792591 0.499904 0.349136 
-0.177744 -0.484989 -0.34978 0.125278 -0.470439 -0.873495 
0.215302 -0.762485 0.574769 0.0382529 -0.979188 -0.199315 
-0.32406 0.760619 -0.300408 0.537656 0.811292 -0.229634 
-0.323196 0.211445 -0.466046 0.620616 -0.0237767 -0.783754 
0.727988 0.463548 0.167648 0.433534 0.674157 0.597963 
-0.17592 -0.651977 -0.136489 -0.153528 -0.676168 -0.720573 
0.250063 -0.403652 0.600669 0.226555 0.972654 0.0511632 
0.391565 -0.740727 0.492089 -0.106716 -0.992315 -0.0626239 
0.256714 -0.088108 0.332984 -0.927562 -0.256756 -0.271486 
0.256144 -0.453643 0.499399 0.00862796 0.971499 0.236885 
0.781453 -0.285852 0.624425 -0.0196859 0.0904117 0.99571 
0.677393 0.500011 0.128624 0.222517 0.934253 0.278669 
0.0874883 0.00509638 0.0403595 -0.64587 0.121895 0.753654 
0.714708 0.112939 -0.423409 0.975081 -0.0935132 0.201178 
0.707063 -0.468065 0.483731 -0.0225059 -0.679987 0.732878 
-0.0167171 -0.785424 -0.149222 -0.343097 -0.777577 -0.526933 
0.265718 -0.539108 0.825037 -0.855638 0.2791 0.435875 
0.176937 0.19543 0.0810548 -0.953084 0.265132 -0.146068 
0.116877 0.0658407 0.0573173 0.409032 -0.77052 -0.488869 
-0.9141 0.189253 -0.373446 0.56437 -0.409611 -0.716733 
0.569997 0.448865 0.36456 -0.670623 0.686655 0.280659 
0.76558 -0.24014 0.590697 0.494727 0.649101 0.577852 
0.57753 -0.262603 0.683732 -0.609894 0.495006 0.618869 
0.0859252 0.344258 0.134269 -0.49582 -0.31426 0.80957 
-0.488232 -0.446502 0.226688 -0.404912 -0.768312 -0.495724 
-0.295211 0.581822 0.287664 -0.566909 0.197974 0.799638 
0.741908 -0.848479 0.360819 0.556977 -0.728516 0.3988 
-0.660895 0.887285 -0.0323333 -0.0334764 0.9433 0.33025 
0.349057 -0.396988 0.776658 -0.704984 0.635249 0.315367 
0.0431062 -0.295271 0.662677 -0.17693 0.264254 0.948085 
0.709426 -0.290069 0.461164 0.909941 0.410576 0.0586124 
0.658219 -0.168997 0.413848 -0.329334 -0.944212 0.00188149 
0.709431 0.434252 -0.165255 0.686768 0.564943 0.457373 
-0.266174 -0.529473 0.705806 -0.97962 -0.198144 -0.0329301 
-0.758431 0.828665 0.126319 -0.621189 0.68807 0.375079 
-0.512894 0.6319 -0.469344 0.832619 0.211936 -0.511692 
0.704223 -0.292288 0.457942 -0.607023 0.68758 0.398442 
0.309266 -0.89741 -0.0160872 -0.145943 -0.989292 0.00160516 
-0.986649 0.142129 -0.107936 -0.59173 0.364052 -0.719251 
0.28445 0.418629 0.198566 -0.491955 0.138393 -0.859551 
0.247632 0.293277 0.119901 -0.866912 0.062096 0.494579 
-0.876991 0.033211 0.287631 -0.929519 -0.335666 0.152717 
0.656959 -0.168354 0.409884 -0.106667 -0.902855 -0.416503 
0.14212 -0.722714 0.688516 -0.419414 -0.905728 0.0612234 
0.699054 0.198271 0.353994 -0.139121 0.0844435 0.986668 
0.512145 -0.397293 -0.647922 0.990809 0.0508959 -0.125331 
0.390477 0.15414 0.425038 -0.732857 0.485114 0.477059 
0.315017 0.407761 0.104352 0.579778 0.231179 -0.78129 
0.0223245 0.10079 0.141789 0.326041 0.174107 0.929185 
0.776641 0.204763 -0.287009 0.639351 -0.0237341 0.768549 
-0.966724 0.234557 -0.382472 -0.31876 -0.0102455 -0.94778 
-0.795051 0.906706 0.0413524 -0.589658 0.76806 -0.249773 
-0.0253403 -0.633312 0.258004 -0.244576 -0.967696 -0.0612134 
0.734215 0.0755882 -0.0664763 0.72932 0.552449 0.403599 
0.0456237 -0.830374 -0.227264 -0.293709 -0.760697 -0.578857 
-0.8234 -0.0259419 -0.225602 0.229679 -0.736367 -0.636405 
0.923334 -0.374024 0.386477 0.286524 0.0709949 0.955439 
0.198209 -0.0550297 0.313458 -0.570754 -0.678649 -0.462251 
-0.438459 -0.0983293 0.615511 -0.984761 0.0309964 0.171128 
0.762813 0.122547 -0.343114 0.720046 -0.281068 0.634456 
0.38772 0.646009 -0.0578565 0.0889506 0.877407 0.471428 
0.294115 0.591405 -0.34416 0.674148 0.699533 -0.237018 
0.266534 0.387738 0.284178 -0.703403 0.42803 -0.567463 
0.48496 -0.474976 -0.640407 0.852996 -0.464879 -0.237246 
0.622539 -0.905312 0.288914 0.33762 -0.917511 0.210207 
0.592049 -0.0413722 -0.608789 0.89632 0.247997 -0.367569 
-0.0451465 0.588881 0.219819 -0.698295 0.00947825 0.715747 
0.472172 0.360158 -0.456848 0.774524 0.339393 -0.533783 
-0.0164184 -0.761552 0.0335709 -0.518549 -0.834121 -0.188016 
-0.0481865 -0.744092 -0.202152 -0.233846 -0.672404 -0.702274 
-0.216475 0.669552 0.233841 -0.572846 0.132511 0.808881 
0.345287 -0.492677 -0.618456 0.445714 -0.519665 -0.728894 
0.700957 0.0449239 -0.457717 0.922093 0.25867 0.287809 
0.260925 0.338103 0.329617 -0.86234 0.165789 -0.478418 
-0.906512 0.537527 0.295927 -0.897351 0.423674 -0.123538 
-0.220238 -0.118133 0.679813 -0.717427 0.300009 0.628723 
-1.04125 0.0438672 -0.164765 -0.409576 -0.0658789 -0.909894 
0.439253 -0.122843 0.420211 -0.855956 -0.329573 0.398397 
0.633547 -0.623704 0.100779 0.792705 -0.516943 0.323092 
-0.210019 0.735936 0.227361 -0.481505 0.523924 0.702607 
-0.999535 0.11124 0.0407355 -0.551015 0.326115 -0.768135 
-0.00319237 -0.717991 0.551365 0.178532 -0.976265 -0.12261 
-0.829973 0.729317 0.190021 -0.786226 0.603859 -0.131162 
-0.0155134 -0.216063 0.65827 -0.222994 0.418118 0.880597 
0.321855 -0.589145 -0.520456 0.584435 -0.63444 -0.505888 
0.599779 0.503744 0.034308 -0.274428 0.936728 0.217325 
0.486281 -0.740148 -0.181618 0.903704 -0.309694 0.295651 
-0.960669 0.0406827 0.242414 -0.829388 -0.551386 0.0899412 
0.394653 0.0675645 -0.558929 0.765116 0.278143 -0.580719 
0.0753653 -0.336329 0.633808 -0.0832049 0.460318 0.883846 
0.726511 0.364701 -0.287859 0.679865 0.620027 0.391598 
0.861506 -0.337738 0.432085 -0.400297 0.310957 0.862014 
0.570911 -0.616788 -0.0436955 0.768283 -0.42111 0.482087 
0.698378 0.132985 -0.114251 0.421142 -0.382419 0.822432 
0.667694 -0.860564 0.449134 -0.296543 -0.80862 0.50813 
-0.592436 -0.183281 -0.177452 0.0925955 -0.66099 -0.74466 
0.707833 -0.570956 0.400733 -0.258509 -0.178648 0.949346 
0.608562 -0.0929406 0.485601 -0.813641 -0.509937 0.279199 
-0.316189 -0.536016 -0.107079 -0.172301 -0.667005 -0.724856 
0.0816014 -0.826502 -0.33613 -0.0462041 -0.690355 -0.721994 
-0.0513928 -0.566097 -0.3988 0.215862 -0.417059 -0.882873 
-0.361383 0.849331 0.0191832 -0.144119 0.967684 0.206926 
0.234785 -0.915688 -0.178361 -0.0442666 -0.993252 -0.107199 
0.731699 -0.116912 -0.134923 0.698808 -0.410745 0.585625 
-0.723698 0.0365229 -0.313184 0.450586 -0.556666 -0.697922 
0.0529457 0.738803 -0.288068 0.550754 0.80702 -0.213047 
0.0278357 0.795438 -0.185845 0.335344 0.938207 -0.0855116 
0.836925 -0.0193408 0.37051 0.654697 -0.074149 0.752246 
-0.273955 -0.601138 0.345777 -0.0994681 -0.890453 -0.444071 
0.724796 -0.0809999 -0.4813 0.906501 -0.110901 0.407378 
0.403885 -0.621859 -0.449813 0.634799 -0.766843 0.0947674 
-0.92449 0.396082 -0.0868459 -0.594785 0.242813 -0.766337 
-0.00493187 0.391761 -0.481598 0.730517 0.269417 -0.627502 
0.393703 -0.17389 0.433672 -0.784098 0.260089 0.563511 
0.00093402 -0.692886 0.172095 -0.587174 -0.80753 0.055881 
0.168011 0.0491242 0.386117 -0.998539 0.0539999 0.00209122 
-0.309161 -0.151268 -0.422608 0.461187 -0.241995 -0.853665 
0.414069 -0.663098 0.857863 -0.751784 -0.263748 0.604365 
0.117335 -0.698605 0.227783 -0.0229991 -0.874843 0.48386 
0.669226 -0.708112 0.106745 0.935667 0.0935172 0.340268 
0.357125 0.607838 0.0384084 -0.172885 0.647115 0.742531 
0.255203 0.26694 0.197167 -0.330525 0.407303 -0.851385 
-0.772188 -0.141126 0.250022 -0.654039 -0.638394 -0.405816 
-0.444543 0.850644 -0.157596 0.279466 0.960062 0.0133841 
0.346053 0.308208 0.38725 -0.941187 0.0364144 0.335917 
0.335557 -0.902216 0.0449616 0.00872071 -0.987137 -0.15964 
0.109064 -0.198299 0.269066 0.572976 0.300057 0.762669 
0.652222 -0.0933057 -0.573156 0.971213 -0.238156 0.00519001 
-0.713331 -0.214159 0.0107038 -0.262444 -0.705845 -0.657956 
0.263424 -0.62216 -0.49853 0.703613 -0.357108 -0.614331 
0.537451 -0.721259 0.692069 0.4625 -0.407258 0.787549 
-0.130196 0.790617 0.115626 -0.145645 0.897043 0.417254 
0.230697 -0.657235 0.431961 0.14152 -0.80793 -0.572032 
0.169213 0.155624 0.03984 -0.00120378 0.973058 -0.230559 
0.312106 -0.416293 0.45425 -0.760586 0.639263 0.113362 
0.432171 0.552625 -0.316697 0.599163 0.79793 0.0656606 
0.501902 -0.129473 -0.60476 0.800328 0.0485824 -0.597591 
-0.771401 0.925489 -0.276338 0.122029 0.991733 -0.039676 
0.416301 0.408649 0.0426893 -0.691525 0.420135 -0.587605 
0.428977 -0.302936 0.495708 0.413245 0.472096 -0.778687 
0.596544 -0.212638 0.565846 -0.0184565 0.942352 -0.334113 
0.1021 0.113799 -0.00434481 -0.573413 -0.0616322 0.816945 
0.616726 0.207868 0.385918 -0.712961 0.0132396 0.701079 
0.614716 0.508194 0.150299 -0.0518401 0.991013 -0.123311 
-0.343973 0.240972 0.477614 -0.656575 0.585702 0.475251 
0.670051 0.327072 0.448858 -0.772057 0.0805186 0.630432 
-0.659402 0.669996 -0.472232 0.865214 0.261416 -0.427863 
0.718574 0.255695 0.41749 -0.390055 -0.518762 0.760752 
0.636269 0.121051 -0.473397 0.923647 0.15133 -0.352102 
0.652011 -0.798648 0.107999 0.820235 -0.489269 0.296362 
0.263285 0.220699 0.141539 -0.675158 0.0330621 -0.736932 
-0.224692 -0.612261 0.69671 -0.815615 -0.568184 0.109266 
-0.252815 -0.634118 0.0426482 -0.363267 -0.806616 -0.46627 
0.218659 -0.866938 0.0530856 -0.397337 -0.903661 -0.15975 
-0.240472 0.406217 0.311233 -0.293509 0.541477 0.787817 
0.258421 -0.0914243 -0.566976 0.659605 0.114213 -0.742884 
0.558209 -0.869496 0.081197 0.53699 -0.819536 0.200005 
-0.786824 0.841438 -0.207197 -0.591824 0.148256 -0.792316 
0.796831 -0.0594293 0.487264 -0.211277 -0.22585 0.950975 
0.491483 0.418662 0.0926046 -0.854138 0.490387 -0.173115 
0.314821 -0.0313749 -0.580786 0.693966 0.0684617 -0.716746 
0.797133 -0.672428 0.379856 0.562779 0.423531 0.709861 
-0.737124 0.420274 0.334866 -0.819643 0.191631 0.539873 
0.434919 0.640652 -0.165915 0.494131 0.832029 0.252115 
0.698613 -0.231103 -0.118154 0.819478 -0.155482 0.551617 
0.0875176 -0.824458 -0.0261062 -0.375756 -0.878357 0.29546 
0.0838386 -0.174994 0.50512 0.305296 0.358552 0.882176 
0.748236 -0.518776 -0.00281954 0.702576 -0.613186 0.361095 
0.771529 0.308243 0.379951 0.342598 -0.269607 0.899966 
0.568699 -0.637354 0.564866 0.561576 -0.561789 0.607475 
-0.885436 0.481066 -0.500503 0.173937 -0.0383139 -0.984011 
0.322889 -0.649096 0.212173 -0.816097 -0.563658 -0.127573 
-0.183117 0.588357 -0.431217 0.739771 0.397255 -0.543072 
0.00208119 -0.564005 0.75479 -0.878282 -0.168242 0.447567 
0.621986 -0.4908 -0.347452 0.680538 -0.551987 0.48185 
-0.0642272 -0.245177 0.694806 -0.479615 0.348211 0.80543 
0.632742 0.446768 -0.296205 0.606488 0.779622 0.156084 
-1.03232 0.00854546 0.12298 -0.662293 -0.63015 -0.405314 
0.549093 -0.304457 -0.527755 0.913395 -0.0487007 0.404152 
-0.523224 -0.323276 0.462869 -0.910421 -0.375748 -0.173054 
-0.414995 0.326167 -0.453273 0.674602 -0.023993 -0.737792 
0.578547 -0.311907 -0.449428 0.822731 -0.0698512 0.564122 
-0.547291 0.851677 0.0167837 -0.258889 0.917532 0.301846 
-0.288031 -0.457607 -0.256837 0.00119338 -0.550663 -0.834727 
0.207361 -0.410863 0.493785 0.104234 0.981393 0.161256 
0.768376 0.267953 -0.0958478 0.659234 0.00733123 0.751902 
0.478672 0.544201 -0.254398 0.662313 0.749203 -0.0060601 
0.419378 -0.542074 -0.596891 0.54551 -0.72774 -0.415708 
0.452175 -0.858507 0.435344 -0.758132 -0.650685 -0.0429557 
0.634778 0.323449 -0.471822 0.833227 0.361078 -0.418755 
0.249544 0.240812 0.22773 -0.544923 0.429023 -0.720415 
0.225679 -0.450304 0.40328 0.0948975 0.894154 0.437587 
0.206293 0.655633 0.085402 -0.172946 0.659422 0.731609 
-0.910419 0.380198 -0.446785 0.282148 -0.200408 -0.938205 
0.372507 -0.450645 0.494697 -0.661383 0.731856 -0.164197 
-0.820242 0.635363 0.273438 -0.687804 0.535271 0.490317 
0.503621 -0.849954 0.4668 -0.691169 -0.606167 0.393506 
-0.337329 0.442041 -0.458139 0.730133 0.0919961 -0.677083 
-0.0467909 -0.683536 -0.301594 -0.052574 -0.553913 -0.830913 
0.730839 -0.234501 0.405893 -0.343593 0.556422 0.756531 
0.287911 -0.391669 0.630434 -0.269938 0.759663 -0.591646 
0.248932 -0.250069 0.398774 -0.969888 -0.219105 -0.106347 
0.45834 0.613686 -0.171792 0.511431 0.855621 0.0796878 
0.455339 -0.894753 0.0131956 0.252007 -0.966601 0.0466284 
0.146739 -0.31209 0.523501 0.313017 0.271889 0.909998 
0.706437 -0.215637 0.0263458 0.832916 0.0360837 0.552221 
-0.185345 0.823752 -0.106302 0.25735 0.963323 -0.0760268 
0.737713 0.201645 -0.428183 0.987224 -0.0488579 0.151664 
0.23696 -0.852635 0.168779 -0.862512 -0.505225 -0.0286517 
0.202047 -0.419642 0.267815 0.223305 0.725493 0.650996 
0.111805 -0.76263 0.0875394 -0.416033 -0.879372 0.231564 
0.490196 -0.286893 -0.615953 0.993983 0.108153 0.0173592 
0.199567 0.347809 -0.492085 0.765886 0.316609 -0.559623 
0.268547 -0.738628 -0.471928 0.770033 -0.367562 -0.521486 
0.70246 -0.117155 0.490455 -0.546767 -0.649822 0.527994 
0.544449 -0.172688 -0.594845 0.941086 -0.149651 -0.303253 
0.384512 -0.900886 -0.087698 0.105999 -0.991074 0.0808506 
-0.470325 0.364431 0.383879 -0.667985 0.523627 0.528782 
0.780914 -0.345882 0.584569 0.342643 -0.435936 0.832199 
0.497569 -0.653948 0.832147 -0.0330385 -0.269915 0.962317 
0.248787 -0.657649 0.204839 -0.696042 -0.716114 0.0520123 
0.219846 -0.169063 -0.584317 0.646788 0.228027 -0.727783 
0.278952 0.349107 0.241501 -0.255731 0.126274 -0.958466 
0.379736 -0.757888 -0.381157 0.910909 -0.283876 0.299433 
-0.483052 -0.00114475 -0.396269 0.493193 -0.252668 -0.832418 
0.177008 -0.619842 0.168768 -0.626425 -0.164259 -0.761978 
0.291416 0.662098 -0.260491 0.610489 0.791979 -0.00849483 
0.430043 -0.38733 0.440175 -0.909448 0.353667 -0.218687 
-0.505319 0.206403 -0.431281 0.643081 -0.107355 -0.758236 
0.038112 0.795887 0.00101058 -0.0729276 0.914266 0.398496 
0.31337 -0.251056 -0.624062 0.621725 0.226038 -0.74991 
-0.0100079 -0.650657 0.723137 -0.785374 -0.509369 0.351755 
0.820843 -0.0775624 0.445525 0.351014 -0.426101 0.833803 
0.810985 -0.346157 0.0323811 0.856432 0.217013 0.468434 
-0.737963 0.533979 -0.477171 0.846268 -0.215897 -0.487051 
0.846792 -0.28622 0.409789 -0.157091 0.606589 0.779341 
0.149987 0.675927 -0.324169 0.696025 0.669691 -0.258965 
0.322637 -0.875428 0.209548 -0.864383 -0.473752 -0.168529 
-0.42897 -0.332405 0.557147 -0.969859 -0.234635 -0.0657192 
0.538944 -0.220014 0.449025 -0.717743 0.239938 0.653663 
0.252578 0.195594 0.0847164 -0.771768 0.286894 -0.567508 
0.754821 0.139369 0.439412 -0.196043 0.754018 0.626916 
0.721513 0.317375 -0.415941 0.854182 0.486912 0.182455 
0.422296 -0.380132 0.489785 -0.017706 0.701695 -0.712257 
0.181568 -0.379927 0.372874 -0.150003 0.588836 0.794211 
0.200419 0.602609 0.135629 -0.318861 0.441156 0.838874 
0.15425 -0.846907 0.0424244 -0.675491 -0.685125 -0.272609 
0.383339 -0.295775 0.633662 -0.413144 0.844537 -0.340689 
-0.558925 -0.349012 0.367233 -0.699758 -0.600751 -0.386571 
0.388384 -0.294701 0.562331 -0.205561 0.773524 -0.599504 
0.0675725 -0.217371 0.575427 0.0693457 0.404227 0.912026 
-0.576176 -0.329771 0.0324933 -0.232373 -0.72492 -0.648455 
0.763388 -0.383027 -0.0866383 0.915608 -0.00489149 0.402042 
0.0389496 0.375474 0.178631 -0.349615 -0.196129 0.916135 
0.56385 0.50692 0.28182 -0.39465 0.911522 0.115666 
0.187373 0.381686 0.15942 -0.672685 -0.25995 0.692763 
0.858523 -0.492794 0.407608 0.171029 -0.518247 0.837955 
0.706258 0.0848045 -0.10542 0.704333 0.430394 0.564514 
0.249013 -0.665504 0.808874 -0.845736 -0.4183 0.331295 
0.22048 0.178818 -0.549267 0.776325 0.293964 -0.557588 
0.00760088 0.496134 0.212973 -0.601402 -0.0995463 0.79272 
-0.547932 -0.112318 -0.294134 0.1816 -0.572018 -0.799885 
0.0251 -0.679636 0.37394 0.135604 -0.921344 -0.364331 
0.418853 -0.88825 0.360203 -0.733734 -0.64984 -0.198349 
0.547319 0.383034 0.401597 -0.840723 0.365971 0.399062 
-0.0188053 0.236252 -0.531983 0.684465 0.1538 -0.712638 
0.251373 -0.728642 0.501838 0.422095 -0.821807 -0.382713 
0.685379 -0.695327 0.476953 -0.538791 0.214735 0.814613 
-0.500234 -0.049292 -0.369957 0.308791 -0.423047 -0.851868 
-0.906097 -0.0581421 0.106071 -0.378724 -0.876171 -0.298149 
0.608776 -0.573482 0.460083 0.0786492 -0.189595 0.978707 
-0.571327 0.508204 0.294538 -0.665038 0.443356 0.600965 
0.762354 -0.366777 0.473097 0.579263 0.157464 0.799787 
-0.842663 0.557701 0.309321 -0.785826 0.322041 0.527984 
-0.202851 -0.0137384 0.636613 -0.563142 0.433076 0.703787 
0.822758 0.0358712 0.231797 0.724613 0.192698 0.661667 
-1.03749 0.0468593 0.129749 -0.645347 0.126213 -0.753391 
0.890667 -0.310342 0.265 0.750665 0.334363 0.569827 
0.734279 0.173277 -0.0992339 0.353928 -0.611344 0.707809 
0.195336 -0.0767177 0.186079 -0.952023 -0.293661 0.0861104 
0.32581 0.383471 0.351005 -0.805165 0.564643 0.181351 
0.174101 -0.530059 -0.524559 0.46973 -0.319303 -0.823043 
0.0878968 -0.725966 0.640207 -0.156655 -0.986827 -0.0403873 
0.573311 -0.610388 -0.159048 0.579186 -0.754292 0.309171 
0.209578 -0.319449 0.193189 0.210332 0.194443 0.958098 
0.689011 -0.26791 0.682391 -0.519057 0.239736 0.820431 
0.380381 0.649499 -0.186505 0.429208 0.888817 0.16058 
-0.457076 0.404189 -0.455296 0.737814 -0.105956 -0.666636 
-0.680446 0.46237 0.328254 -0.684321 0.404671 0.606585 
0.471836 -0.823104 -0.137532 0.836898 -0.464959 0.288815 
-0.275317 -0.334665 0.681284 -0.972896 0.063099 0.222468 
-0.297676 0.0505097 0.611275 -0.716374 0.435437 0.545164 
-0.542708 0.0334598 0.532118 -0.970658 0.221208 0.0942839 
0.0396485 -0.0966753 -0.549884 0.632106 0.0477719 -0.773408 
0.359708 -0.342828 0.719481 -0.621658 0.782547 0.0340769 
0.620616 -0.438436 -0.404984 0.82668 -0.000247454 0.562673 
0.292874 -0.359197 0.350801 -0.842628 0.324303 -0.42989 
0.321574 -0.0768147 0.390927 -0.966425 -0.0244913 0.255779 
-0.824456 0.208045 0.330683 -0.935082 0.0321416 0.352971 
-0.0811375 0.742 0.162322 -0.301267 0.705788 0.641172 
0.244661 -0.466919 0.774365 -0.694187 0.690351 0.203761 
-0.146436 -0.0676696 -0.494273 0.510878 -0.140345 -0.84812 
0.0380801 0.705348 0.152165 -0.340521 0.625183 0.702276 
0.161042 -0.408179 0.462992 0.292912 0.84947 0.438865 
0.640066 -0.364719 0.694655 -0.542999 0.144897 0.827138 
0.620774 0.522087 -0.181388 0.706693 0.659603 0.255947 
0.110449 -0.452481 0.741929 -0.608179 0.577325 0.544807 
3 564 377 407 
3 159 114 615 
3 207 733 182 
3 116 219 277 
3 361 14 60 
3 250 403 451 
3 427 364 429 
3 566 415 9 
3 237 375 416 
3 692 583 690 
3 445 199 360 
3 635 307 563 
3 317 56 531 
3 494 600 227 
3 294 183 471 
3 22 34 608 
3 517 716 11 
3 124 176 251 
3 324 651 596 
3 142 696 466 
3 500 722 431 
3 735 190 501 
3 518 734 717 
3 617 196 77 
3 112 467 18 
3 685 246 533 
3 518 171 4 
3 125 722 293 
3 224 722 451 
3 100 671 730 
3 113 548 679 
3 132 103 52 
3 82 551 308 
3 402 396 614 
3 18 244 694 
3 460 414 368 
3 66 667 23 
3 104 652 739 
3 441 365 106 
3 700 386 496 
3 561 653 13 
3 36 713 457 
3 224 451 403 
3 143 101 291 
3 189 220 266 
3 607 350 228 
3 680 706 69 
3 277 571 116 
3 703 416 375 
3 249 208 25 
3 364 427 88 
3 425 136 462 
3 487 684 95 
3 209 62 684 
3 736 664 598 
3 723 391 295 
3 747 453 49 
3 270 296 134 
3 11 33 517 
3 637 577 96 
3 33 8 517 
3 442 282 660 
3 444 110 450 
3 561 363 668 
3 229 19 738 
3 682 556 193 
3 163 241 91 
3 119 404 140 
3 367 116 301 
3 70 597 6 
3 208 272 25 
3 440 442 587 
3 366 279 526 
3 718 428 550 
3 687 216 627 
3 623 405 640 
3 197 240 695 
3 138 49 297 
3 477 146 494 
3 655 358 268 
3 633 593 408 
3 586 40 249 
3 110 127 341 
3 28 226 634 
3 359 301 571 
3 26 666 529 
3 726 535 398 
3 145 558 388 
3 320 407 408 
3 676 254 197 
3 58 66 547 
3 574 412 742 
3 54 133 565 
3 184 668 204 
3 70 660 333 
3 352 345 108 
3 133 691 565 
3 581 189 602 
3 479 212 434 
3 33 11 177 
3 693 526 279 
3 148 436 749 
3 448 259 626 
3 597 429 6 
3 75 174 256 
3 39 348 101 
3 501 190 349 
3 281 554 164 
3 81 683 576 
3 48 159 199 
3 295 391 40 
3 441 485 474 
3 71 720 676 
3 410 702 655 
3 459 560 148 
3 240 607 228 
3 665 482 505 
3 542 497 22 
3 666 37 278 
3 76 584 466 
3 220 688 635 
3 227 269 494 
3 662 560 421 
3 168 511 458 
3 414 722 371 
3 529 666 732 
3 149 216 156 
3 61 656 151 
3 620 712 51 
3 483 125 293 
3 520 298 130 
3 220 563 266 
3 586 249 528 
3 75 256 688 
3 13 608 34 
3 326 134 582 
3 450 52 639 
3 675 601 65 
3 451 722 500 
3 462 263 370 
3 505 482 391 
3 705 495 251 
3 59 39 101 
3 741 187 346 
3 749 743 459 
3 290 117 496 
3 643 692 690 
3 116 571 301 
3 94 102 468 
3 401 629 72 
3 64 502 721 
3 525 638 517 
3 174 191 391 
3 397 609 364 
3 645 401 318 
3 226 686 452 
3 268 504 78 
3 640 114 730 
3 660 292 333 
3 262 32 519 
3 289 165 674 
3 234 68 433 
3 85 225 201 
3 413 718 65 
3 646 568 152 
3 212 715 473 
3 247 513 468 
3 10 387 411 
3 619 629 578 
3 14 198 60 
3 150 188 543 
3 331 390 727 
3 284 721 502 
3 48 478 159 
3 695 229 80 
3 232 162 54 
3 290 173 117 
3 126 604 539 
3 342 351 724 
3 272 391 191 
3 673 664 175 
3 545 153 22 
3 443 626 259 
3 341 424 252 
3 392 509 703 
3 640 555 380 
3 308 495 557 
3 598 68 736 
3 395 164 122 
3 411 387 299 
3 412 745 742 
3 476 594 135 
3 727 337 652 
3 371 722 455 
3 114 380 615 
3 323 614 396 
3 93 399 112 
3 196 617 340 
3 692 271 582 
3 472 171 618 
3 657 485 540 
3 343 377 564 
3 53 449 643 
3 469 592 599 
3 1 451 500 
3 480 568 659 
3 318 266 503 
3 704 538 141 
3 98 743 749 
3 654 621 35 
3 103 537 639 
3 532 280 98 
3 685 619 236 
3 353 340 617 
3 531 107 317 
3 30 432 84 
3 383 745 688 
3 530 484 54 
3 744 736 211 
3 236 321 202 
3 397 569 404 
3 24 361 227 
3 567 707 147 
3 256 698 129 
3 328 507 265 
3 669 504 578 
3 62 95 684 
3 119 687 647 
3 13 653 314 
3 165 289 486 
3 605 11 716 
3 56 591 358 
3 562 378 223 
3 374 702 708 
3 577 637 28 
3 370 339 677 
3 83 323 396 
3 141 711 704 
3 1 298 451 
3 103 155 27 
3 572 724 31 
3 369 745 383 
3 473 120 434 
3 40 74 394 
3 624 97 621 
3 590 147 588 
3 222 195 737 
3 285 541 244 
3 484 385 346 
3 300 738 624 
3 28 634 577 
3 191 186 272 
3 544 42 287 
3 128 469 109 
3 151 153 61 
3 199 445 9 
3 257 357 589 
3 139 32 136 
3 695 676 197 
3 170 475 312 
3 414 178 584 
3 458 285 595 
3 351 175 345 
3 149 156 88 
3 449 98 280 
3 115 399 93 
3 87 416 142 
3 706 680 83 
3 278 37 656 
3 745 369 742 
3 715 270 473 
3 588 394 218 
3 477 348 39 
3 276 637 670 
3 139 136 425 
3 675 365 441 
3 408 593 81 
3 553 527 37 
3 511 34 458 
3 272 40 391 
3 147 590 585 
3 187 245 735 
3 394 697 40 
3 341 127 424 
3 160 33 90 
3 73 651 214 
3 705 251 167 
3 484 346 420 
3 507 328 275 
3 41 110 444 
3 711 559 667 
3 541 448 626 
3 63 313 290 
3 65 718 550 
3 256 129 383 
3 374 68 603 
3 379 438 24 
3 499 534 678 
3 96 670 637 
3 489 388 169 
3 555 410 655 
3 415 566 356 
3 63 611 313 
3 200 219 367 
3 355 730 114 
3 411 495 705 
3 70 333 597 
3 515 400 508 
3 413 209 684 
3 182 436 46 
3 680 69 651 
3 645 629 401 
3 663 668 264 
3 126 223 604 
3 206 631 83 
3 498 367 58 
3 586 309 454 
3 727 337 331 
3 262 51 200 
3 67 439 628 
3 703 696 416 
3 259 641 443 
3 183 743 471 
3 574 522 304 
3 502 492 246 
3 676 163 254 
3 243 9 445 
3 172 344 654 
3 216 491 455 
3 585 487 95 
3 29 641 542 
3 142 584 178 
3 297 662 421 
3 733 362 182 
3 576 194 81 
3 581 602 347 
3 730 263 100 
3 370 613 636 
3 1 558 298 
3 717 734 288 
3 174 698 256 
3 458 512 448 
3 264 180 663 
3 629 619 72 
3 395 122 613 
3 210 62 231 
3 562 521 535 
3 472 618 526 
3 279 609 693 
3 19 624 738 
3 643 690 53 
3 97 35 621 
3 115 135 594 
3 440 288 734 
3 362 171 182 
3 315 545 22 
3 173 64 721 
3 723 463 707 
3 412 327 745 
3 435 573 612 
3 461 431 406 
3 267 126 539 
3 128 604 223 
3 434 120 326 
3 686 271 213 
3 14 257 198 
3 407 665 564 
3 249 189 266 
3 177 161 741 
3 148 749 459 
3 543 44 443 
3 401 170 238 
3 534 715 434 
3 179 157 305 
3 281 422 554 
3 396 402 206 
3 200 367 262 
3 123 95 62 
3 92 585 489 
3 68 598 603 
3 356 566 42 
3 112 79 467 
3 404 609 397 
3 270 479 473 
3 204 561 668 
3 665 377 482 
3 398 610 77 
3 681 418 166 
3 626 141 322 
3 451 740 250 
3 292 59 143 
3 551 124 308 
3 544 287 574 
3 61 30 278 
3 280 746 627 
3 274 96 739 
3 198 199 60 
3 497 458 34 
3 321 504 202 
3 157 635 327 
3 8 422 146 
3 116 367 219 
3 195 453 728 
3 528 238 309 
3 160 258 33 
3 454 309 447 
3 15 35 97 
3 63 684 487 
3 643 271 692 
3 676 695 71 
3 145 210 298 
3 499 330 720 
3 321 236 619 
3 415 60 9 
3 620 51 719 
3 87 491 149 
3 174 377 320 
3 252 560 662 
3 108 188 352 
3 740 451 298 
3 395 357 379 
3 456 502 650 
3 337 739 652 
3 440 734 349 
3 171 362 4 
3 639 52 103 
3 430 174 320 
3 221 576 633 
3 737 465 471 
3 633 169 221 
3 7 154 437 
3 663 614 214 
3 104 722 652 
3 473 434 212 
3 394 74 302 
3 230 26 553 
3 618 518 717 
3 589 339 478 
3 325 632 510 
3 545 315 480 
3 539 457 382 
3 462 100 263 
3 687 627 746 
3 444 10 167 
3 748 475 170 
3 58 367 538 
3 369 509 513 
3 282 442 245 
3 736 234 211 
3 335 176 124 
3 667 66 711 
3 660 587 442 
3 585 92 147 
3 452 627 216 
3 724 527 514 
3 532 171 472 
3 628 439 255 
3 288 587 70 
3 52 612 132 
3 280 627 449 
3 26 230 666 
3 554 8 258 
3 528 309 586 
3 287 649 305 
3 302 74 447 
3 716 638 731 
3 75 688 220 
3 222 690 583 
3 54 162 530 
3 737 690 222 
3 721 284 536 
3 400 56 317 
3 739 634 104 
3 731 605 716 
3 667 211 23 
3 501 349 418 
3 657 441 106 
3 336 700 536 
3 351 345 352 
3 504 669 679 
3 672 372 305 
3 253 112 691 
3 221 376 461 
3 399 306 112 
3 183 138 421 
3 272 43 25 
3 515 508 373 
3 634 216 104 
3 500 431 1 
3 91 261 648 
3 516 723 567 
3 545 215 432 
3 31 724 150 
3 391 723 505 
3 647 280 532 
3 146 3 494 
3 167 725 444 
3 28 686 226 
3 572 37 527 
3 338 457 713 
3 457 715 382 
3 314 315 608 
3 247 468 333 
3 472 647 532 
3 57 398 521 
3 339 355 478 
3 462 636 493 
3 162 417 530 
3 316 270 715 
3 393 443 44 
3 58 136 498 
3 414 491 178 
3 13 557 329 
3 64 173 313 
3 56 400 591 
3 308 319 82 
3 235 548 549 
3 353 617 300 
3 355 339 730 
3 577 634 739 
3 70 587 660 
3 568 69 152 
3 209 231 62 
3 88 156 364 
3 189 347 186 
3 260 408 81 
3 174 460 125 
3 111 691 18 
3 564 516 633 
3 271 643 213 
3 625 101 348 
3 29 543 641 
3 344 673 47 
3 148 560 701 
3 724 352 188 
3 540 210 231 
3 508 317 107 
3 726 77 196 
3 253 622 144 
3 305 649 549 
3 179 307 157 
3 689 314 653 
3 367 498 262 
3 694 359 571 
3 491 371 455 
3 205 276 250 
3 604 155 539 
3 602 25 43 
3 370 730 339 
3 413 290 203 
3 581 191 490 
3 633 576 260 
3 88 87 149 
3 66 89 547 
3 739 722 283 
3 661 303 453 
3 360 243 445 
3 77 229 738 
3 394 185 463 
3 194 406 430 
3 155 103 710 
3 122 636 613 
3 310 544 304 
3 31 150 543 
3 378 128 223 
3 448 512 641 
3 662 297 354 
3 60 415 361 
3 271 326 582 
3 424 560 252 
3 10 411 705 
3 614 323 73 
3 250 556 205 
3 207 182 46 
3 423 558 1 
3 21 133 85 
3 459 421 560 
3 209 601 231 
3 385 741 346 
3 562 592 378 
3 380 555 137 
3 136 32 498 
3 123 62 210 
3 343 564 408 
3 539 382 267 
3 527 724 572 
3 276 686 637 
3 217 732 592 
3 131 681 622 
3 238 528 266 
3 712 232 219 
3 294 49 138 
3 192 69 706 
3 121 0 78 
3 336 536 284 
3 554 258 160 
3 599 507 469 
3 306 50 551 
3 1 376 423 
3 327 688 745 
3 63 413 684 
3 454 74 40 
3 637 686 28 
3 275 328 192 
3 605 55 161 
3 374 531 702 
3 619 685 533 
3 644 274 233 
3 594 165 115 
3 315 22 608 
3 366 429 279 
3 386 700 336 
3 501 201 12 
3 125 460 368 
3 45 499 71 
3 260 683 408 
3 19 228 350 
3 603 311 107 
3 513 509 392 
3 641 259 448 
3 507 275 469 
3 454 447 74 
3 542 641 512 
3 77 738 617 
3 558 221 388 
3 8 554 422 
3 743 183 459 
3 211 234 446 
3 503 179 729 
3 357 339 589 
3 526 426 366 
3 442 440 190 
3 213 452 686 
3 707 463 185 
3 465 195 728 
3 646 599 432 
3 201 21 85 
3 291 101 310 
3 379 357 438 
3 330 241 163 
3 689 653 324 
3 239 197 648 
3 254 648 197 
3 99 447 439 
3 572 656 37 
3 674 165 594 
3 434 326 686 
3 174 490 105 
3 411 299 561 
3 193 106 434 
3 199 198 48 
3 588 707 185 
3 742 369 522 
3 460 722 414 
3 1 431 376 
3 494 348 477 
3 743 737 471 
3 240 19 229 
3 743 53 737 
3 369 513 522 
3 483 293 174 
3 655 268 0 
3 373 570 552 
3 26 17 196 
3 79 319 467 
3 337 722 739 
3 365 642 106 
3 295 463 723 
3 593 633 260 
3 731 282 605 
3 677 613 370 
3 397 334 569 
3 8 33 258 
3 426 288 273 
3 624 19 350 
3 432 153 545 
3 267 45 57 
3 624 350 381 
3 158 428 718 
3 553 630 527 
3 516 564 665 
3 532 749 181 
3 624 381 97 
3 596 689 324 
3 157 672 305 
3 560 424 701 
3 117 700 496 
3 91 254 163 
3 47 514 630 
3 416 87 118 
3 351 352 724 
3 310 304 291 
3 199 235 360 
3 260 81 593 
3 658 654 35 
3 413 65 209 
3 158 386 428 
3 686 326 271 
3 417 162 620 
3 691 622 253 
3 0 268 78 
3 541 419 244 
3 150 724 188 
3 457 338 715 
3 87 88 427 
3 43 347 602 
3 2 510 632 
3 36 539 713 
3 523 719 51 
3 232 565 277 
3 654 658 172 
3 546 607 261 
3 321 578 504 
3 151 656 31 
3 66 23 100 
3 269 356 470 
3 573 354 612 
3 469 275 109 
3 174 76 698 
3 683 194 408 
3 329 411 561 
3 128 155 604 
3 467 285 244 
3 674 46 616 
3 642 434 106 
3 543 188 44 
3 311 664 673 
3 288 426 717 
3 204 651 184 
3 388 221 169 
3 161 55 741 
3 31 656 572 
3 546 381 350 
3 434 715 479 
3 237 416 118 
3 574 287 372 
3 501 12 735 
3 535 726 17 
3 92 489 169 
3 420 54 484 
3 602 189 249 
3 444 725 41 
3 297 421 138 
3 130 210 540 
3 566 287 42 
3 537 275 192 
3 3 281 600 
3 67 628 64 
3 249 40 208 
3 399 50 306 
3 106 193 540 
3 60 199 9 
3 395 613 357 
3 308 251 495 
3 346 225 420 
3 420 85 133 
3 292 714 59 
3 211 446 671 
3 79 551 82 
3 468 513 94 
3 144 681 166 
3 436 181 749 
3 449 627 452 
3 465 49 294 
3 96 276 670 
3 201 225 12 
3 502 246 650 
3 529 217 17 
3 674 701 289 
3 532 98 749 
3 747 465 728 
3 510 268 358 
3 725 167 524 
3 257 14 438 
3 59 714 731 
3 89 100 462 
3 179 503 307 
3 277 111 571 
3 84 278 30 
3 552 570 15 
3 335 124 551 
3 266 528 249 
3 102 597 333 
3 555 655 0 
3 145 298 558 
3 409 224 403 
3 384 390 389 
3 734 518 349 
3 248 179 305 
3 155 713 539 
3 368 76 125 
3 661 453 316 
3 313 67 64 
3 27 155 128 
3 90 530 417 
3 548 235 86 
3 414 371 491 
3 688 256 383 
3 626 443 393 
3 115 165 20 
3 679 669 113 
3 575 10 709 
3 549 360 235 
3 369 383 509 
3 650 591 456 
3 59 101 143 
3 663 180 614 
3 462 136 547 
3 392 94 513 
3 429 364 279 
3 180 402 614 
3 703 129 466 
3 583 692 582 
3 335 524 176 
3 378 592 469 
3 633 408 564 
3 49 303 297 
3 290 496 203 
3 260 576 683 
3 719 417 620 
3 430 483 174 
3 380 114 640 
3 341 573 435 
3 448 285 458 
3 737 195 465 
3 652 722 727 
3 570 373 508 
3 252 662 341 
3 645 606 629 
3 312 255 439 
3 146 477 525 
3 265 599 646 
3 644 250 276 
3 143 291 247 
3 86 121 679 
3 393 44 711 
3 544 310 625 
3 681 131 418 
3 144 93 253 
3 287 566 649 
3 514 527 630 
3 673 344 172 
3 563 503 266 
3 214 651 204 
3 179 248 729 
3 245 190 735 
3 151 542 153 
3 242 261 5 
3 127 41 486 
3 283 722 233 
3 170 309 238 
3 702 531 358 
3 248 305 549 
3 275 537 109 
3 274 644 276 
3 418 4 362 
3 580 269 227 
3 489 123 210 
3 727 722 337 
3 48 589 478 
3 53 690 737 
3 286 57 521 
3 556 250 740 
3 559 744 667 
3 7 242 386 
3 314 608 13 
3 85 420 225 
3 713 132 612 
3 107 531 603 
3 164 554 493 
3 505 516 665 
3 331 384 389 
3 544 574 304 
3 264 184 561 
3 331 390 384 
3 444 450 709 
3 6 288 70 
3 51 712 200 
3 296 195 222 
3 117 173 721 
3 331 389 390 
3 680 651 73 
3 111 18 571 
3 208 40 272 
3 31 543 29 
3 316 338 661 
3 686 205 434 
3 176 167 251 
3 732 84 16 
3 173 290 313 
3 302 99 67 
3 618 426 526 
3 129 703 383 
3 123 489 95 
3 570 35 15 
3 93 112 253 
3 6 273 288 
3 561 13 329 
3 80 229 77 
3 139 519 32 
3 581 186 191 
3 579 508 107 
3 575 709 206 
3 8 525 517 
3 547 136 58 
3 645 318 606 
3 158 496 386 
3 541 285 448 
3 332 615 121 
3 216 226 452 
3 27 109 103 
3 592 732 16 
3 556 682 205 
3 621 654 300 
3 611 302 67 
3 297 303 354 
3 567 92 169 
3 453 303 49 
3 477 638 525 
3 333 468 102 
3 204 363 561 
3 5 261 91 
3 236 632 685 
3 423 221 558 
3 247 522 513 
3 441 601 675 
3 366 273 429 
3 39 59 638 
3 61 278 656 
3 725 165 486 
3 131 201 501 
3 707 567 723 
3 204 668 663 
3 38 685 632 
3 281 379 24 
3 44 108 559 
3 302 218 394 
3 298 210 130 
3 184 651 324 
3 139 481 519 
3 719 90 417 
3 34 22 497 
3 479 715 120 
3 83 631 706 
3 401 72 748 
3 54 565 232 
3 307 503 563 
3 534 499 382 
3 351 342 47 
3 703 466 696 
3 243 360 649 
3 186 75 189 
3 425 462 493 
3 578 321 619 
3 433 708 405 
3 109 27 128 
3 151 31 29 
3 623 671 446 
3 359 322 538 
3 554 160 523 
3 17 726 196 
3 156 216 334 
3 433 446 234 
3 20 524 335 
3 381 7 437 
3 438 14 361 
3 362 733 418 
3 392 703 375 
3 376 431 461 
3 748 533 475 
3 246 492 255 
3 357 677 339 
3 447 99 302 
3 470 356 42 
3 287 305 372 
3 158 718 203 
3 533 246 475 
3 58 711 66 
3 264 668 184 
3 50 115 20 
3 142 491 87 
3 477 39 638 
3 553 196 340 
3 299 264 561 
3 508 658 570 
3 510 2 268 
3 519 51 262 
3 336 7 386 
3 55 245 187 
3 631 206 450 
3 611 67 313 
3 499 45 699 
3 641 543 443 
3 2 632 236 
3 612 338 713 
3 419 322 359 
3 195 296 464 
3 504 268 202 
3 121 137 0 
3 91 648 254 
3 326 120 134 
3 140 216 119 
3 446 405 623 
3 16 599 592 
3 201 131 622 
3 35 570 658 
3 582 134 583 
3 368 414 584 
3 480 659 215 
3 729 578 606 
3 232 277 219 
3 393 711 141 
3 126 267 286 
3 647 693 609 
3 304 522 291 
3 322 419 626 
3 495 329 557 
3 120 212 270 
3 69 328 152 
3 669 578 729 
3 286 562 223 
3 203 496 158 
3 69 568 596 
3 735 225 346 
3 354 303 338 
3 6 429 273 
3 689 315 314 
3 412 372 672 
3 738 300 617 
3 300 654 488 
3 731 292 660 
3 63 487 611 
3 274 283 233 
3 459 183 421 
3 454 40 586 
3 166 476 144 
3 567 147 92 
3 554 481 425 
3 340 353 506 
3 41 127 110 
3 662 573 341 
3 189 75 220 
3 30 153 432 
3 242 7 546 
3 192 706 631 
3 296 222 583 
3 432 599 16 
3 135 115 93 
3 76 368 584 
3 413 203 718 
3 215 659 432 
3 308 511 319 
3 286 267 57 
3 154 7 336 
3 47 175 351 
3 450 206 709 
3 446 433 405 
3 204 668 363 
3 293 722 174 
3 557 511 308 
3 205 686 276 
3 730 370 263 
3 697 295 40 
3 748 170 401 
3 422 3 146 
3 406 722 430 
3 588 185 394 
3 97 437 15 
3 137 615 380 
3 622 681 144 
3 511 13 34 
3 296 583 134 
3 700 117 536 
3 579 658 508 
3 465 294 471 
3 347 189 581 
3 337 727 390 
3 534 642 678 
3 614 73 214 
3 349 518 4 
3 38 632 591 
3 103 109 537 
3 152 328 265 
3 619 748 72 
3 284 515 154 
3 715 212 120 
3 299 206 180 
3 540 193 130 
3 311 673 172 
3 657 231 601 
3 682 434 205 
3 724 514 342 
3 705 167 10 
3 94 375 102 
3 161 11 605 
3 159 615 332 
3 642 534 434 
3 580 415 356 
3 213 449 452 
3 174 722 460 
3 703 509 383 
3 142 466 584 
3 131 501 418 
3 315 689 596 
3 90 33 177 
3 354 338 612 
3 685 650 246 
3 662 354 573 
3 498 32 262 
3 231 657 540 
3 748 619 533 
3 194 430 408 
3 450 341 435 
3 227 361 580 
3 45 71 80 
3 211 671 23 
3 89 66 100 
3 485 540 474 
3 86 679 548 
3 428 242 5 
3 178 491 142 
3 385 90 177 
3 19 240 228 
3 436 148 616 
3 232 712 162 
3 630 340 506 
3 552 515 373 
3 71 499 720 
3 730 671 623 
3 441 474 540 
3 191 174 105 
3 531 56 358 
3 190 245 442 
3 144 476 135 
3 707 588 147 
3 349 4 418 
3 515 456 591 
3 94 392 375 
3 450 110 341 
3 344 488 654 
3 722 403 233 
3 404 647 609 
3 292 247 333 
3 327 635 688 
3 38 591 650 
3 246 255 475 
3 404 119 647 
3 299 180 264 
3 611 590 218 
3 152 265 646 
3 715 338 316 
3 48 198 589 
3 729 606 503 
3 744 175 736 
3 86 235 332 
3 290 413 63 
3 531 374 603 
3 145 489 210 
3 334 216 140 
3 447 309 312 
3 515 437 154 
3 616 148 701 
3 515 284 456 
3 628 492 64 
3 491 216 149 
3 450 435 52 
3 298 520 740 
3 594 476 46 
3 159 332 199 
3 722 409 403 
3 535 521 398 
3 251 308 124 
3 486 289 424 
3 221 461 576 
3 484 530 90 
3 416 696 142 
3 285 467 595 
3 693 647 472 
3 312 475 255 
3 633 516 169 
3 510 358 325 
3 626 393 141 
3 523 51 481 
3 24 227 600 
3 230 37 666 
3 542 512 497 
3 10 575 387 
3 13 511 557 
3 242 428 386 
3 683 81 194 
3 579 172 658 
3 120 473 479 
3 714 292 731 
3 740 520 556 
3 177 11 161 
3 18 691 112 
3 137 555 0 
3 747 49 465 
3 318 401 266 
3 522 574 742 
3 575 206 299 
3 548 113 549 
3 375 237 102 
3 348 470 625 
3 239 607 197 
3 710 713 155 
3 268 2 202 
3 397 156 334 
3 261 607 648 
3 164 493 122 
3 691 111 565 
3 87 427 118 
3 160 90 719 
3 391 482 174 
3 733 166 418 
3 682 193 434 
3 735 346 187 
3 726 398 77 
3 653 184 324 
3 610 45 80 
3 575 299 387 
3 616 46 436 
3 168 595 319 
3 364 609 279 
3 666 278 732 
3 191 105 75 
3 559 108 744 
3 125 76 174 
3 71 695 80 
3 576 406 194 
3 385 484 90 
3 213 643 449 
3 192 631 639 
3 538 322 141 
3 610 80 77 
3 695 240 229 
3 492 628 255 
3 329 495 411 
3 36 457 539 
3 53 743 98 
3 282 731 660 
3 42 544 625 
3 506 47 630 
3 132 713 710 
3 719 523 160 
3 483 722 125 
3 133 54 420 
3 425 481 139 
3 283 274 739 
3 581 490 174 
3 649 566 243 
3 419 359 694 
3 616 701 674 
3 545 480 215 
3 577 739 96 
3 406 576 461 
3 357 257 438 
3 171 181 436 
3 267 382 699 
3 250 644 403 
3 20 725 524 
3 618 717 426 
3 171 532 181 
3 281 164 395 
3 424 127 486 
3 394 463 697 
3 634 226 216 
3 601 441 657 
3 30 61 153 
3 463 295 697 
3 626 419 541 
3 301 359 538 
3 554 523 481 
3 581 174 75 
3 174 482 377 
3 200 712 219 
3 664 736 175 
3 217 592 562 
3 281 3 422 
3 506 300 488 
3 144 135 93 
3 270 134 120 
3 415 580 361 
3 10 444 709 
3 675 65 550 
3 503 606 318 
3 330 499 678 
3 43 272 186 
3 154 336 284 
3 188 108 44 
3 323 680 73 
3 702 358 655 
3 47 506 344 
3 404 569 140 
3 50 335 551 
3 678 642 365 
3 546 350 607 
3 744 345 175 
3 588 218 590 
3 294 138 183 
3 3 600 494 
3 725 20 165 
3 722 216 455 
3 361 24 438 
3 168 319 511 
3 64 492 502 
3 675 5 241 
3 45 267 699 
3 130 193 520 
3 607 240 197 
3 306 551 79 
3 273 366 426 
3 233 403 644 
3 553 340 630 
3 429 118 427 
3 508 400 317 
3 377 343 320 
3 671 100 23 
3 431 722 406 
3 121 78 679 
3 82 319 79 
3 21 201 622 
3 357 613 677 
3 596 651 69 
3 562 286 521 
3 57 45 610 
3 486 41 725 
3 476 207 46 
3 638 716 517 
3 439 447 312 
3 536 117 721 
3 288 440 587 
3 78 504 679 
3 311 603 598 
3 382 715 534 
3 360 549 649 
3 237 597 102 
3 12 225 735 
3 166 207 476 
3 289 701 424 
3 547 89 462 
3 358 591 325 
3 439 67 99 
3 53 98 449 
3 365 330 678 
3 218 302 611 
3 217 535 17 
3 270 316 464 
3 171 518 618 
3 746 280 687 
3 546 7 381 
3 552 437 515 
3 490 191 75 
3 137 121 615 
3 180 206 402 
3 747 728 453 
3 278 84 732 
3 430 320 408 
3 146 525 8 
3 639 631 450 
3 52 435 612 
3 600 281 24 
3 242 546 261 
3 206 83 396 
3 620 162 712 
3 306 79 112 
3 526 693 472 
3 280 647 687 
3 310 101 625 
3 720 163 676 
3 29 542 151 
3 591 400 515 
3 168 458 595 
3 493 636 122 
3 20 335 50 
3 419 694 244 
3 133 622 691 
3 487 585 590 
3 115 50 399 
3 343 408 407 
3 598 664 311 
3 505 723 516 
3 274 276 96 
3 372 412 574 
3 624 621 300 
3 566 9 243 
3 157 327 672 
3 555 708 410 
3 356 269 580 
3 241 5 91 
3 594 46 674 
3 481 51 519 
3 540 485 441 
3 397 364 156 
3 214 204 663 
3 44 559 711 
3 270 464 296 
3 307 635 157 
3 429 237 118 
3 26 196 553 
3 430 722 483 
3 490 75 105 
3 334 140 569 
3 494 269 470 
3 209 65 601 
3 21 622 133 
3 223 126 286 
3 423 376 221 
3 337 390 331 
3 202 2 236 
3 319 595 467 
3 741 385 177 
3 76 466 698 
3 167 176 524 
3 466 129 698 
3 143 247 292 
3 467 244 18 
3 365 241 330 
3 217 562 535 
3 18 694 571 
3 470 348 494 
3 489 585 95 
3 581 75 186 
3 730 623 640 
3 502 456 284 
3 432 16 84 
3 265 507 599 
3 113 669 248 
3 437 552 15 
3 128 378 469 
3 736 68 234 
3 111 277 565 
3 104 216 722 
3 428 5 550 
3 69 192 328 
3 347 43 186 
3 198 257 589 
3 55 605 282 
3 412 672 327 
3 17 26 529 
3 320 343 407 
3 611 487 590 
3 554 425 493 
3 192 639 537 
3 464 316 453 
3 119 216 687 
3 47 342 514 
3 708 702 410 
3 114 478 355 
3 556 520 193 
3 667 744 211 
3 38 650 685 
3 646 432 659 
3 648 607 239 
3 433 68 708 
3 409 722 224 
3 332 235 199 
3 325 591 632 
3 506 488 344 
3 97 381 437 
3 108 345 744 
3 37 230 553 
3 172 579 107 
3 220 635 563 
3 266 401 238 
3 470 42 625 
3 367 301 538 
3 405 708 555 
3 485 657 106 
3 175 47 673 
3 407 377 665 
3 732 217 529 
3 395 379 281 
3 480 315 596 
3 5 675 550 
3 729 248 669 
3 522 247 291 
3 182 171 436 
3 506 353 300 
3 190 440 349 
3 602 249 25 
3 675 241 365 
3 429 597 237 
3 22 153 542 
3 159 478 114 
3 172 107 311 
3 464 453 195 
3 661 338 303 
3 561 184 653 
3 458 497 512 
3 169 516 567 
3 55 282 245 
3 398 57 610 
3 121 86 332 
3 270 212 479 
3 606 578 629 
3 540 485 106 
3 699 382 499 
3 58 538 704 
3 170 312 309 
3 720 330 163 
3 113 248 549 
3 704 711 58 
3 568 646 659 
3 731 638 59 
3 370 636 462 
3 596 568 480 
3 555 640 405 
3 145 388 489 
3 207 166 733 
3 83 680 323 
3 187 741 55 
3 708 68 374 
3 103 132 710 
